<svg xmlns="http://www.w3.org/2000/svg" width="51" height="24" viewBox="0 0 51 24">
    <path fill="#FFF" fill-rule="evenodd" d="M18.23 19.055H8.474l-1.814 4.483H0L10.187.462h6.428l10.22 23.076h-6.791l-1.813-4.483zm-1.911-4.813l-2.967-7.385-2.967 7.385h5.934zm27.824-2.737h5.77v9.56c-1.32.946-2.836 1.671-4.55 2.177A18.104 18.104 0 0 1 40.22 24c-2.418 0-4.594-.511-6.528-1.533-1.934-1.022-3.45-2.445-4.55-4.27-1.098-1.823-1.647-3.89-1.647-6.197 0-2.308.549-4.374 1.648-6.198 1.099-1.824 2.626-3.247 4.582-4.269C35.681.511 37.89 0 40.352 0c2.154 0 4.088.363 5.802 1.088 1.714.725 3.143 1.77 4.286 3.132l-4.154 3.758c-1.56-1.714-3.429-2.571-5.605-2.571-1.978 0-3.571.598-4.78 1.796S34.088 10 34.088 12c0 1.275.275 2.412.824 3.412a5.91 5.91 0 0 0 2.308 2.34c.989.561 2.12.841 3.395.841a8.34 8.34 0 0 0 3.528-.758v-6.33z"/>
</svg>
