<?xml version="1.0" encoding="UTF-8"?>
<svg width="79px" height="79px" viewBox="0 0 79 79" version="1.1" xmlns="http://www.w3.org/2000/svg" xmlns:xlink="http://www.w3.org/1999/xlink">
    <!-- Generator: Sketch 42 (36781) - http://www.bohemiancoding.com/sketch -->
    <title>Karpaty Sprite</title>
    <desc>Created with Sketch.</desc>
    <defs></defs>
    <g id="Sprites" stroke="none" stroke-width="1" fill="none" fill-rule="evenodd">
        <g id="Desktop-HD" transform="translate(-673.000000, -489.000000)">
            <g id="Karpaty-Sprite" transform="translate(673.000000, 489.000000)">
                <g id="Karpaty" fill="#A0A9AF">
                    <path d="M39.3776722,0.376591837 C39.0600433,0.376591837 38.771734,0.430469388 38.6239144,0.516795918 C37.6203294,1.10516327 35.8587108,2.13373469 34.0995356,3.16108163 C32.3391387,4.18904082 30.5805742,5.21638776 29.5843191,5.79985714 C29.3943526,5.91128571 28.8537727,6.3925102 28.8537727,7.12353061 L28.8537727,17.5316939 C28.8537727,18.2186327 29.3882443,18.7372041 29.5824866,18.8480204 C30.5842392,19.4192449 32.3250897,20.4061837 34.0689943,21.3943469 C35.8251155,22.3898571 37.5849015,23.3872041 38.5945948,23.9633265 C38.7503552,24.052102 39.0527134,24.1072041 39.3843912,24.1072041 C39.7007985,24.1072041 39.9970485,24.0551633 40.1387598,23.9737347 C41.2052598,23.3657755 43.0707186,22.3078163 44.884868,21.2798571 C46.5988423,20.3082245 48.2670046,19.3629184 49.1698036,18.8480204 C49.5576773,18.6263878 49.8985175,18.0086327 49.8985175,17.5255714 L49.8985175,7.11985714 C49.8985175,6.22781633 49.3481644,5.90577551 49.1673603,5.79985714 C48.1790459,5.22067347 46.4278113,4.19761224 44.6704686,3.1714898 C42.9045742,2.13985714 41.1325716,1.10516327 40.1241,0.514959184 C39.9787237,0.429244898 39.6928577,0.376591837 39.3776722,0.376591837 M39.3843912,24.4837347 C39.1925923,24.4837347 38.7143165,24.4653673 38.4089041,24.2908776 C37.3992108,23.7147551 35.6400356,22.7180204 33.8839144,21.7225102 C32.139399,20.7337347 30.3985485,19.7467959 29.3967959,19.1755714 C29.0962701,19.0047551 28.4775046,18.3778163 28.4775046,17.5316939 L28.4775046,7.12353061 C28.4775046,6.21128571 29.1396387,5.62414286 29.3943526,5.4747551 C30.3912186,4.89067347 32.149783,3.86393878 33.9101799,2.83597959 C35.6693552,1.80802041 37.4303629,0.780061224 38.4339479,0.191693878 C38.7295871,0.0190408163 39.1925923,6.12244897e-05 39.3776722,6.12244897e-05 C39.5621412,6.12244897e-05 40.0220923,0.0184285714 40.3140665,0.189244898 C41.3219273,0.780061224 43.0933191,1.8147551 44.8598242,2.84638776 C46.617167,3.8725102 48.3684015,4.89557143 49.3573268,5.4747551 C49.9657082,5.83108163 50.2741747,6.38455102 50.2741747,7.11985714 L50.2741747,17.5255714 C50.2741747,18.1457755 49.8624789,18.8865918 49.3554943,19.1755714 C48.4526954,19.6904694 46.784533,20.6357755 45.0693371,21.6080204 C43.2557985,22.6359796 41.3903397,23.6927143 40.3244505,24.3012857 C40.0361412,24.4659796 39.5706928,24.4837347 39.3843912,24.4837347" id="Fill-1"></path>
                    <path d="M38.5583119,22.6072653 C36.6769716,21.5309388 32.5441314,19.1970612 30.6652345,18.1225714 C30.4599974,18.0050204 30.0660155,17.6860408 30.0660155,16.6562449 L30.0660155,11.8648163 C30.0660155,11.0976735 30.4086881,10.6948163 30.6652345,10.5399184 C32.514201,9.42318367 36.3220825,10.4958367 38.498451,12.3974694 C38.6548222,12.534 37.6768918,12.9001224 36.7215619,13.0942041 C35.7900541,13.2827755 34.8872552,13.2827755 35.0668376,13.369102 C38.7152938,15.118898 42.4627036,10.2282857 44.7777294,10.0678776 C47.5795825,9.87318367 48.6845644,10.5105306 48.6845644,11.9297143 L48.6845644,16.729102 C48.6845644,17.4350204 48.3290644,17.8856327 47.9149253,18.1225714 C46.1789613,19.1156327 42.1139227,21.5082857 40.1745541,22.6170612 C39.8306598,22.8142041 38.9266392,22.8178776 38.5583119,22.6072653" id="Fill-3"></path>
                    <path d="M2.95932371,38.4404082 C3.34108918,38.4404082 3.4033933,38.3718367 3.4033933,38.1440816 L3.4033933,36.0734694 L3.4033933,35.3338776 L4.87548093,38.1440816 C4.87548093,38.1440816 5.01535979,38.4404082 5.43133144,38.4404082 L8.43353505,38.4404082 C8.63022062,38.4404082 8.66748093,38.2371429 8.62166907,38.1440816 L6.16798608,34.0891837 C6.16798608,34.0891837 7.77079021,31.0163265 8.18554021,30.3036735 C8.24906598,30.1940816 8.23746031,29.9840816 7.8422567,29.9840816 L5.23159175,29.9840816 C4.86876186,29.9840816 4.83577732,30.1114286 4.73193711,30.3036735 C4.69834175,30.3661224 3.4033933,33.1144898 3.4033933,33.1144898 L3.4033933,31.6346939 L3.4033933,30.3036735 C3.4033933,29.9834694 2.95932371,29.9840816 2.95932371,29.9840816 L0.296127835,29.9840816 C0.296127835,29.9840816 0.15502732,29.9840816 0.0737876289,30.0734694 C0.00232113402,30.152449 -0.000122164948,30.3036735 -0.000122164948,30.3036735 L-0.000122164948,30.4512245 L-0.000122164948,38.1440816 C-0.000122164948,38.1440816 -0.000122164948,38.2695918 0.085393299,38.3553061 C0.171519588,38.4410204 0.296127835,38.4404082 0.296127835,38.4404082 L2.95932371,38.4404082 Z" id="Fill-5"></path>
                    <path d="M22.4872075,31.9478571 C22.5067539,31.8645918 22.5666147,31.787449 23.0436688,31.787449 C23.1181894,31.787449 23.2201972,31.8003061 23.3503028,31.8137755 C23.4797977,31.8278571 23.5897461,31.8517347 23.6795374,31.8854082 C23.7693286,31.9190816 23.8609523,31.9631633 23.952576,32.0188776 C24.0448106,32.0745918 24.1150554,32.1486735 24.1633106,32.2417347 C24.2115657,32.3347959 24.2359987,32.4431633 24.2359987,32.5662245 C24.2359987,32.7835714 24.1907977,32.9709184 24.1010064,33.1276531 C24.0106044,33.2843878 23.8884394,33.4019388 23.7351224,33.4809184 C23.5818054,33.5605102 23.4223802,33.6180612 23.2580683,33.6535714 C23.0931456,33.6890816 22.9190606,33.707449 22.7345915,33.707449 C22.534241,33.707449 22.4768235,33.2029592 22.4639961,32.8570408 C22.4597204,32.742551 22.4578879,32.5662245 22.4578879,32.3280612 C22.4578879,32.1578571 22.4676611,32.0311224 22.4872075,31.9478571 M27.1972771,37.7507143 C27.1294755,37.5315306 27.1361946,36.3988776 26.9944832,35.8147959 C26.883924,35.3611224 26.7776405,34.9405102 26.4716173,34.6190816 C26.3775503,34.5205102 26.2737101,34.4176531 26.1411611,34.3258163 C26.0092229,34.2345918 25.8601817,34.1629592 25.695259,34.1121429 C26.5907281,33.702551 27.0470142,33.1117347 27.0470142,32.2270408 C27.0470142,31.5462245 26.8216198,30.9627551 26.3861018,30.5892857 C25.9511946,30.2164286 25.3257101,29.9837755 24.5316379,29.9837755 L19.7965245,29.9837755 C19.4752307,29.9837755 19.3530657,30.1478571 19.3530657,30.3033673 L19.3530657,38.1443878 C19.3530657,38.1443878 19.3530657,38.440102 19.6487049,38.440102 L22.3119008,38.440102 C22.5733338,38.440102 22.6081508,38.2368367 22.6081508,38.1443878 L22.6081508,35.629898 L22.9037899,35.629898 C23.175607,35.629898 23.3674059,35.6072449 23.4700245,35.7223469 C23.5732539,35.837449 23.631893,36.0762245 23.6465528,36.4380612 C23.6502178,36.4637755 23.6789265,36.6768367 23.7320683,37.0772449 C23.7852101,37.4782653 23.8395735,37.7856122 23.8945477,37.9992857 C23.9495219,38.2129592 24.0875683,38.440102 24.0875683,38.440102 L26.7507642,38.440102 C26.7507642,38.440102 27.3102796,38.440102 27.3102796,38.1443878 C27.3102796,38.0470408 27.235759,37.8737755 27.1972771,37.7507143" id="Fill-8"></path>
                    <path d="M31.5553284,31.8429184 C31.6707742,31.8576122 31.7666737,31.8741429 31.8418052,31.8980204 C31.9169366,31.921898 31.9981763,31.9574082 32.0843026,32.0051633 C32.1704289,32.0523061 32.2382304,32.1086327 32.2877072,32.1723061 C32.337184,32.2365918 32.3793309,32.3186327 32.4147588,32.4190408 C32.4495758,32.519449 32.4666789,32.6339388 32.4666789,32.761898 C32.4666789,32.9302653 32.4373593,33.0808776 32.3787201,33.2149592 C32.3200809,33.3484286 32.2425062,33.4580204 32.1472175,33.5443469 C32.0519289,33.629449 31.4881376,34.0016939 31.0416247,34.0016939 C30.8522691,34.0016939 30.7459856,33.9735306 30.7459856,33.7059796 C30.7459856,31.9249592 30.7911866,31.7829184 31.0416247,31.7829184 C31.0416247,31.7829184 31.3525345,31.8178163 31.5553284,31.8429184 M28.2306093,38.4404694 L30.8938052,38.4404694 C31.0165809,38.4404694 31.1894443,38.4404694 31.1894443,38.1441429 L31.1894443,37.5533265 L31.1894443,35.639449 L32.246782,35.637 C32.455684,35.6229184 32.6548129,35.6008776 32.8441686,35.5714898 C33.0329134,35.542102 33.2393722,35.4955714 33.4635448,35.4312857 C33.6877175,35.3676122 33.8923438,35.2892449 34.0774237,35.1980204 C34.2631144,35.1067959 34.4445294,34.9861837 34.6228902,34.8361837 C34.8006402,34.6861837 34.9515139,34.5172041 35.0742897,34.3286327 C35.1970655,34.1400612 35.2966299,33.9123061 35.3717613,33.6453673 C35.4475036,33.3784286 35.4847639,33.0839388 35.4847639,32.761898 C35.4847639,32.3272041 35.4108541,31.9353673 35.2642562,31.5876122 C35.1176582,31.2404694 34.9173077,30.957 34.6644263,30.7378163 C34.410934,30.5180204 33.6577871,29.9841429 32.8172923,29.9841429 L28.3784289,29.9841429 C28.1292124,29.9841429 27.9343593,30.1010816 27.9343593,30.3031224 L27.9343593,38.1441429 C27.9343593,38.4404694 28.2306093,38.4404694 28.2306093,38.4404694" id="Fill-10"></path>
                    <path d="M13.8783657,32.5233673 C13.8783657,32.5233673 13.9925899,32.0794898 14.1740049,32.0794898 L14.7658941,34.8896939 C14.7658941,35.1884694 14.4702549,35.1854082 14.4702549,35.1854082 L13.4342961,35.1854082 C13.4342961,35.1854082 13.138657,35.1627551 13.138657,34.8896939 C13.138657,34.7788776 13.8783657,32.5233673 13.8783657,32.5233673 L13.8783657,32.5233673 Z M11.9548786,38.4407143 C12.1509534,38.4407143 12.4178838,38.4088776 12.5467678,38.145 L12.842407,37.1090816 L14.6156312,37.1078571 C14.8239224,37.1078571 15.0236621,37.2296939 15.0615332,37.4047959 C15.1061235,37.6056122 15.2099637,38.145 15.2099637,38.145 C15.2722678,38.4223469 15.5379765,38.4407143 15.6540332,38.4407143 L18.4650487,38.4407143 C18.7588554,38.4407143 18.8236028,38.3415306 18.7612987,38.145 L16.2453116,30.3033673 C16.1530771,29.9843878 15.8018528,29.9843878 15.8018528,29.9843878 L12.1026982,29.9843878 C11.8895204,29.9843878 11.8064482,30.3033673 11.8064482,30.3033673 L9.24281675,38.1443878 C9.24281675,38.1443878 9.12981418,38.4407143 9.53418015,38.4407143 L11.9548786,38.4407143 Z" id="Fill-12"></path>
                    <path d="M39.1056108,32.5233673 C39.1056108,32.5233673 39.2198351,32.0794898 39.40125,32.0794898 L39.99375,34.8896939 C39.99375,35.1884694 39.6975,35.1854082 39.6975,35.1854082 L38.6615412,35.1854082 C38.6615412,35.1854082 38.3659021,35.1627551 38.3659021,34.8896939 C38.3659021,34.7788776 39.1056108,32.5233673 39.1056108,32.5233673 L39.1056108,32.5233673 Z M37.1821237,38.4407143 C37.3788093,38.4407143 37.6451289,38.4088776 37.7740129,38.145 L38.0702629,37.1090816 L39.8428763,37.1078571 C40.0511675,37.1078571 40.2509072,37.2296939 40.2893892,37.4047959 C40.3333686,37.6056122 40.4372088,38.145 40.4372088,38.145 C40.4995129,38.4223469 40.7658325,38.4407143 40.8812784,38.4407143 L43.6922938,38.4407143 C43.9861005,38.4407143 44.0508479,38.3415306 43.9885438,38.145 L41.4731675,30.3033673 C41.380933,29.9843878 41.0290979,29.9843878 41.0290979,29.9843878 L37.3299433,29.9843878 C37.1167655,29.9843878 37.0343041,30.3033673 37.0343041,30.3033673 L34.4706727,38.1443878 C34.4706727,38.1443878 34.3570593,38.4407143 34.7614253,38.4407143 L37.1821237,38.4407143 Z" id="Fill-14"></path>
                    <path d="M73.8484059,32.5233673 C73.8484059,32.5233673 73.9626302,32.0794898 74.1446559,32.0794898 L74.7365451,34.8896939 C74.7365451,35.1884694 74.4402951,35.1854082 74.4402951,35.1854082 L73.4043363,35.1854082 C73.4043363,35.1854082 73.1086972,35.1627551 73.1086972,34.8896939 C73.1086972,34.7788776 73.8484059,32.5233673 73.8484059,32.5233673 L73.8484059,32.5233673 Z M71.9249188,38.4407143 C72.1216044,38.4407143 72.387924,38.4088776 72.516808,38.145 L72.813058,37.1090816 L74.5856714,37.1078571 C74.7939626,37.1078571 74.9937023,37.2296939 75.0321843,37.4047959 C75.0761637,37.6056122 75.1800039,38.145 75.1800039,38.145 C75.2429188,38.4223469 75.5086276,38.4407143 75.6240735,38.4407143 L78.4350889,38.4407143 C78.7288956,38.4407143 78.793643,38.3415306 78.7313389,38.145 L76.2159626,30.3033673 C76.1237281,29.9843878 75.771893,29.9843878 75.771893,29.9843878 L72.0727384,29.9843878 C71.8595606,29.9843878 71.7770992,30.3033673 71.7770992,30.3033673 L69.2134678,38.1443878 C69.2134678,38.1443878 69.0998544,38.4407143 69.5048312,38.4407143 L71.9249188,38.4407143 Z" id="Fill-16"></path>
                    <path d="M44.506401,32.3747755 C44.7232438,32.3747755 44.8020402,32.5039592 44.8020402,32.6704898 L44.8020402,37.9970204 C44.8020402,38.1953878 44.8319706,38.4402857 45.0982902,38.4402857 L47.9093057,38.4402857 C48.2055557,38.4402857 48.2055557,38.1953878 48.2055557,37.9970204 L48.2055557,32.6796735 C48.2055557,32.5406939 48.2513675,32.3747755 48.4920325,32.3747755 L49.6849732,32.3747755 C49.9800015,32.3747755 50.1290428,32.2462041 50.1290428,31.930898 L50.1290428,30.303551 C50.1290428,30.0433469 50.0594088,29.9839592 49.6849732,29.9839592 L43.1748031,29.9839592 C42.9781175,29.9839592 42.8785531,30.0825306 42.8785531,30.303551 L42.8785531,31.7833469 C42.8785531,32.2780408 43.1008933,32.3747755 43.3226227,32.3747755 L44.506401,32.3747755 Z" id="Fill-18"></path>
                    <path d="M59.4504727,29.9840816 L56.6388464,29.9840816 C56.3432072,29.9840816 56.243032,30.2926531 56.243032,30.2926531 L55.2272304,33.1904082 L54.2712897,30.3030612 C54.2712897,30.3030612 54.1998232,29.9840816 53.8278309,29.9840816 L51.0162046,29.9840816 C50.7462201,29.9840816 50.63505,30.15 50.7205655,30.3030612 L53.0881222,34.89 C53.0881222,34.89 53.3837613,35.4795918 53.3837613,36.6655102 L53.3837613,38.1440816 C53.3837613,38.37 53.4558387,38.4404082 53.6335887,38.4404082 L56.6107485,38.4404082 C56.835532,38.4404082 56.9350964,38.37 56.9350964,38.1440816 L56.9350964,36.6655102 C56.9350964,35.4226531 57.2307356,34.89 57.2307356,34.89 C57.2307356,34.89 59.5146093,30.7640816 59.7461119,30.3030612 C59.8756067,30.0667347 59.7229005,29.9840816 59.4504727,29.9840816" id="Fill-20"></path>
                    <path d="M57.9523028,38.4404082 L60.5275399,38.4404082 C60.781643,38.4404082 60.781643,38.1440816 60.781643,38.1440816 L60.781643,36.154898 C60.781643,36.154898 60.7822539,35.7771429 60.3381843,35.7771429 L58.1184472,35.7771429 C57.6749884,35.7771429 57.6749884,36.154898 57.6749884,36.154898 L57.6749884,38.1446939 C57.6749884,38.3271429 57.7763853,38.4404082 57.9523028,38.4404082" id="Fill-22"></path>
                    <path d="M61.5820678,36.795 C61.7506554,37.1641837 61.9638332,37.4586735 62.2209905,37.6784694 C62.4775369,37.8976531 62.7841709,38.0776531 63.1408925,38.2184694 C63.4963925,38.3592857 63.8482276,38.4547959 64.195176,38.5037755 C64.5421245,38.5533673 64.9721451,38.5882653 65.3685704,38.5882653 C65.7796554,38.5882653 66.105225,38.5509184 66.4613358,38.4958163 C66.8174466,38.4407143 67.1698925,38.3421429 67.5186735,38.1994898 C67.8674544,38.0568367 68.164926,37.8737755 68.4110884,37.6509184 C68.6572508,37.4280612 68.855158,37.1335714 69.0054209,36.767449 C69.1556838,36.4013265 69.2161554,35.957449 69.2161554,35.4817347 L69.2161554,30.3033673 C69.2161554,30.3033673 69.2161554,29.9837755 68.9199054,29.9837755 L66.1088899,29.9837755 C65.7900394,29.9837755 65.8126399,30.3033673 65.8126399,30.3033673 L65.8126399,35.4817347 C65.8126399,35.6531633 65.760109,35.7958163 65.6648204,35.9256122 C65.5689209,36.0554082 65.3875059,36.1637755 65.2335781,36.1637755 C65.1230188,36.1637755 65.0320059,36.1356122 64.9605394,36.0792857 C64.8890729,36.0223469 64.8395961,35.9372449 64.812109,35.8239796 C64.7846219,35.7107143 64.7766812,35.4817347 64.7766812,35.4817347 L64.7766812,30.3033673 C64.7766812,30.3033673 64.7840111,29.9837755 64.481042,29.9837755 L61.6700265,29.9837755 C61.3731657,29.9837755 61.3737765,30.3033673 61.3737765,30.3033673 L61.3737765,35.4817347 C61.3737765,35.4817347 61.4134802,36.4252041 61.5820678,36.795" id="Fill-24"></path>
                </g>
                <g id="Karpaty-Copy" transform="translate(0.000000, 40.000000)" fill="#4393B8">
                    <path d="M39.3776722,0.376591837 C39.0600433,0.376591837 38.771734,0.430469388 38.6239144,0.516795918 C37.6203294,1.10516327 35.8587108,2.13373469 34.0995356,3.16108163 C32.3391387,4.18904082 30.5805742,5.21638776 29.5843191,5.79985714 C29.3943526,5.91128571 28.8537727,6.3925102 28.8537727,7.12353061 L28.8537727,17.5316939 C28.8537727,18.2186327 29.3882443,18.7372041 29.5824866,18.8480204 C30.5842392,19.4192449 32.3250897,20.4061837 34.0689943,21.3943469 C35.8251155,22.3898571 37.5849015,23.3872041 38.5945948,23.9633265 C38.7503552,24.052102 39.0527134,24.1072041 39.3843912,24.1072041 C39.7007985,24.1072041 39.9970485,24.0551633 40.1387598,23.9737347 C41.2052598,23.3657755 43.0707186,22.3078163 44.884868,21.2798571 C46.5988423,20.3082245 48.2670046,19.3629184 49.1698036,18.8480204 C49.5576773,18.6263878 49.8985175,18.0086327 49.8985175,17.5255714 L49.8985175,7.11985714 C49.8985175,6.22781633 49.3481644,5.90577551 49.1673603,5.79985714 C48.1790459,5.22067347 46.4278113,4.19761224 44.6704686,3.1714898 C42.9045742,2.13985714 41.1325716,1.10516327 40.1241,0.514959184 C39.9787237,0.429244898 39.6928577,0.376591837 39.3776722,0.376591837 M39.3843912,24.4837347 C39.1925923,24.4837347 38.7143165,24.4653673 38.4089041,24.2908776 C37.3992108,23.7147551 35.6400356,22.7180204 33.8839144,21.7225102 C32.139399,20.7337347 30.3985485,19.7467959 29.3967959,19.1755714 C29.0962701,19.0047551 28.4775046,18.3778163 28.4775046,17.5316939 L28.4775046,7.12353061 C28.4775046,6.21128571 29.1396387,5.62414286 29.3943526,5.4747551 C30.3912186,4.89067347 32.149783,3.86393878 33.9101799,2.83597959 C35.6693552,1.80802041 37.4303629,0.780061224 38.4339479,0.191693878 C38.7295871,0.0190408163 39.1925923,6.12244897e-05 39.3776722,6.12244897e-05 C39.5621412,6.12244897e-05 40.0220923,0.0184285714 40.3140665,0.189244898 C41.3219273,0.780061224 43.0933191,1.8147551 44.8598242,2.84638776 C46.617167,3.8725102 48.3684015,4.89557143 49.3573268,5.4747551 C49.9657082,5.83108163 50.2741747,6.38455102 50.2741747,7.11985714 L50.2741747,17.5255714 C50.2741747,18.1457755 49.8624789,18.8865918 49.3554943,19.1755714 C48.4526954,19.6904694 46.784533,20.6357755 45.0693371,21.6080204 C43.2557985,22.6359796 41.3903397,23.6927143 40.3244505,24.3012857 C40.0361412,24.4659796 39.5706928,24.4837347 39.3843912,24.4837347" id="Fill-1"></path>
                    <path d="M38.5583119,22.6072653 C36.6769716,21.5309388 32.5441314,19.1970612 30.6652345,18.1225714 C30.4599974,18.0050204 30.0660155,17.6860408 30.0660155,16.6562449 L30.0660155,11.8648163 C30.0660155,11.0976735 30.4086881,10.6948163 30.6652345,10.5399184 C32.514201,9.42318367 36.3220825,10.4958367 38.498451,12.3974694 C38.6548222,12.534 37.6768918,12.9001224 36.7215619,13.0942041 C35.7900541,13.2827755 34.8872552,13.2827755 35.0668376,13.369102 C38.7152938,15.118898 42.4627036,10.2282857 44.7777294,10.0678776 C47.5795825,9.87318367 48.6845644,10.5105306 48.6845644,11.9297143 L48.6845644,16.729102 C48.6845644,17.4350204 48.3290644,17.8856327 47.9149253,18.1225714 C46.1789613,19.1156327 42.1139227,21.5082857 40.1745541,22.6170612 C39.8306598,22.8142041 38.9266392,22.8178776 38.5583119,22.6072653" id="Fill-3"></path>
                    <path d="M2.95932371,38.4404082 C3.34108918,38.4404082 3.4033933,38.3718367 3.4033933,38.1440816 L3.4033933,36.0734694 L3.4033933,35.3338776 L4.87548093,38.1440816 C4.87548093,38.1440816 5.01535979,38.4404082 5.43133144,38.4404082 L8.43353505,38.4404082 C8.63022062,38.4404082 8.66748093,38.2371429 8.62166907,38.1440816 L6.16798608,34.0891837 C6.16798608,34.0891837 7.77079021,31.0163265 8.18554021,30.3036735 C8.24906598,30.1940816 8.23746031,29.9840816 7.8422567,29.9840816 L5.23159175,29.9840816 C4.86876186,29.9840816 4.83577732,30.1114286 4.73193711,30.3036735 C4.69834175,30.3661224 3.4033933,33.1144898 3.4033933,33.1144898 L3.4033933,31.6346939 L3.4033933,30.3036735 C3.4033933,29.9834694 2.95932371,29.9840816 2.95932371,29.9840816 L0.296127835,29.9840816 C0.296127835,29.9840816 0.15502732,29.9840816 0.0737876289,30.0734694 C0.00232113402,30.152449 -0.000122164948,30.3036735 -0.000122164948,30.3036735 L-0.000122164948,30.4512245 L-0.000122164948,38.1440816 C-0.000122164948,38.1440816 -0.000122164948,38.2695918 0.085393299,38.3553061 C0.171519588,38.4410204 0.296127835,38.4404082 0.296127835,38.4404082 L2.95932371,38.4404082 Z" id="Fill-5"></path>
                    <path d="M22.4872075,31.9478571 C22.5067539,31.8645918 22.5666147,31.787449 23.0436688,31.787449 C23.1181894,31.787449 23.2201972,31.8003061 23.3503028,31.8137755 C23.4797977,31.8278571 23.5897461,31.8517347 23.6795374,31.8854082 C23.7693286,31.9190816 23.8609523,31.9631633 23.952576,32.0188776 C24.0448106,32.0745918 24.1150554,32.1486735 24.1633106,32.2417347 C24.2115657,32.3347959 24.2359987,32.4431633 24.2359987,32.5662245 C24.2359987,32.7835714 24.1907977,32.9709184 24.1010064,33.1276531 C24.0106044,33.2843878 23.8884394,33.4019388 23.7351224,33.4809184 C23.5818054,33.5605102 23.4223802,33.6180612 23.2580683,33.6535714 C23.0931456,33.6890816 22.9190606,33.707449 22.7345915,33.707449 C22.534241,33.707449 22.4768235,33.2029592 22.4639961,32.8570408 C22.4597204,32.742551 22.4578879,32.5662245 22.4578879,32.3280612 C22.4578879,32.1578571 22.4676611,32.0311224 22.4872075,31.9478571 M27.1972771,37.7507143 C27.1294755,37.5315306 27.1361946,36.3988776 26.9944832,35.8147959 C26.883924,35.3611224 26.7776405,34.9405102 26.4716173,34.6190816 C26.3775503,34.5205102 26.2737101,34.4176531 26.1411611,34.3258163 C26.0092229,34.2345918 25.8601817,34.1629592 25.695259,34.1121429 C26.5907281,33.702551 27.0470142,33.1117347 27.0470142,32.2270408 C27.0470142,31.5462245 26.8216198,30.9627551 26.3861018,30.5892857 C25.9511946,30.2164286 25.3257101,29.9837755 24.5316379,29.9837755 L19.7965245,29.9837755 C19.4752307,29.9837755 19.3530657,30.1478571 19.3530657,30.3033673 L19.3530657,38.1443878 C19.3530657,38.1443878 19.3530657,38.440102 19.6487049,38.440102 L22.3119008,38.440102 C22.5733338,38.440102 22.6081508,38.2368367 22.6081508,38.1443878 L22.6081508,35.629898 L22.9037899,35.629898 C23.175607,35.629898 23.3674059,35.6072449 23.4700245,35.7223469 C23.5732539,35.837449 23.631893,36.0762245 23.6465528,36.4380612 C23.6502178,36.4637755 23.6789265,36.6768367 23.7320683,37.0772449 C23.7852101,37.4782653 23.8395735,37.7856122 23.8945477,37.9992857 C23.9495219,38.2129592 24.0875683,38.440102 24.0875683,38.440102 L26.7507642,38.440102 C26.7507642,38.440102 27.3102796,38.440102 27.3102796,38.1443878 C27.3102796,38.0470408 27.235759,37.8737755 27.1972771,37.7507143" id="Fill-8"></path>
                    <path d="M31.5553284,31.8429184 C31.6707742,31.8576122 31.7666737,31.8741429 31.8418052,31.8980204 C31.9169366,31.921898 31.9981763,31.9574082 32.0843026,32.0051633 C32.1704289,32.0523061 32.2382304,32.1086327 32.2877072,32.1723061 C32.337184,32.2365918 32.3793309,32.3186327 32.4147588,32.4190408 C32.4495758,32.519449 32.4666789,32.6339388 32.4666789,32.761898 C32.4666789,32.9302653 32.4373593,33.0808776 32.3787201,33.2149592 C32.3200809,33.3484286 32.2425062,33.4580204 32.1472175,33.5443469 C32.0519289,33.629449 31.4881376,34.0016939 31.0416247,34.0016939 C30.8522691,34.0016939 30.7459856,33.9735306 30.7459856,33.7059796 C30.7459856,31.9249592 30.7911866,31.7829184 31.0416247,31.7829184 C31.0416247,31.7829184 31.3525345,31.8178163 31.5553284,31.8429184 M28.2306093,38.4404694 L30.8938052,38.4404694 C31.0165809,38.4404694 31.1894443,38.4404694 31.1894443,38.1441429 L31.1894443,37.5533265 L31.1894443,35.639449 L32.246782,35.637 C32.455684,35.6229184 32.6548129,35.6008776 32.8441686,35.5714898 C33.0329134,35.542102 33.2393722,35.4955714 33.4635448,35.4312857 C33.6877175,35.3676122 33.8923438,35.2892449 34.0774237,35.1980204 C34.2631144,35.1067959 34.4445294,34.9861837 34.6228902,34.8361837 C34.8006402,34.6861837 34.9515139,34.5172041 35.0742897,34.3286327 C35.1970655,34.1400612 35.2966299,33.9123061 35.3717613,33.6453673 C35.4475036,33.3784286 35.4847639,33.0839388 35.4847639,32.761898 C35.4847639,32.3272041 35.4108541,31.9353673 35.2642562,31.5876122 C35.1176582,31.2404694 34.9173077,30.957 34.6644263,30.7378163 C34.410934,30.5180204 33.6577871,29.9841429 32.8172923,29.9841429 L28.3784289,29.9841429 C28.1292124,29.9841429 27.9343593,30.1010816 27.9343593,30.3031224 L27.9343593,38.1441429 C27.9343593,38.4404694 28.2306093,38.4404694 28.2306093,38.4404694" id="Fill-10"></path>
                    <path d="M13.8783657,32.5233673 C13.8783657,32.5233673 13.9925899,32.0794898 14.1740049,32.0794898 L14.7658941,34.8896939 C14.7658941,35.1884694 14.4702549,35.1854082 14.4702549,35.1854082 L13.4342961,35.1854082 C13.4342961,35.1854082 13.138657,35.1627551 13.138657,34.8896939 C13.138657,34.7788776 13.8783657,32.5233673 13.8783657,32.5233673 L13.8783657,32.5233673 Z M11.9548786,38.4407143 C12.1509534,38.4407143 12.4178838,38.4088776 12.5467678,38.145 L12.842407,37.1090816 L14.6156312,37.1078571 C14.8239224,37.1078571 15.0236621,37.2296939 15.0615332,37.4047959 C15.1061235,37.6056122 15.2099637,38.145 15.2099637,38.145 C15.2722678,38.4223469 15.5379765,38.4407143 15.6540332,38.4407143 L18.4650487,38.4407143 C18.7588554,38.4407143 18.8236028,38.3415306 18.7612987,38.145 L16.2453116,30.3033673 C16.1530771,29.9843878 15.8018528,29.9843878 15.8018528,29.9843878 L12.1026982,29.9843878 C11.8895204,29.9843878 11.8064482,30.3033673 11.8064482,30.3033673 L9.24281675,38.1443878 C9.24281675,38.1443878 9.12981418,38.4407143 9.53418015,38.4407143 L11.9548786,38.4407143 Z" id="Fill-12"></path>
                    <path d="M39.1056108,32.5233673 C39.1056108,32.5233673 39.2198351,32.0794898 39.40125,32.0794898 L39.99375,34.8896939 C39.99375,35.1884694 39.6975,35.1854082 39.6975,35.1854082 L38.6615412,35.1854082 C38.6615412,35.1854082 38.3659021,35.1627551 38.3659021,34.8896939 C38.3659021,34.7788776 39.1056108,32.5233673 39.1056108,32.5233673 L39.1056108,32.5233673 Z M37.1821237,38.4407143 C37.3788093,38.4407143 37.6451289,38.4088776 37.7740129,38.145 L38.0702629,37.1090816 L39.8428763,37.1078571 C40.0511675,37.1078571 40.2509072,37.2296939 40.2893892,37.4047959 C40.3333686,37.6056122 40.4372088,38.145 40.4372088,38.145 C40.4995129,38.4223469 40.7658325,38.4407143 40.8812784,38.4407143 L43.6922938,38.4407143 C43.9861005,38.4407143 44.0508479,38.3415306 43.9885438,38.145 L41.4731675,30.3033673 C41.380933,29.9843878 41.0290979,29.9843878 41.0290979,29.9843878 L37.3299433,29.9843878 C37.1167655,29.9843878 37.0343041,30.3033673 37.0343041,30.3033673 L34.4706727,38.1443878 C34.4706727,38.1443878 34.3570593,38.4407143 34.7614253,38.4407143 L37.1821237,38.4407143 Z" id="Fill-14"></path>
                    <path d="M73.8484059,32.5233673 C73.8484059,32.5233673 73.9626302,32.0794898 74.1446559,32.0794898 L74.7365451,34.8896939 C74.7365451,35.1884694 74.4402951,35.1854082 74.4402951,35.1854082 L73.4043363,35.1854082 C73.4043363,35.1854082 73.1086972,35.1627551 73.1086972,34.8896939 C73.1086972,34.7788776 73.8484059,32.5233673 73.8484059,32.5233673 L73.8484059,32.5233673 Z M71.9249188,38.4407143 C72.1216044,38.4407143 72.387924,38.4088776 72.516808,38.145 L72.813058,37.1090816 L74.5856714,37.1078571 C74.7939626,37.1078571 74.9937023,37.2296939 75.0321843,37.4047959 C75.0761637,37.6056122 75.1800039,38.145 75.1800039,38.145 C75.2429188,38.4223469 75.5086276,38.4407143 75.6240735,38.4407143 L78.4350889,38.4407143 C78.7288956,38.4407143 78.793643,38.3415306 78.7313389,38.145 L76.2159626,30.3033673 C76.1237281,29.9843878 75.771893,29.9843878 75.771893,29.9843878 L72.0727384,29.9843878 C71.8595606,29.9843878 71.7770992,30.3033673 71.7770992,30.3033673 L69.2134678,38.1443878 C69.2134678,38.1443878 69.0998544,38.4407143 69.5048312,38.4407143 L71.9249188,38.4407143 Z" id="Fill-16"></path>
                    <path d="M44.506401,32.3747755 C44.7232438,32.3747755 44.8020402,32.5039592 44.8020402,32.6704898 L44.8020402,37.9970204 C44.8020402,38.1953878 44.8319706,38.4402857 45.0982902,38.4402857 L47.9093057,38.4402857 C48.2055557,38.4402857 48.2055557,38.1953878 48.2055557,37.9970204 L48.2055557,32.6796735 C48.2055557,32.5406939 48.2513675,32.3747755 48.4920325,32.3747755 L49.6849732,32.3747755 C49.9800015,32.3747755 50.1290428,32.2462041 50.1290428,31.930898 L50.1290428,30.303551 C50.1290428,30.0433469 50.0594088,29.9839592 49.6849732,29.9839592 L43.1748031,29.9839592 C42.9781175,29.9839592 42.8785531,30.0825306 42.8785531,30.303551 L42.8785531,31.7833469 C42.8785531,32.2780408 43.1008933,32.3747755 43.3226227,32.3747755 L44.506401,32.3747755 Z" id="Fill-18"></path>
                    <path d="M59.4504727,29.9840816 L56.6388464,29.9840816 C56.3432072,29.9840816 56.243032,30.2926531 56.243032,30.2926531 L55.2272304,33.1904082 L54.2712897,30.3030612 C54.2712897,30.3030612 54.1998232,29.9840816 53.8278309,29.9840816 L51.0162046,29.9840816 C50.7462201,29.9840816 50.63505,30.15 50.7205655,30.3030612 L53.0881222,34.89 C53.0881222,34.89 53.3837613,35.4795918 53.3837613,36.6655102 L53.3837613,38.1440816 C53.3837613,38.37 53.4558387,38.4404082 53.6335887,38.4404082 L56.6107485,38.4404082 C56.835532,38.4404082 56.9350964,38.37 56.9350964,38.1440816 L56.9350964,36.6655102 C56.9350964,35.4226531 57.2307356,34.89 57.2307356,34.89 C57.2307356,34.89 59.5146093,30.7640816 59.7461119,30.3030612 C59.8756067,30.0667347 59.7229005,29.9840816 59.4504727,29.9840816" id="Fill-20"></path>
                    <path d="M57.9523028,38.4404082 L60.5275399,38.4404082 C60.781643,38.4404082 60.781643,38.1440816 60.781643,38.1440816 L60.781643,36.154898 C60.781643,36.154898 60.7822539,35.7771429 60.3381843,35.7771429 L58.1184472,35.7771429 C57.6749884,35.7771429 57.6749884,36.154898 57.6749884,36.154898 L57.6749884,38.1446939 C57.6749884,38.3271429 57.7763853,38.4404082 57.9523028,38.4404082" id="Fill-22"></path>
                    <path d="M61.5820678,36.795 C61.7506554,37.1641837 61.9638332,37.4586735 62.2209905,37.6784694 C62.4775369,37.8976531 62.7841709,38.0776531 63.1408925,38.2184694 C63.4963925,38.3592857 63.8482276,38.4547959 64.195176,38.5037755 C64.5421245,38.5533673 64.9721451,38.5882653 65.3685704,38.5882653 C65.7796554,38.5882653 66.105225,38.5509184 66.4613358,38.4958163 C66.8174466,38.4407143 67.1698925,38.3421429 67.5186735,38.1994898 C67.8674544,38.0568367 68.164926,37.8737755 68.4110884,37.6509184 C68.6572508,37.4280612 68.855158,37.1335714 69.0054209,36.767449 C69.1556838,36.4013265 69.2161554,35.957449 69.2161554,35.4817347 L69.2161554,30.3033673 C69.2161554,30.3033673 69.2161554,29.9837755 68.9199054,29.9837755 L66.1088899,29.9837755 C65.7900394,29.9837755 65.8126399,30.3033673 65.8126399,30.3033673 L65.8126399,35.4817347 C65.8126399,35.6531633 65.760109,35.7958163 65.6648204,35.9256122 C65.5689209,36.0554082 65.3875059,36.1637755 65.2335781,36.1637755 C65.1230188,36.1637755 65.0320059,36.1356122 64.9605394,36.0792857 C64.8890729,36.0223469 64.8395961,35.9372449 64.812109,35.8239796 C64.7846219,35.7107143 64.7766812,35.4817347 64.7766812,35.4817347 L64.7766812,30.3033673 C64.7766812,30.3033673 64.7840111,29.9837755 64.481042,29.9837755 L61.6700265,29.9837755 C61.3731657,29.9837755 61.3737765,30.3033673 61.3737765,30.3033673 L61.3737765,35.4817347 C61.3737765,35.4817347 61.4134802,36.4252041 61.5820678,36.795" id="Fill-24"></path>
                </g>
            </g>
        </g>
    </g>
</svg>