<?xml version="1.0" encoding="UTF-8"?>
<svg width="116px" height="36px" viewBox="0 0 116 36" version="1.1" xmlns="http://www.w3.org/2000/svg" xmlns:xlink="http://www.w3.org/1999/xlink">
    <!-- Generator: Sketch 42 (36781) - http://www.bohemiancoding.com/sketch -->
    <title>Proizd Sprite</title>
    <desc>Created with Sketch.</desc>
    <defs>
        <polygon id="path-1" points="0.733063415 0.597789474 15.8470146 0.597789474 15.8470146 17.0523474 0.733063415 17.0523474"></polygon>
        <polygon id="path-3" points="0.733063415 0.597789474 15.8470146 0.597789474 15.8470146 17.0523474 0.733063415 17.0523474"></polygon>
    </defs>
    <g id="Sprites" stroke="none" stroke-width="1" fill="none" fill-rule="evenodd">
        <g id="Desktop-HD" transform="translate(-356.000000, -503.000000)">
            <g id="Proizd-Sprite" transform="translate(356.000000, 503.000000)">
                <g id="Proizd">
                    <g id="Group-3" transform="translate(0.000000, 1.297421)" fill="#A0A9AF">
                        <path d="M8.1463122,2.2158 C7.68608455,1.99695789 7.05327154,1.88706316 6.24975935,1.88706316 L2.10016585,1.88706316 L2.10016585,7.28422105 L6.24975935,7.28422105 C7.18624715,7.28422105 7.94637724,7.08243158 8.5292065,6.6798 C9.11203577,6.27716842 9.4043935,5.56664211 9.4043935,4.54822105 C9.4043935,3.40285263 8.9847187,2.62601053 8.1463122,2.2158 L8.1463122,2.2158 Z M-9.43089431e-05,0.0738 L6.93821463,0.0738 C8.31040976,0.0738 9.41759675,0.464115789 10.2607187,1.24569474 C11.1047837,2.02632632 11.5254016,3.12432632 11.5254016,4.5378 C11.5254016,5.75327368 11.1491089,6.81243158 10.3974667,7.71337895 C9.64393821,8.61432632 8.49336911,9.06527368 6.94198699,9.06527368 L2.10016585,9.06527368 L2.10016585,15.6494842 L-9.43089431e-05,15.6494842 L-9.43089431e-05,0.0738 Z" id="Fill-1"></path>
                    </g>
                    <path d="M20.3494179,8.50727368 C21.3075967,8.50727368 22.0648976,8.30927368 22.6232065,7.91327368 C23.1805724,7.51727368 23.4597268,6.80390526 23.4597268,5.77127368 C23.4597268,4.66190526 23.0702309,3.90590526 22.2902959,3.50232632 C21.8715642,3.29106316 21.3141984,3.18401053 20.6172553,3.18401053 L15.6283122,3.18401053 L15.6283122,8.50727368 L20.3494179,8.50727368 Z M13.528052,1.37169474 L20.5757593,1.37169474 C21.7357593,1.37169474 22.692052,1.54411579 23.4465236,1.89085263 C24.8762472,2.55495789 25.592052,3.7818 25.592052,5.57043158 C25.592052,6.50358947 25.3996618,7.26622105 25.0167675,7.86022105 C24.6329301,8.45422105 24.0963122,8.93074737 23.4069138,9.29169474 C24.0114341,9.53895789 24.4678894,9.86390526 24.7734504,10.2665368 C25.0799545,10.6701158 25.2506537,11.3238 25.285548,12.2285368 L25.3591089,14.3174842 C25.3798569,14.9114842 25.4298407,15.3529579 25.507174,15.6428526 C25.6344911,16.1373789 25.8589463,16.4556947 26.182426,16.5968526 L26.182426,16.9464316 L23.6077919,16.9464316 C23.5370602,16.8128526 23.4804748,16.6394842 23.4380358,16.4272737 C23.3955967,16.2150632 23.3607024,15.8058 23.3333528,15.1975895 L23.2060358,12.5999053 C23.1588813,11.5824316 22.7929626,10.8993789 22.1092228,10.5535895 C21.7187837,10.3622211 21.1076618,10.2665368 20.2739707,10.2665368 L15.6283122,10.2665368 L15.6283122,16.9464316 L13.528052,16.9464316 L13.528052,1.37169474 Z" id="Fill-4" fill="#A0A9AF"></path>
                    <g id="Group-8" transform="translate(27.349593, 0.350053)">
                        <mask id="mask-2" fill="white">
                            <use xlink:href="#path-1"></use>
                        </mask>
                        <g id="Clip-7"></g>
                        <path d="M12.4537789,13.1757158 C13.2808683,11.8418211 13.6939415,10.3089789 13.6939415,8.57624211 C13.6939415,6.74308421 13.2176813,5.26897895 12.2642179,4.15108421 C11.3107545,3.03318947 10.0074049,2.47424211 8.35322602,2.47424211 C6.74903089,2.47424211 5.44002276,3.02845263 4.42714472,4.13497895 C3.41426667,5.24150526 2.90688455,6.87382105 2.90688455,9.03192632 C2.90688455,10.7580316 3.34164878,12.2131895 4.21023415,13.3983474 C5.0797626,14.5835053 6.48873821,15.1756105 8.43810407,15.1756105 C10.2884455,15.1756105 11.6276325,14.5096105 12.4537789,13.1757158 M14.3060065,3.24824211 C15.333974,4.62666316 15.8470146,6.38971579 15.8470146,8.53834737 C15.8470146,10.8641368 15.2594699,12.7977158 14.0843805,14.3381368 C12.7055837,16.1476105 10.7392423,17.0523474 8.18441301,17.0523474 C5.79933984,17.0523474 3.92447805,16.2612947 2.55888455,14.6772947 C1.3413561,13.1510842 0.733063415,11.2212947 0.733063415,8.88887368 C0.733063415,6.78192632 1.25364878,4.98003158 2.29481951,3.48129474 C3.63212033,1.55813684 5.60883577,0.597505263 8.22685203,0.597505263 C10.9636976,0.597505263 12.9903967,1.48045263 14.3060065,3.24824211" id="Fill-6" fill="#A0A9AF" mask="url(#mask-2)"></path>
                    </g>
                    <polygon id="Fill-9" fill="#A0A9AF" points="47.116748 16.9460526 49.2386992 16.9460526 49.2386992 1.37131579 47.116748 1.37131579"></polygon>
                    <polygon id="Fill-11" fill="#A0A9AF" points="52.4397333 15.1971158 61.9743675 3.22711579 53.1366764 3.22711579 53.1366764 1.37122105 64.6829203 1.37122105 64.6829203 3.18448421 55.0917008 15.0910105 64.6829203 15.0910105 64.6829203 16.9469053 52.4397333 16.9469053"></polygon>
                    <path d="M72.675226,15.1443474 C73.3693398,15.1443474 73.940852,15.0695053 74.3869333,14.9217158 C75.1866732,14.6460316 75.8392911,14.1164526 76.3495024,13.3310842 C76.7540878,12.7020316 77.0464455,11.8967684 77.2256325,10.9143474 C77.3293724,10.3269789 77.3802992,9.78318947 77.3802992,9.28108421 C77.3802992,7.35129474 77.0077789,5.85255789 76.260852,4.78487368 C75.5139252,3.71813684 74.3114862,3.18382105 72.654478,3.18382105 L69.0103805,3.18382105 L69.0103805,15.1443474 L72.675226,15.1443474 Z M66.8893724,1.37150526 L73.086413,1.37150526 C75.1904455,1.37150526 76.8219902,2.13129474 77.9819902,3.65087368 C79.0165593,5.02171579 79.5333724,6.77908421 79.5333724,8.92013684 C79.5333724,10.5742421 79.2287545,12.0691895 78.6176325,13.4059263 C77.5406244,15.7667684 75.6902829,16.9462421 73.065665,16.9462421 L66.8893724,16.9462421 L66.8893724,1.37150526 Z" id="Fill-12" fill="#A0A9AF"></path>
                    <path d="M88.7933789,1.37150526 L88.7933789,10.9986632 C88.7933789,12.1298211 89.0065171,13.0696105 89.4318504,13.8189789 C90.0627772,14.9501368 91.1275252,15.5157158 92.623265,15.5157158 C94.4170211,15.5157158 95.6373789,14.9037158 96.282452,13.6816105 C96.630452,13.0165579 96.8049236,12.1222421 96.8049236,10.9986632 L96.8049236,1.37150526 L98.9259317,1.37150526 L98.9259317,10.1185579 C98.9259317,12.0341368 98.6684683,13.5082421 98.1525984,14.5399263 C97.2066797,16.4204526 95.4195252,17.3602421 92.7939642,17.3602421 C90.1674602,17.3602421 88.384078,16.4204526 87.444761,14.5399263 C86.9298341,13.5082421 86.6714276,12.0341368 86.6714276,10.1185579 L86.6714276,1.37150526 L88.7933789,1.37150526 Z" id="Fill-13" fill="#A0A9AF"></path>
                    <path d="M111.085372,10.5639158 L108.698413,3.68317895 L106.218088,10.5639158 L111.085372,10.5639158 Z M107.602543,1.3716 L109.97347,1.3716 L115.600885,16.9463368 L113.299746,16.9463368 L111.681405,12.2814947 L105.598478,12.2814947 L103.91695,16.9463368 L101.763876,16.9463368 L107.602543,1.3716 Z" id="Fill-14" fill="#A0A9AF"></path>
                </g>
                <g id="Proizd-Copy" transform="translate(0.000000, 18.000000)">
                    <g id="Group-3" transform="translate(0.000000, 1.297421)" fill="#454545">
                        <path d="M8.1463122,2.2158 C7.68608455,1.99695789 7.05327154,1.88706316 6.24975935,1.88706316 L2.10016585,1.88706316 L2.10016585,7.28422105 L6.24975935,7.28422105 C7.18624715,7.28422105 7.94637724,7.08243158 8.5292065,6.6798 C9.11203577,6.27716842 9.4043935,5.56664211 9.4043935,4.54822105 C9.4043935,3.40285263 8.9847187,2.62601053 8.1463122,2.2158 L8.1463122,2.2158 Z M-9.43089431e-05,0.0738 L6.93821463,0.0738 C8.31040976,0.0738 9.41759675,0.464115789 10.2607187,1.24569474 C11.1047837,2.02632632 11.5254016,3.12432632 11.5254016,4.5378 C11.5254016,5.75327368 11.1491089,6.81243158 10.3974667,7.71337895 C9.64393821,8.61432632 8.49336911,9.06527368 6.94198699,9.06527368 L2.10016585,9.06527368 L2.10016585,15.6494842 L-9.43089431e-05,15.6494842 L-9.43089431e-05,0.0738 Z" id="Fill-1"></path>
                    </g>
                    <path d="M20.3494179,8.50727368 C21.3075967,8.50727368 22.0648976,8.30927368 22.6232065,7.91327368 C23.1805724,7.51727368 23.4597268,6.80390526 23.4597268,5.77127368 C23.4597268,4.66190526 23.0702309,3.90590526 22.2902959,3.50232632 C21.8715642,3.29106316 21.3141984,3.18401053 20.6172553,3.18401053 L15.6283122,3.18401053 L15.6283122,8.50727368 L20.3494179,8.50727368 Z M13.528052,1.37169474 L20.5757593,1.37169474 C21.7357593,1.37169474 22.692052,1.54411579 23.4465236,1.89085263 C24.8762472,2.55495789 25.592052,3.7818 25.592052,5.57043158 C25.592052,6.50358947 25.3996618,7.26622105 25.0167675,7.86022105 C24.6329301,8.45422105 24.0963122,8.93074737 23.4069138,9.29169474 C24.0114341,9.53895789 24.4678894,9.86390526 24.7734504,10.2665368 C25.0799545,10.6701158 25.2506537,11.3238 25.285548,12.2285368 L25.3591089,14.3174842 C25.3798569,14.9114842 25.4298407,15.3529579 25.507174,15.6428526 C25.6344911,16.1373789 25.8589463,16.4556947 26.182426,16.5968526 L26.182426,16.9464316 L23.6077919,16.9464316 C23.5370602,16.8128526 23.4804748,16.6394842 23.4380358,16.4272737 C23.3955967,16.2150632 23.3607024,15.8058 23.3333528,15.1975895 L23.2060358,12.5999053 C23.1588813,11.5824316 22.7929626,10.8993789 22.1092228,10.5535895 C21.7187837,10.3622211 21.1076618,10.2665368 20.2739707,10.2665368 L15.6283122,10.2665368 L15.6283122,16.9464316 L13.528052,16.9464316 L13.528052,1.37169474 Z" id="Fill-4" fill="#454545"></path>
                    <g id="Group-8" transform="translate(27.349593, 0.350053)">
                        <mask id="mask-4" fill="white">
                            <use xlink:href="#path-3"></use>
                        </mask>
                        <g id="Clip-7"></g>
                        <path d="M12.4537789,13.1757158 C13.2808683,11.8418211 13.6939415,10.3089789 13.6939415,8.57624211 C13.6939415,6.74308421 13.2176813,5.26897895 12.2642179,4.15108421 C11.3107545,3.03318947 10.0074049,2.47424211 8.35322602,2.47424211 C6.74903089,2.47424211 5.44002276,3.02845263 4.42714472,4.13497895 C3.41426667,5.24150526 2.90688455,6.87382105 2.90688455,9.03192632 C2.90688455,10.7580316 3.34164878,12.2131895 4.21023415,13.3983474 C5.0797626,14.5835053 6.48873821,15.1756105 8.43810407,15.1756105 C10.2884455,15.1756105 11.6276325,14.5096105 12.4537789,13.1757158 M14.3060065,3.24824211 C15.333974,4.62666316 15.8470146,6.38971579 15.8470146,8.53834737 C15.8470146,10.8641368 15.2594699,12.7977158 14.0843805,14.3381368 C12.7055837,16.1476105 10.7392423,17.0523474 8.18441301,17.0523474 C5.79933984,17.0523474 3.92447805,16.2612947 2.55888455,14.6772947 C1.3413561,13.1510842 0.733063415,11.2212947 0.733063415,8.88887368 C0.733063415,6.78192632 1.25364878,4.98003158 2.29481951,3.48129474 C3.63212033,1.55813684 5.60883577,0.597505263 8.22685203,0.597505263 C10.9636976,0.597505263 12.9903967,1.48045263 14.3060065,3.24824211" id="Fill-6" fill="#454545" mask="url(#mask-4)"></path>
                    </g>
                    <polygon id="Fill-9" fill="#454545" points="47.116748 16.9460526 49.2386992 16.9460526 49.2386992 1.37131579 47.116748 1.37131579"></polygon>
                    <polygon id="Fill-11" fill="#454545" points="52.4397333 15.1971158 61.9743675 3.22711579 53.1366764 3.22711579 53.1366764 1.37122105 64.6829203 1.37122105 64.6829203 3.18448421 55.0917008 15.0910105 64.6829203 15.0910105 64.6829203 16.9469053 52.4397333 16.9469053"></polygon>
                    <path d="M72.675226,15.1443474 C73.3693398,15.1443474 73.940852,15.0695053 74.3869333,14.9217158 C75.1866732,14.6460316 75.8392911,14.1164526 76.3495024,13.3310842 C76.7540878,12.7020316 77.0464455,11.8967684 77.2256325,10.9143474 C77.3293724,10.3269789 77.3802992,9.78318947 77.3802992,9.28108421 C77.3802992,7.35129474 77.0077789,5.85255789 76.260852,4.78487368 C75.5139252,3.71813684 74.3114862,3.18382105 72.654478,3.18382105 L69.0103805,3.18382105 L69.0103805,15.1443474 L72.675226,15.1443474 Z M66.8893724,1.37150526 L73.086413,1.37150526 C75.1904455,1.37150526 76.8219902,2.13129474 77.9819902,3.65087368 C79.0165593,5.02171579 79.5333724,6.77908421 79.5333724,8.92013684 C79.5333724,10.5742421 79.2287545,12.0691895 78.6176325,13.4059263 C77.5406244,15.7667684 75.6902829,16.9462421 73.065665,16.9462421 L66.8893724,16.9462421 L66.8893724,1.37150526 Z" id="Fill-12" fill="#454545"></path>
                    <path d="M88.7933789,1.37150526 L88.7933789,10.9986632 C88.7933789,12.1298211 89.0065171,13.0696105 89.4318504,13.8189789 C90.0627772,14.9501368 91.1275252,15.5157158 92.623265,15.5157158 C94.4170211,15.5157158 95.6373789,14.9037158 96.282452,13.6816105 C96.630452,13.0165579 96.8049236,12.1222421 96.8049236,10.9986632 L96.8049236,1.37150526 L98.9259317,1.37150526 L98.9259317,10.1185579 C98.9259317,12.0341368 98.6684683,13.5082421 98.1525984,14.5399263 C97.2066797,16.4204526 95.4195252,17.3602421 92.7939642,17.3602421 C90.1674602,17.3602421 88.384078,16.4204526 87.444761,14.5399263 C86.9298341,13.5082421 86.6714276,12.0341368 86.6714276,10.1185579 L86.6714276,1.37150526 L88.7933789,1.37150526 Z" id="Fill-13" fill="#E54034"></path>
                    <path d="M111.085372,10.5639158 L108.698413,3.68317895 L106.218088,10.5639158 L111.085372,10.5639158 Z M107.602543,1.3716 L109.97347,1.3716 L115.600885,16.9463368 L113.299746,16.9463368 L111.681405,12.2814947 L105.598478,12.2814947 L103.91695,16.9463368 L101.763876,16.9463368 L107.602543,1.3716 Z" id="Fill-14" fill="#E54034"></path>
                </g>
            </g>
        </g>
    </g>
</svg>