<?xml version="1.0" standalone="no"?>
<!DOCTYPE svg PUBLIC "-//W3C//DTD SVG 20010904//EN"
 "http://www.w3.org/TR/2001/REC-SVG-20010904/DTD/svg10.dtd">
<svg version="1.0" xmlns="http://www.w3.org/2000/svg"
 width="700.000000pt" height="700.000000pt" viewBox="0 0 700.000000 700.000000"
 preserveAspectRatio="xMidYMid meet">
<metadata>
Created by potrace 1.11, written by Peter Selinger 2001-2013
</metadata>
<g transform="translate(0.000000,700.000000) scale(0.100000,-0.100000)"
fill="#000000" stroke="none">
<path d="M0 3500 l0 -3500 3500 0 3500 0 0 3500 0 3500 -3500 0 -3500 0 0
-3500z m5445 870 c325 -18 468 -85 553 -260 52 -106 65 -189 65 -405 1 -264
-19 -347 -99 -411 -80 -63 4 -59 -1106 -62 l-1018 -2 0 -28 c0 -83 67 -185
149 -226 89 -45 108 -46 1006 -46 l853 0 59 52 c32 28 73 65 91 82 l32 30 0
-227 0 -227 -1042 0 c-1122 0 -1103 -1 -1215 52 -74 34 -167 133 -209 221 -65
138 -78 229 -78 572 -1 320 5 378 50 513 58 175 187 290 389 349 52 15 128 18
595 23 294 3 585 7 645 8 61 1 187 -3 280 -8z m-2145 -221 l0 -221 -47 38
c-27 21 -67 53 -89 71 l-42 34 -803 -3 -804 -3 -70 -35 c-89 -45 -146 -112
-175 -207 -42 -137 -45 -494 -5 -647 28 -107 103 -188 208 -223 47 -16 123
-18 844 -21 l793 -3 82 62 c46 34 89 67 96 72 9 7 12 -35 12 -207 l0 -217
-982 3 -983 3 -58 22 c-144 55 -259 155 -317 277 -63 134 -73 193 -78 489 -4
294 6 399 53 536 74 219 240 356 470 390 33 5 473 9 978 10 l917 1 0 -221z"/>
<path d="M4075 4066 c-65 -16 -103 -37 -141 -78 -63 -66 -81 -131 -91 -328
l-6 -130 925 0 c850 0 927 1 939 17 11 12 14 56 14 182 0 154 -2 169 -24 214
-31 64 -85 102 -171 121 -59 14 -164 16 -732 15 -490 0 -676 -4 -713 -13z"/>
</g>
</svg>
