<?xml version="1.0" encoding="UTF-8"?>
<svg width="93px" height="58px" viewBox="0 0 93 58" version="1.1" xmlns="http://www.w3.org/2000/svg" xmlns:xlink="http://www.w3.org/1999/xlink">
    <!-- Generator: Sketch 47.1 (45422) - http://www.bohemiancoding.com/sketch -->
    <title>Soft Furniture</title>
    <desc>Created with Sketch.</desc>
    <defs></defs>
    <g id="Prototype-Minimalism" stroke="none" stroke-width="1" fill="none" fill-rule="evenodd">
        <g id="About-Us-What-we-do-Min" transform="translate(-1554.000000, -241.000000)" fill-rule="nonzero" fill="#FFFFFF">
            <g id="Group-3" transform="translate(1272.000000, 168.000000)">
                <g id="Group-9" transform="translate(282.000000, 73.000000)">
                    <g id="Group-6">
                        <g id="Soft-Furniture">
                            <path d="M7.84513274,21.7099215 C4.75610194,21.7099215 2.24280973,24.2155914 2.24280973,27.2939269 L2.24280973,46.1613104 C2.24280973,49.2396459 4.75610194,51.7453158 7.84513274,51.7453158 L85.1548673,51.7453158 C88.2438981,51.7453158 90.7571903,49.2396459 90.7571903,46.1613104 L90.7571903,27.2939269 C90.7571903,24.2155914 88.2438981,21.7099215 85.1548673,21.7099215 L79.9551991,21.7099215 L79.9551991,36.3261849 C79.9551991,39.4457183 77.4108104,41.9823229 74.2831858,41.9823229 L18.7168142,41.9823229 C15.5891896,41.9823229 13.0448009,39.4457183 13.0448009,36.3261849 L13.0448009,21.7099215 L7.84513274,21.7099215 Z M91.6321903,46.1613104 C91.6321903,49.723491 88.7265533,52.6203158 85.1548673,52.6203158 L7.84513274,52.6203158 C4.27344674,52.6203158 1.36780973,49.723491 1.36780973,46.1613104 L1.36780973,27.2939269 C1.36780973,23.7317463 4.27344674,20.8349215 7.84513274,20.8349215 L13.9198009,20.8349215 L13.9198009,36.3261849 C13.9198009,38.9618679 16.0718396,41.1073229 18.7168142,41.1073229 L74.2831858,41.1073229 C76.9281604,41.1073229 79.0801991,38.9618679 79.0801991,36.3261849 L79.0801991,20.8349215 L85.1548673,20.8349215 C88.7265533,20.8349215 91.6321903,23.7317463 91.6321903,27.2939269 L91.6321903,46.1613104 Z M20.3274336,2.24038746 C17.2384028,2.24038746 14.7251106,4.74605732 14.7251106,7.82439283 L14.7251106,29.0643122 L45.6598451,29.0643122 L45.6598451,2.24038746 L20.3274336,2.24038746 Z M13.8501106,7.82439283 C13.8501106,4.26221221 16.7557476,1.36538746 20.3274336,1.36538746 L46.5348451,1.36538746 L46.5348451,29.9393122 L13.8501106,29.9393122 L13.8501106,7.82439283 Z M78.2748894,7.82439283 C78.2748894,4.74605732 75.7615972,2.24038746 72.6725664,2.24038746 L47.3401549,2.24038746 L47.3401549,29.0643122 L78.2748894,29.0643122 L78.2748894,7.82439283 Z M79.1498894,7.82439283 L79.1498894,29.9393122 L46.4651549,29.9393122 L46.4651549,1.36538746 L72.6725664,1.36538746 C76.2442524,1.36538746 79.1498894,4.26221221 79.1498894,7.82439283 Z M14.7251106,30.7421796 L14.7251106,36.3261849 C14.7251106,38.5191584 16.5158387,40.3044556 18.7168142,40.3044556 L74.2831858,40.3044556 C76.4841613,40.3044556 78.2748894,38.5191584 78.2748894,36.3261849 L78.2748894,30.7421796 L14.7251106,30.7421796 Z M79.1498894,29.8671796 L79.1498894,36.3261849 C79.1498894,39.0030036 76.9668165,41.1794556 74.2831858,41.1794556 L18.7168142,41.1794556 C16.0331835,41.1794556 13.8501106,39.0030036 13.8501106,36.3261849 L13.8501106,29.8671796 L79.1498894,29.8671796 Z M85.1548673,20.0320541 C89.1706816,20.0320541 92.4375,23.2889649 92.4375,27.2939269 L92.4375,46.1613104 C92.4375,50.1662724 89.1706816,53.4231832 85.1548673,53.4231832 L75.1233407,53.4231832 L75.1233407,57.3467961 L73.443031,57.3467961 L73.443031,53.4231832 L19.9596239,53.4231832 L19.9596239,57.3467961 L18.2793142,57.3467961 L18.2793142,53.4231832 L7.84513274,53.4231832 C3.82931842,53.4231832 0.5625,50.1662724 0.5625,46.1613104 L0.5625,27.2939269 C0.5625,23.2889649 3.82931842,20.0320541 7.84513274,20.0320541 L13.0448009,20.0320541 L13.0448009,7.82439283 C13.0448009,3.81943085 16.3116193,0.562520072 20.3274336,0.562520072 L72.6725664,0.562520072 C76.6883807,0.562520072 79.9551991,3.81943085 79.9551991,7.82439283 L79.9551991,20.0320541 L85.1548673,20.0320541 Z M74.2831858,56.8744509 L74.318031,56.8396058 L74.318031,56.4717961 L74.2483407,56.4717961 L74.2483407,56.8396058 L74.2831858,56.8744509 Z M7.84513274,20.9070541 C4.31197362,20.9070541 1.4375,23.77281 1.4375,27.2939269 L1.4375,46.1613104 C1.4375,49.6824273 4.31197362,52.5481832 7.84513274,52.5481832 L85.1548673,52.5481832 C88.6880264,52.5481832 91.5625,49.6824273 91.5625,46.1613104 L91.5625,27.2939269 C91.5625,23.77281 88.6880264,20.9070541 85.1548673,20.9070541 L79.0801991,20.9070541 L79.0801991,7.82439283 C79.0801991,4.30327596 76.2057255,1.43752007 72.6725664,1.43752007 L20.3274336,1.43752007 C16.7942745,1.43752007 13.9198009,4.30327596 13.9198009,7.82439283 L13.9198009,20.9070541 L7.84513274,20.9070541 Z" id="Fill-1"></path>
                        </g>
                    </g>
                </g>
            </g>
        </g>
    </g>
</svg>