<?xml version="1.0" encoding="UTF-8"?>
<svg width="63px" height="57px" viewBox="0 0 63 57" version="1.1" xmlns="http://www.w3.org/2000/svg" xmlns:xlink="http://www.w3.org/1999/xlink">
    <!-- Generator: Sketch 47.1 (45422) - http://www.bohemiancoding.com/sketch -->
    <title>Build Furniture</title>
    <desc>Created with Sketch.</desc>
    <defs></defs>
    <g id="Prototype-Minimalism" stroke="none" stroke-width="1" fill="none" fill-rule="evenodd">
        <g id="About-Us-What-we-do-Min" transform="translate(-1274.000000, -241.000000)" fill="#FFFFFF">
            <g id="Group-3" transform="translate(1272.000000, 168.000000)">
                <g id="Group-2" transform="translate(1.000000, 73.000000)">
                    <g id="Build-Furniture" transform="translate(1.000000, 0.000000)">
                        <path d="M39.9121,16.0229 L61.2341,16.0229 L61.2341,3.3509 C61.2341,2.3429 60.2291,1.5229 58.9931,1.5229 L39.9121,1.5229 L39.9121,16.0229 Z M39.9121,31.5609 L61.2341,31.5609 L61.2341,17.5459 L39.9121,17.5459 L39.9121,31.5609 Z M3.8821,1.5229 C2.6461,1.5229 1.6411,2.3429 1.6411,3.3509 L1.6411,50.6109 C1.6411,51.6189 2.6461,52.4399 3.8821,52.4399 L19.1361,52.4399 L19.1361,1.5229 L3.8821,1.5229 Z M20.7761,52.4399 L38.2711,52.4399 L38.2711,1.5229 L20.7761,1.5229 L20.7761,52.4399 Z M39.9121,52.4399 L58.9931,52.4399 C60.2291,52.4399 61.2341,51.6189 61.2341,50.6109 L61.2341,33.0829 L39.9121,33.0829 L39.9121,52.4399 Z M50.9761,56.8749 L49.4031,56.8749 L49.4031,53.9619 L13.4801,53.9619 L13.4801,56.8749 L11.8891,56.8749 L11.8891,53.9619 L3.8821,53.9619 C1.7411,53.9619 0.0001,52.4589 0.0001,50.6109 L0.0001,3.3509 C0.0001,1.5029 1.7411,-0.0001 3.8821,-0.0001 L58.9931,-0.0001 C61.1341,-0.0001 62.8751,1.5029 62.8751,3.3509 L62.8751,50.6109 C62.8751,52.4589 61.1341,53.9619 58.9931,53.9619 L50.9761,53.9619 L50.9761,56.8749 Z" id="Fill-1"></path>
                        <polygon id="Fill-4" points="43.4 37.625 46.932 37.625 46.932 35.875 43.4 35.875"></polygon>
                        <polygon id="Fill-6" points="23.029 28.875 24.789 28.875 24.789 25.375 23.029 25.375"></polygon>
                        <polygon id="Fill-7" points="15.057 28.875 16.818 28.875 16.818 25.375 15.057 25.375"></polygon>
                    </g>
                </g>
            </g>
        </g>
    </g>
</svg>