<?xml version="1.0" encoding="UTF-8"?>
<svg width="86px" height="14px" viewBox="0 0 86 14" version="1.1" xmlns="http://www.w3.org/2000/svg" xmlns:xlink="http://www.w3.org/1999/xlink">
    <!-- Generator: Sketch 47.1 (45422) - http://www.bohemiancoding.com/sketch -->
    <title>Cezari</title>
    <desc>Created with Sketch.</desc>
    <defs></defs>
    <g id="Prototype-Minimalism" stroke="none" stroke-width="1" fill="none" fill-rule="evenodd">
        <g id="About-Us-Min" transform="translate(-48.000000, -34.000000)" fill="#FFFFFF">
            <g id="Cezari" transform="translate(48.000000, 34.000000)">
                <path d="M49.6609636,3.85833563 L49.6609636,6.53474943 L50.6857636,5.50486437 L61.0655419,5.50486437 C61.3927486,5.50486437 61.8098333,5.56086437 62.1018565,5.92550805 C62.3369464,6.21902529 62.3746887,6.54762299 62.3746887,6.84017471 L62.3746887,7.01042759 L51.5336864,7.01042759 C51.0254445,7.01042759 50.3703913,7.04808276 49.7700325,7.57750805 C48.5987411,8.61061149 48.6272078,12.0697379 49.788264,13.0780598 C50.3342482,13.5527724 51.0062535,13.5540598 51.5336864,13.5540598 L62.7930527,13.5540598 C63.2475599,13.5540598 63.7743531,13.5173701 64.1197913,13.1697839 C64.4652295,12.8221977 64.5016924,12.2734621 64.5016924,11.9258759 L64.5016924,6.8952092 C64.5016924,5.81576092 64.193037,5.02854253 63.7929044,4.60822069 C63.3569486,4.15088736 62.6104183,3.85833563 61.793201,3.85833563 L49.6609636,3.85833563 Z M62.3746887,8.65663448 L62.3746887,11.3954851 C62.3746887,11.5416 62.3788467,11.6754851 62.2291569,11.7977839 C62.0884228,11.9126805 61.8833988,11.907531 61.7564183,11.907531 L52.1337254,11.907531 C51.861213,11.907531 51.5851823,11.7643126 51.442849,11.6149793 C51.0356797,11.1866115 51.0347201,9.44642759 51.3881546,8.9861977 C51.6261231,8.67626667 52.0246565,8.65663448 52.1698685,8.65663448 L62.3746887,8.65663448 Z" id="Fill-1"></path>
                <path d="M31.6144083,13.5571816 L31.6144083,11.0152966 L30.5141237,11.9038943 L20.246293,11.9109747 C19.1712765,11.9109747 18.1736637,11.4037563 18.1736637,10.2142391 L30.4325619,10.2142391 C30.814463,10.2142391 31.1784525,9.93777931 31.4688765,9.64554943 C31.8683694,9.24357241 31.8459799,7.86095172 31.8459799,7.36725057 C31.8459799,4.27791724 30.1242263,3.82476782 27.3783124,3.82476782 C27.2506922,3.82476782 20.4484383,3.82508966 20.2958697,3.82734253 C19.3612675,3.84246897 18.0249334,3.95382529 17.1191177,4.73943448 C16.0648915,5.65377931 15.9737342,6.98973333 15.9737342,8.80072184 C15.9737342,10.0813195 16.02523,11.4195264 16.6646106,12.3312966 C17.4610375,13.4680322 18.6281709,13.5571816 19.6097911,13.5571816 L31.6144083,13.5571816 Z M18.1736637,8.56771034 C18.1918952,7.92757241 18.1739836,6.60513563 18.6099394,6.11143448 C19.0730825,5.58715862 19.7220585,5.49125057 20.2514106,5.47483678 C20.3857476,5.47065287 27.1729686,5.47129655 27.287475,5.47129655 C28.5403282,5.47129655 29.7100203,5.54982529 29.7100203,7.03125057 C29.7100203,7.28711264 29.8590705,8.56771034 29.4419858,8.56771034 L18.1736637,8.56771034 Z" id="Fill-3"></path>
                <path d="M14.8931843,13.5565701 L14.8931843,11.0983632 L13.7222127,11.9100414 L4.92697228,11.9100414 C4.03778876,11.9100414 2.97812509,11.8192828 2.50890487,10.8856276 C2.25270487,10.3758345 2.19992959,9.44057011 2.19992959,8.87348966 C2.19992959,8.58061609 2.2178412,7.55491494 2.36369288,7.04383448 C2.59814307,6.22121379 3.29061873,5.50737471 4.72706592,5.50737471 L13.7474809,5.50737471 L14.8931843,6.34447816 L14.8931843,3.86084598 L4.03618951,3.86084598 C2.31059775,3.86084598 1.48570412,4.49647816 1.09100899,4.9036046 C0.0137535581,6.01427126 0,7.68429425 0,8.8368 C0,10.2088 0.0745250936,11.4156966 0.872871161,12.3673747 C1.74606217,13.408846 3.01810637,13.5565701 3.74544569,13.5565701 L14.8931843,13.5565701 Z M47.8962861,11.0475126 L46.8772434,11.9100414 L35.7461371,11.9100414 C35.6748105,11.9100414 35.5826936,11.9283862 35.5826936,11.8186391 C35.5826936,11.7455816 35.6185169,11.648708 35.7282255,11.5808 L47.3870846,6.40369655 C47.7398794,6.24696092 47.9509805,5.81827126 47.9509805,5.0864092 C47.9509805,4.31817931 47.4404996,3.86084598 46.6965281,3.86084598 L33.2190007,3.86084598 L33.2190007,6.42043218 L34.2454,5.50737471 L45.1327805,5.50737471 C45.2779925,5.50737471 45.3144554,5.59877701 45.3144554,5.65348966 C45.3144554,5.69017931 45.3227715,5.78029425 45.1689236,5.87330575 L33.564439,10.8672828 C33.1403176,11.0500874 32.9100255,11.5260874 32.9100255,12.2576276 C32.9100255,13.5015356 33.9463401,13.5565701 34.2735468,13.5565701 L47.8962861,13.5565701 L47.8962861,11.0475126 Z M65.7234562,13.5572138 L67.8277506,13.5572138 L67.8277506,6.20898391 C67.8277506,6.01234023 67.8303094,5.83243218 68.023179,5.66153563 C68.1786262,5.52411034 68.3158419,5.50737471 68.5112704,5.50737471 L71.2325558,5.50737471 L78.3044434,5.50737471 C78.9585371,5.50737471 79.3711438,6.49702989 79.3695446,7.35762759 C79.3676255,8.30994943 79.2483213,9.40516782 78.2986861,9.40516782 C77.8601715,9.40516782 71.5479281,9.41031724 71.4628479,9.41063908 L69.6198712,9.41997241 C69.0898794,9.42286897 68.8541498,9.70544368 68.7965768,10.0935816 L68.7220517,10.598869 C68.6811109,10.8759724 68.9385903,11.2959724 69.1819963,11.4269609 L75.9586622,13.5572138 L81.3641303,13.5572138 L72.9523903,11.0761563 L78.9099199,11.0761563 C80.0252375,11.0761563 80.7874404,10.3999724 81.0398022,9.92429425 C81.3801228,9.28415632 81.4572067,8.78144368 81.4444127,7.26525977 C81.4348172,6.10116782 81.3961154,5.69017931 81.0506772,5.17813333 C80.4752667,4.32493793 79.2716704,3.86084598 78.5891101,3.86084598 L67.2993581,3.86084598 C66.9372876,3.86084598 66.4760637,3.91684598 66.1283865,4.25381149 C65.7372097,4.63197241 65.7234562,5.12406437 65.7234562,5.53086897 L65.7234562,13.5572138 Z M82.5098337,13.5565701 L84.6365176,13.5565701 L84.6365176,3.86084598 L82.5098337,3.86084598 L82.5098337,13.5565701 Z M82.5101536,2.45215632 L84.6368375,2.45215632 L84.6368375,0.750914943 L82.5101536,0.750914943 L82.5101536,2.45215632 Z" id="Fill-5"></path>
                <path d="M83.5179375,3.2183908e-05 C84.3828124,3.2183908e-05 85.083924,0.705825287 85.083924,1.57607816 C85.083924,2.44665287 84.3828124,3.15244598 83.5179375,3.15244598 C82.6530626,3.15244598 81.9516312,2.44665287 81.9516312,1.57607816 C81.9516312,0.705825287 82.6530626,3.2183908e-05 83.5179375,3.2183908e-05" id="Fill-7"></path>
            </g>
        </g>
    </g>
</svg>