<?xml version="1.0" encoding="UTF-8"?>
<svg width="119px" height="80px" viewBox="0 0 119 80" version="1.1" xmlns="http://www.w3.org/2000/svg" xmlns:xlink="http://www.w3.org/1999/xlink">
    <!-- Generator: Sketch 42 (36781) - http://www.bohemiancoding.com/sketch -->
    <title>Hotels</title>
    <desc>Created with Sketch.</desc>
    <defs></defs>
    <g id="Sprites" stroke="none" stroke-width="1" fill="none" fill-rule="evenodd">
        <g id="Desktop-HD" transform="translate(-953.000000, -489.000000)">
            <g id="Hotels" transform="translate(953.000000, 489.000000)">
                <g id="Hotel" fill="#A0A9AF">
                    <path d="M2.71394019,32.9138857 C2.89784928,32.9138857 3.0732177,32.9276 3.20929904,33.1013143 C3.31748086,33.2378857 3.32374402,33.3813143 3.32374402,33.5476 L3.32374402,36.7276 L2.53173923,36.7276 L2.53173923,33.7841714 C2.53173923,33.7338857 2.53173923,33.6476 2.48277273,33.6047429 C2.4497488,33.5756 2.38199282,33.5618857 2.34156699,33.5618857 L0.998973684,33.5618857 C0.931787081,33.5618857 0.88395933,33.5830286 0.8640311,33.6047429 C0.831007177,33.6401714 0.808801435,33.7196 0.808801435,33.7841714 L0.808801435,36.7276 L0.0173660287,36.7276 L0.0173660287,33.5476 C0.0173660287,33.4110286 0.00939473684,33.2590286 0.139212919,33.1013143 C0.295222488,32.9138857 0.470590909,32.9138857 0.626600478,32.9138857 L2.71394019,32.9138857 Z" id="Fill-1"></path>
                    <path d="M5.10185455,35.8070286 C5.33302201,36.0876 5.67806507,36.1236 5.96275407,36.1236 C6.26224689,36.1236 6.57995981,36.0876 6.81739043,35.8070286 C7.0536823,35.5264571 7.0536823,35.1590286 7.0536823,34.8276 C7.0536823,34.5476 7.0741799,34.1156 6.82365359,33.8201714 C6.59419426,33.5476 6.24801244,33.5184571 5.96275407,33.5184571 C5.70539522,33.5184571 5.31992632,33.5476 5.09502201,33.8201714 C4.87182584,34.0938857 4.87182584,34.5830286 4.87182584,34.8276 C4.87182584,35.1453143 4.878089,35.5333143 5.10185455,35.8070286 M7.41352919,33.2738857 C7.82746699,33.6836 7.87472536,34.4036 7.87472536,34.8070286 C7.87472536,35.6121714 7.67828995,36.0938857 7.41352919,36.3607429 C7.02692153,36.7418857 6.37783062,36.7710286 5.96275407,36.7710286 C5.53685933,36.7710286 4.90598852,36.7418857 4.5131177,36.3607429 C4.08551483,35.9436 4.05306029,35.2236 4.05306029,34.8350286 C4.05306029,34.4036 4.0991799,33.6836 4.5131177,33.2738857 C4.90598852,32.8853143 5.53685933,32.8704571 5.96275407,32.8704571 C6.39035694,32.8704571 7.02065837,32.8853143 7.41352919,33.2738857" id="Fill-3"></path>
                    <path d="M9.51760861,33.1867429 C9.61269474,32.9638857 9.82905837,32.8701714 10.0471301,32.8701714 C10.2634938,32.8701714 10.479288,32.9638857 10.5743742,33.1867429 L12.0314124,36.7278857 L11.21891,36.7278857 L10.1137474,33.7838857 C10.1000823,33.7484571 10.0801541,33.6770286 10.0471301,33.6770286 C10.0118287,33.6770286 9.99246986,33.7484571 9.97766603,33.7838857 L8.87364211,36.7278857 L8.06000096,36.7278857 L9.51760861,33.1867429 Z" id="Fill-5"></path>
                    <path d="M13.0573177,36.7277714 C12.9286383,36.7277714 12.7942651,36.7209143 12.6655856,36.6054857 C12.5221024,36.4763429 12.5152699,36.3392 12.5152699,36.1957714 L12.5152699,32.9140571 L13.3084134,32.9140571 L13.3084134,35.8072 C13.3084134,35.8786286 13.3152459,35.9729143 13.3625043,36.0226286 C13.417734,36.0803429 13.5253464,36.0803429 13.5794373,36.0803429 L15.0165474,36.0803429 L15.0165474,32.9140571 L15.8096909,32.9140571 L15.8096909,36.0803429 L16.3181455,36.0803429 L16.3181455,36.7277714 L13.0573177,36.7277714 Z" id="Fill-7"></path>
                    <path d="M19.1742024,34.4532 C19.3290732,34.4532 19.3507096,34.3320571 19.3507096,34.2309143 C19.3507096,33.9926286 19.2345565,33.8132 19.1201115,33.7194857 C18.9231067,33.5617714 18.6663172,33.5474857 18.4425517,33.5474857 C18.2318818,33.5474857 17.9061976,33.5406286 17.689834,33.7989143 C17.5264225,33.9926286 17.533255,34.2023429 17.5264225,34.4532 L19.1742024,34.4532 Z M18.0627766,36.7274857 C17.6966665,36.7274857 17.2628005,36.6914857 16.963877,36.2457714 C16.7275852,35.8857714 16.7070876,35.3606286 16.7070876,34.8572 C16.7070876,34.1440571 16.7418196,33.6194857 17.1329823,33.2589143 C17.5264225,32.8989143 18.1367957,32.8989143 18.476145,32.8989143 C18.8957766,32.8989143 19.3290732,32.9206286 19.66159,33.1440571 C20.0823603,33.4246286 20.1700445,33.8989143 20.1700445,34.3817714 C20.1700445,34.5760571 20.1506856,34.7989143 20.0015086,34.9572 C19.8927574,35.0726286 19.7555373,35.1012 19.6143316,35.1012 L17.5264225,35.1012 C17.5264225,35.2669143 17.5474895,35.5126286 17.5742502,35.6263429 C17.6761689,36.0372 18.0081163,36.0800571 18.3002072,36.0800571 L20.0544608,36.0800571 L20.0544608,36.7274857 L18.0627766,36.7274857 Z" id="Fill-9"></path>
                    <polygon id="Fill-11" points="23.4050794 36.7277714 23.4050794 35.0872 21.6906823 35.0872 21.6906823 36.7277714 20.8975388 36.7277714 20.8975388 32.9140571 21.6906823 32.9140571 21.6906823 34.4397714 23.4050794 34.4397714 23.4050794 32.9140571 24.1987923 32.9140571 24.1987923 36.7277714"></polygon>
                    <path d="M28.7695311,36.7277143 L29.5621053,36.7277143 L29.5621053,32.914 L28.7695311,32.914 L28.7695311,36.7277143 Z M25.81389,35.814 C25.81389,35.8717143 25.8076268,35.9642857 25.8622871,36.0225714 C25.9089761,36.0728571 25.9773014,36.0802857 26.0382249,36.0802857 L27.0750622,36.0802857 C27.1906459,36.0802857 27.3318517,36.0728571 27.4280766,35.9574286 C27.514622,35.85 27.5220239,35.6705714 27.5220239,35.5334286 C27.5220239,35.4248571 27.5299952,35.2448571 27.4280766,35.1311429 C27.3318517,35.0151429 27.1906459,35.0082857 27.1023923,35.0082857 L25.81389,35.0082857 L25.81389,35.814 Z M25.81389,32.914 L25.81389,34.3602857 L27.4349091,34.3602857 C27.6581053,34.3602857 27.9097703,34.4105714 28.105067,34.6482857 C28.3214306,34.914 28.3424976,35.282 28.3424976,35.5842857 C28.3424976,35.8357143 28.3288325,36.2814286 28.0714737,36.5265714 C27.8676364,36.7208571 27.6023062,36.7277143 27.3802488,36.7277143 L25.5571005,36.7277143 C25.4346842,36.7277143 25.2855072,36.7208571 25.1562584,36.5917143 C25.0218852,36.4551429 25.0218852,36.2962857 25.0218852,36.1454286 L25.0218852,32.914 L25.81389,32.914 Z" id="Fill-13"></path>
                    <path d="M34.9683493,36.7277714 L34.9968182,34.0146286 C34.9968182,33.9569143 35.0087751,33.9140571 34.9552536,33.9140571 C34.9410191,33.9140571 34.9142584,33.9283429 34.8601675,34.0146286 L33.2807129,36.4683429 C33.1526029,36.6700571 33.0358804,36.7712 32.7665646,36.7712 C32.2985359,36.7712 32.2438756,36.4329143 32.2438756,36.2306286 L32.2438756,32.9140571 L33.0358804,32.9140571 L33.0028565,35.6266286 C33.0028565,35.6917714 33.0028565,35.7277714 33.0569474,35.7277714 C33.0979426,35.7277714 33.1258421,35.6700571 33.1526029,35.6266286 L34.7508469,33.1294857 C34.8937608,32.9140571 35.0765311,32.8706286 35.2399426,32.8706286 C35.347555,32.8706286 35.7620622,32.8854857 35.7620622,33.4534857 L35.7620622,36.7277714 L34.9683493,36.7277714 Z" id="Fill-15"></path>
                    <path d="M39.3977115,35.8070286 C39.6283096,36.0876 39.9750608,36.1236 40.258611,36.1236 C40.5569651,36.1236 40.8758167,36.0876 41.1132474,35.8070286 C41.350678,35.5264571 41.350678,35.1590286 41.350678,34.8276 C41.350678,34.5476 41.3706062,34.1156 41.1200799,33.8201714 C40.8894818,33.5476 40.5450081,33.5184571 40.258611,33.5184571 C40.0018215,33.5184571 39.6152139,33.5476 39.3908789,33.8201714 C39.1676828,34.0938857 39.1676828,34.5830286 39.1676828,34.8276 C39.1676828,35.1453143 39.1750847,35.5333143 39.3977115,35.8070286 M41.7093861,33.2738857 C42.1227545,33.6836 42.1700129,34.4036 42.1700129,34.8070286 C42.1700129,35.6121714 41.9735775,36.0938857 41.7093861,36.3607429 C41.3227785,36.7418857 40.6731182,36.7710286 40.258611,36.7710286 C39.8327163,36.7710286 39.2012761,36.7418857 38.8089746,36.3607429 C38.3819411,35.9436 38.3477785,35.2236 38.3477785,34.8350286 C38.3477785,34.4036 38.3950368,33.6836 38.8089746,33.2738857 C39.2012761,32.8853143 39.8327163,32.8704571 40.258611,32.8704571 C40.6856445,32.8704571 41.3159459,32.8853143 41.7093861,33.2738857" id="Fill-16"></path>
                    <polygon id="Fill-17" points="43.9766493 36.7277714 43.9766493 33.5614857 42.6272234 33.5614857 42.6272234 32.9140571 46.1175105 32.9140571 46.1175105 33.5614857 44.7692234 33.5614857 44.7692234 36.7277714"></polygon>
                    <path d="M46.6695225,36.0801714 L48.4716038,36.0801714 C48.6065464,36.0801714 48.7426278,36.0727429 48.8451158,35.9733143 C48.9054699,35.9081714 48.9658239,35.7858857 48.9658239,35.5618857 C48.9658239,35.4321714 48.9515895,35.2818857 48.8166469,35.1801714 C48.7084651,35.0938857 48.559288,35.0870286 48.4784364,35.0870286 L46.7703024,35.0870286 L46.7703024,34.4396 L48.5051971,34.4396 C48.6276134,34.4396 48.7295321,34.4396 48.830312,34.3390286 C48.8849722,34.2813143 48.9458957,34.1796 48.9458957,34.0013143 C48.9458957,33.8201714 48.8849722,33.7196 48.82291,33.6624571 C48.715867,33.5687429 48.5461923,33.5618857 48.4841301,33.5618857 L46.7367091,33.5618857 L46.7367091,32.9138857 L48.7841923,32.9138857 C49.0409818,32.9138857 49.3188383,32.9356 49.5283694,33.1516 C49.7248048,33.3533143 49.7658,33.6550286 49.7658,33.8858857 C49.7658,34.2310286 49.6849483,34.4178857 49.6035273,34.5258857 C49.5215368,34.6264571 49.3871636,34.7276 49.1958526,34.7487429 L49.1958526,34.7704571 C49.3928574,34.7921714 49.5215368,34.8927429 49.6035273,34.9944571 C49.6986134,35.1081714 49.7857282,35.3098857 49.7857282,35.6636 C49.7857282,36.1093143 49.6445225,36.3756 49.5073024,36.5053143 C49.2909388,36.7138857 49.0199148,36.7276 48.7898861,36.7276 L46.6695225,36.7276 L46.6695225,36.0801714 Z" id="Fill-18"></path>
                    <path d="M54.289622,36.7277143 L55.0833349,36.7277143 L55.0833349,32.914 L54.289622,32.914 L54.289622,36.7277143 Z M51.3345502,35.814 C51.3345502,35.8717143 51.3271483,35.9642857 51.3806699,36.0225714 C51.429067,36.0728571 51.496823,36.0802857 51.5577464,36.0802857 L52.5957225,36.0802857 C52.7101675,36.0802857 52.8513732,36.0728571 52.9464593,35.9574286 C53.0352823,35.85 53.0426842,35.6705714 53.0426842,35.5334286 C53.0426842,35.4248571 53.048378,35.2448571 52.9464593,35.1311429 C52.8513732,35.0151429 52.7101675,35.0082857 52.6224833,35.0082857 L51.3345502,35.0082857 L51.3345502,35.814 Z M51.3345502,32.914 L51.3345502,34.3602857 L52.9544306,34.3602857 C53.1776268,34.3602857 53.4281531,34.4105714 53.6251579,34.6482857 C53.8415215,34.914 53.8631579,35.282 53.8631579,35.5842857 C53.8631579,35.8357143 53.8483541,36.2814286 53.5904258,36.5265714 C53.3877273,36.7208571 53.1235359,36.7277143 52.8997703,36.7277143 L51.076622,36.7277143 C50.9547751,36.7277143 50.8044593,36.7208571 50.6769187,36.5917143 C50.5414067,36.4551429 50.5414067,36.2962857 50.5414067,36.1454286 L50.5414067,32.914 L51.3345502,32.914 Z" id="Fill-19"></path>
                    <path d="M56.6980909,35.8502857 C56.6980909,35.908 56.711756,35.98 56.7385167,36.0228571 C56.7857751,36.08 56.8478373,36.08 56.9093301,36.08 L57.8977703,36.08 C58.0139234,36.08 58.169933,36.0657143 58.2638804,35.9645714 C58.3652297,35.8577143 58.3720622,35.684 58.3720622,35.5617143 C58.3720622,35.4468571 58.3652297,35.3028571 58.2775455,35.2028571 C58.1761962,35.0874286 58.0275885,35.08 57.9387656,35.08 L56.6980909,35.08 L56.6980909,35.8502857 Z M57.9251005,34.432 C58.0275885,34.432 58.1631005,34.4177143 58.2564785,34.3165714 C58.3458708,34.2234286 58.3589665,34.1011429 58.3589665,34.0011429 C58.3589665,33.8857143 58.3532727,33.7485714 58.2502153,33.6554286 C58.1631005,33.5685714 58.0469474,33.5617143 57.9387656,33.5617143 L56.8939569,33.5617143 C56.8478373,33.5617143 56.7943158,33.5617143 56.7459187,33.6051429 C56.6980909,33.6474286 56.6980909,33.7057143 56.6980909,33.7485714 L56.6980909,34.432 L57.9251005,34.432 Z M55.9060861,33.5108571 C55.9060861,33.3742857 55.9191818,33.2011429 56.0683589,33.0645714 C56.2163971,32.928 56.3934737,32.9137143 56.5500526,32.9137143 L58.1761962,32.9137143 C58.41989,32.9137143 58.764933,32.9211429 58.9881292,33.1868571 C59.1657751,33.4028571 59.1794402,33.7125714 59.1794402,33.8925714 C59.1794402,34.0942857 59.1583732,34.3531429 59.0160287,34.5257143 C58.9209426,34.6411429 58.764933,34.728 58.5889952,34.7491429 L58.5889952,34.7634286 C58.7996651,34.792 58.9551053,34.9068571 59.0370957,35.0148571 C59.1794402,35.2028571 59.1936746,35.4468571 59.1936746,35.6491429 C59.1936746,35.8502857 59.1794402,36.2457143 58.9488421,36.4902857 C58.7313397,36.7205714 58.4329856,36.728 58.2245933,36.728 L56.5153206,36.728 C56.3661435,36.728 56.1623062,36.7137143 56.0421675,36.5914286 C55.9191818,36.476 55.9060861,36.2885714 55.9060861,36.1662857 L55.9060861,33.5108571 Z" id="Fill-20"></path>
                    <path d="M63.6684163,36.7277143 L64.4609904,36.7277143 L64.4609904,32.914 L63.6684163,32.914 L63.6684163,36.7277143 Z M60.7139139,35.814 C60.7139139,35.8717143 60.7070813,35.9642857 60.7611722,36.0225714 C60.809,36.0728571 60.8761866,36.0802857 60.9365407,36.0802857 L61.9750861,36.0802857 C62.0895311,36.0802857 62.2313062,36.0728571 62.3269617,35.9574286 C62.4146459,35.85 62.4214785,35.6705714 62.4214785,35.5334286 C62.4214785,35.4248571 62.428311,35.2448571 62.3269617,35.1311429 C62.2313062,35.0151429 62.0895311,35.0082857 62.0012775,35.0082857 L60.7139139,35.0082857 L60.7139139,35.814 Z M60.7139139,32.914 L60.7139139,34.3602857 L62.3337943,34.3602857 C62.5569904,34.3602857 62.8080861,34.4105714 63.0039522,34.6482857 C63.2208852,34.914 63.2413828,35.282 63.2413828,35.5842857 C63.2413828,35.8357143 63.2277177,36.2814286 62.9709282,36.5265714 C62.7682297,36.7208571 62.5028995,36.7277143 62.2797033,36.7277143 L60.4559856,36.7277143 C60.3352775,36.7277143 60.1849617,36.7208571 60.0562823,36.5917143 C59.9207703,36.4551429 59.9207703,36.2962857 59.9207703,36.1454286 L59.9207703,32.914 L60.7139139,32.914 Z" id="Fill-21"></path>
                    <path d="M7.86840526,21.3519429 L7.86840526,27.9199429 C7.86840526,28.3502286 8.0227067,28.7108 8.32903206,29.0005143 C8.63535742,29.2902286 9.01741005,29.4365143 9.47234306,29.4365143 C9.88912775,29.4365143 10.254099,29.2902286 10.5729507,29.0005143 C10.8883861,28.7108 11.0466732,28.3502286 11.0466732,27.9199429 L11.0466732,20.5290857 L11.0466732,15.8930857 L11.0466732,12.4359429 C11.0466732,12.0056571 10.8883861,11.6445143 10.5729507,11.3536571 C10.254099,11.0650857 9.88912775,10.9182286 9.47234306,10.9182286 C9.01741005,10.9182286 8.63535742,11.0650857 8.32903206,11.3536571 C8.0227067,11.6445143 7.86840526,12.0056571 7.86840526,12.4359429 L7.86555837,18.6399429 L3.17900813,18.6348 L3.17900813,16.5456571 L3.17900813,15.8565143 L3.17900813,12.3993714 C3.17900813,11.9696571 3.01901292,11.6090857 2.70186938,11.3176571 C2.38529522,11.0296571 2.01804641,10.8845143 1.60410861,10.8845143 C1.14689809,10.8845143 0.766553589,11.0296571 0.46022823,11.3176571 C0.152764115,11.6090857 0.000170813397,11.9696571 0.000170813397,12.3993714 L0.000170813397,27.8845143 C0.000170813397,28.3159429 0.152764115,28.6748 0.46022823,28.9656571 C0.766553589,29.2559429 1.14689809,29.4016571 1.60410861,29.4016571 C2.01804641,29.4016571 2.38529522,29.2559429 2.70186938,28.9656571 C3.01901292,28.6748 3.17900813,28.3159429 3.17900813,27.8845143 L3.17900813,21.3519429" id="Fill-22"></path>
                    <path d="M15.9297727,24.1689143 C15.9297727,24.7712 16.145567,25.2860571 16.5771555,25.7083429 C17.0093134,26.1323429 17.5251699,26.3437714 18.1258636,26.3437714 C18.7629976,26.3437714 19.2930885,26.1323429 19.7161364,25.7083429 C20.1369067,25.2860571 20.3498541,24.7712 20.3498541,24.1689143 L20.3498541,20.3832 C20.3498541,20.0814857 20.2883612,19.7992 20.1665144,19.5346286 C20.0458062,19.2712 19.8841029,19.0409143 19.6870981,18.8432 C19.4929402,18.6472 19.2560789,18.4889143 18.9833469,18.3763429 C18.712323,18.2637714 18.4253565,18.2066286 18.1258636,18.2066286 C17.505811,18.2066286 16.9859689,18.4186286 16.5640598,18.8432 C16.1393038,19.2649143 15.9297727,19.7797714 15.9297727,20.3832 L15.9297727,24.1689143 Z M12.8898636,20.3832 C12.8898636,19.6654857 13.0236675,18.9929143 13.2981077,18.3626286 C13.5691316,17.7329143 13.9460598,17.1774857 14.4231986,16.6946286 C14.9037536,16.2140571 15.4549115,15.8397714 16.0852129,15.5643429 C16.7138062,15.2894857 17.3930742,15.1569143 18.1258636,15.1569143 C18.8387249,15.1569143 19.5145766,15.2894857 20.1534187,15.5643429 C20.791122,15.8397714 21.3479737,16.2140571 21.82739,16.6946286 C22.3073756,17.1774857 22.6797488,17.7329143 22.9536196,18.3626286 C23.2246435,18.9929143 23.3618636,19.6654857 23.3618636,20.3832 L23.3618636,24.1689143 C23.3618636,24.8837714 23.2246435,25.5592 22.9536196,26.1906286 C22.6797488,26.8197714 22.3073756,27.3757714 21.82739,27.8552 C21.3479737,28.3352 20.7968158,28.7123429 20.1665144,28.9854857 C19.5367823,29.2586286 18.8586531,29.3934857 18.1258636,29.3934857 C17.412433,29.3934857 16.7354426,29.2586286 16.0983086,28.9854857 C15.4611746,28.7123429 14.9037536,28.3352 14.4231986,27.8552 C13.9460598,27.3757714 13.5691316,26.8197714 13.2981077,26.1906286 C13.0236675,25.5592 12.8898636,24.8837714 12.8898636,24.1689143 L12.8898636,20.3832 Z" id="Fill-23"></path>
                    <path d="M25.203289,12.4721714 C25.203289,12.0396 25.3490498,11.6761714 25.6405713,11.3836 C25.9315234,11.0927429 26.2828297,10.9447429 26.6967675,10.9447429 C27.1067196,10.9447429 27.4654278,11.0927429 27.76549,11.3836 C28.0661215,11.6761714 28.2164373,12.0396 28.2164373,12.4721714 L28.2164373,15.2693143 L32.7475474,15.2693143 C33.1802746,15.2693143 33.542399,15.4138857 33.8327818,15.7087429 C34.1214565,16.0007429 34.2689254,16.3607429 34.2689254,16.7950286 C34.2689254,17.1898857 34.1214565,17.5401714 33.8327818,17.8396 C33.542399,18.1413143 33.1802746,18.2916 32.7475474,18.2916 L28.2164373,18.2916 L28.2164373,24.1687429 C28.2164373,24.4710286 28.2773608,24.7527429 28.3986383,25.0156 C28.5216239,25.2807429 28.6804804,25.5116 28.8774852,25.7081714 C29.0750593,25.9076 29.3085043,26.0618857 29.5800976,26.1744571 C29.853399,26.2876 30.1392268,26.3436 30.439289,26.3436 C30.8720163,26.3436 31.2751359,26.2258857 31.6497866,25.9898857 C32.0261455,25.7590286 32.30571,25.4213143 32.4947435,24.9881714 C32.6086191,24.7247429 32.7862651,24.5024571 33.0305282,24.3241714 C33.2736526,24.1458857 33.5549254,24.0544571 33.8749158,24.0544571 C34.3059349,24.0544571 34.6669206,24.2070286 34.9584421,24.5058857 C35.2488249,24.8093143 35.3945856,25.1693143 35.3945856,25.5801714 C35.3945856,25.7316 35.3473273,25.9196 35.2556574,26.1458857 C34.8775904,26.9938857 34.4192411,27.6373143 33.8749158,28.0830286 C33.3305904,28.5253143 32.8044852,28.8453143 32.2954612,29.0424571 C31.7921311,29.2396 31.3594038,29.3487429 31.0024038,29.3681714 C30.647112,29.3864571 30.4586478,29.3933143 30.439289,29.3933143 C29.7264278,29.3933143 29.0517148,29.2584571 28.4134421,28.9853143 C27.7746,28.7121714 27.2149014,28.3350286 26.7371933,27.8550286 C26.2589158,27.3756 25.8836957,26.8196 25.6109636,26.1904571 C25.3399397,25.5590286 25.203289,24.8841714 25.203289,24.1687429 L25.203289,12.4721714 Z" id="Fill-24"></path>
                    <path d="M40.2779129,20.7509143 L44.6968555,20.7509143 L44.6968555,20.3834857 C44.6968555,20.0812 44.6365014,19.7989143 44.5146545,19.5343429 C44.393377,19.2714857 44.2316737,19.0406286 44.0352383,18.8434857 C43.8393722,18.6469143 43.6042191,18.4892 43.3314871,18.3766286 C43.0610325,18.2634857 42.7723579,18.2063429 42.4717263,18.2063429 C41.8539512,18.2063429 41.3318316,18.4183429 40.9093531,18.8434857 C40.4880134,19.2652 40.2779129,19.7800571 40.2779129,20.3834857 L40.2779129,20.7509143 Z M37.2374344,20.3834857 C37.2374344,19.6657714 37.3718077,18.9932 37.6445397,18.3629143 C37.9172718,17.7332 38.2913531,17.1772 38.7719081,16.6943429 C39.2501856,16.2137714 39.8013435,15.8394857 40.4322144,15.5640571 C41.0608077,15.2892 41.7395062,15.1566286 42.4717263,15.1566286 C43.1868651,15.1566286 43.8621474,15.2892 44.5015589,15.5640571 C45.1381234,15.8394857 45.6972526,16.2137714 46.1755301,16.6943429 C46.654377,17.1772 47.0284584,17.7332 47.3011904,18.3629143 C47.5733531,18.9932 47.7100038,19.6657714 47.7100038,20.3834857 L47.7100038,22.2754857 C47.7100038,22.7092 47.5648124,23.0703429 47.2715828,23.3646286 C46.9806306,23.6577714 46.6293244,23.8029143 46.2182335,23.8029143 L40.2779129,23.8029143 L40.2779129,24.1686286 C40.2779129,24.7714857 40.4908603,25.2857714 40.9247263,25.7080571 C41.3563148,26.1320571 41.8727407,26.3440571 42.4717263,26.3440571 C42.6983388,26.3440571 42.9568364,26.3160571 43.2489273,26.2589143 C43.5376019,26.2040571 43.8154584,26.0149143 44.0773722,25.6949143 C44.1912478,25.5634857 44.3301761,25.4263429 44.5015589,25.2857714 C44.6700947,25.1429143 44.8522957,25.0337714 45.0493005,24.9600571 C45.2468746,24.8840571 45.4575445,24.8520571 45.6824488,24.8612 C45.9084919,24.8709143 46.1328268,24.9600571 46.3588699,25.1286286 C46.6589321,25.3377714 46.8599225,25.6320571 46.9635493,26.0206286 C47.0660373,26.4057714 46.9686737,26.8149143 46.6680421,27.2474857 C46.2546737,27.7949143 45.7205971,28.2892 45.0623962,28.7314857 C44.4064727,29.1760571 43.5438651,29.3937714 42.4717263,29.3937714 C41.7594344,29.3937714 41.0835828,29.2589143 40.44531,28.9852 C39.8076067,28.7120571 39.2501856,28.3349143 38.7719081,27.8549143 C38.2913531,27.3754857 37.9172718,26.8200571 37.6445397,26.1903429 C37.3718077,25.5594857 37.2374344,24.8840571 37.2374344,24.1686286 L37.2374344,20.3834857 Z" id="Fill-25"></path>
                    <path d="M49.5514292,12.5001143 C49.5514292,12.0681143 49.69719,11.7035429 49.9892809,11.4121143 C50.2779555,11.1195429 50.6309699,10.9732571 51.0443383,10.9732571 C51.4565679,10.9732571 51.8135679,11.1195429 52.1141995,11.4121143 C52.4114148,11.7035429 52.5640081,12.0681143 52.5640081,12.5001143 L52.5640081,27.7561143 C52.5640081,28.1909714 52.4188167,28.5515429 52.128434,28.8452571 C51.8374818,29.1366857 51.4759268,29.2824 51.0443383,29.2824 C50.64919,29.2824 50.3041469,29.1366857 50.0018072,28.8452571 C49.7028837,28.5515429 49.5514292,28.1909714 49.5514292,27.7561143 L49.5514292,12.5001143 Z" id="Fill-26"></path>
                    <path d="M54.6591483,19.3363429 C54.6591483,18.7169143 54.7792871,18.1512 55.0241196,17.6420571 C55.2661053,17.1334857 55.6088708,16.6946286 56.049,16.3283429 C56.4919761,15.9592 57.0169426,15.6734857 57.6290239,15.4649143 C58.2388278,15.2603429 58.8987368,15.1569143 59.614445,15.1569143 C60.1952105,15.1757714 60.757756,15.2689143 61.3026507,15.4380571 C61.7712488,15.5877714 62.2489569,15.8157714 62.7380526,16.1174857 C63.2260096,16.4180571 63.6285598,16.8494857 63.949689,17.4163429 C64.1170861,17.6986286 64.2019234,17.9820571 64.2019234,18.2637714 C64.2019234,18.6786286 64.0618565,19.0329143 63.7805837,19.3226286 C63.4998804,19.6163429 63.1502823,19.7609143 62.7380526,19.7609143 C62.530799,19.7609143 62.3178517,19.7089143 62.0912392,19.6066286 C61.8663349,19.5020571 61.6790096,19.3483429 61.5269856,19.1386286 L61.5269856,19.1677714 C61.263933,18.8289143 60.9934785,18.5837714 60.7104976,18.4346286 C60.4303636,18.2837714 60.0631148,18.2066286 59.614445,18.2066286 C59.0319713,18.2066286 58.5628038,18.3152 58.2069426,18.5323429 C57.8488038,18.7489143 57.6711579,19.0169143 57.6711579,19.3363429 C57.6711579,19.7700571 57.8436794,20.0717714 58.1915694,20.2414857 C58.5394593,20.4106286 59.0114737,20.4963429 59.614445,20.4963429 C60.3261675,20.4963429 61.0008804,20.5906286 61.6408612,20.7786286 C62.2797033,20.9666286 62.836555,21.2506286 63.3165407,21.6272 C63.7936794,22.0032 64.1717464,22.4654857 64.4427703,23.0112 C64.7137943,23.5563429 64.8493062,24.1969143 64.8493062,24.9306286 C64.8493062,25.6837714 64.7086699,26.3386286 64.4268278,26.8957714 C64.145555,27.4517714 63.7657799,27.9123429 63.286933,28.2786286 C62.8097943,28.6477714 62.24611,28.9249143 61.5975885,29.1134857 C60.9513445,29.3014857 60.2703684,29.3934857 59.5569378,29.3934857 C59.4054833,29.3934857 59.1253493,29.3717714 58.7131196,29.3266286 C58.3003206,29.2774857 57.8396938,29.1506286 57.3340861,28.9432 C56.826201,28.7380571 56.3143301,28.4129143 55.7990431,27.9717714 C55.2809091,27.5266286 54.8550144,26.9186286 54.5173732,26.1460571 C54.4433541,25.9963429 54.404067,25.8066286 54.404067,25.5803429 C54.404067,25.1694857 54.5509665,24.8094857 54.8419187,24.5054857 C55.1311627,24.2066286 55.4932871,24.0540571 55.9243062,24.0540571 C56.2442967,24.0540571 56.5267081,24.1460571 56.7704019,24.3243429 C57.0123876,24.5026286 57.1934498,24.7249143 57.3050478,24.9883429 C57.493512,25.4214857 57.8112249,25.7592 58.2616029,25.9900571 C58.7131196,26.2260571 59.1617895,26.3437714 59.614445,26.3437714 C60.2145694,26.3437714 60.7332727,26.2460571 61.1762488,26.0472 C61.6186555,25.8506286 61.8372967,25.4786286 61.8372967,24.9306286 C61.8372967,24.3849143 61.6266268,24.0152 61.2024402,23.8152 C60.7811005,23.6180571 60.2504402,23.5186286 59.614445,23.5186286 C58.8987368,23.5186286 58.2388278,23.4477714 57.6290239,23.3083429 C57.0169426,23.1643429 56.4919761,22.9340571 56.049,22.6152 C55.6088708,22.2969143 55.2661053,21.8654857 55.0241196,21.3300571 C54.7792871,20.7929143 54.6591483,20.1277714 54.6591483,19.3363429" id="Fill-27"></path>
                    <path d="M88.5944182,23.5168571 L91.9486239,23.5168571 L91.9486239,17.7242857 C91.3855091,18.6957143 90.8423225,19.6317143 90.3162172,20.5305714 C89.7923895,21.4294286 89.2190258,22.426 88.5944182,23.5168571" id="Fill-28"></path>
                    <path d="M88.8351512,23.3768 L91.8095818,23.3768 L91.8095818,18.2425143 C91.3381368,19.0539429 90.8809263,19.8413714 90.4368115,20.6025143 C89.946577,21.4436571 89.4125005,22.3676571 88.8351512,23.3768 L88.8351512,23.3768 Z M92.0891464,23.6579429 L88.3545962,23.6579429 L88.4741656,23.4493714 C89.1004813,22.3556571 89.6744144,21.3602286 90.196534,20.4602286 C90.7220699,19.5608 91.2658258,18.6265143 91.8283713,17.6568 L92.0891464,17.2076571 L92.0891464,23.6579429 Z" id="Fill-29"></path>
                    <path d="M95.2128679,26.7632 L95.2128679,27.9460571 C95.2128679,28.4112 95.0511646,28.7992 94.729466,29.1134857 C94.4060593,29.4260571 94.0245761,29.5837714 93.5810306,29.5837714 C93.11471,29.5837714 92.7292411,29.4260571 92.4183608,29.1134857 C92.1034947,28.7992 91.9486239,28.4112 91.9486239,27.9460571 L91.9486239,26.7632 L85.8135761,26.7632 C85.3922364,26.7632 85.0198632,26.5957714 84.6964565,26.2620571 C84.3741885,25.9294857 84.2130545,25.5620571 84.2130545,25.1546286 C84.2130545,24.8540571 84.2916287,24.5597714 84.4544708,24.2752 L92.1911789,10.7214857 L92.1615713,10.7214857 C92.3022077,10.4580571 92.5037675,10.2666286 92.7645426,10.1443429 C93.0264565,10.0243429 93.2883703,9.96262857 93.5508536,9.96262857 C94.0137579,9.96262857 94.4060593,10.1300571 94.729466,10.4626286 C95.0511646,10.7974857 95.2128679,11.1654857 95.2128679,11.5700571 L95.2128679,23.5483429 C95.5937818,23.6283429 95.9126335,23.8169143 96.1648679,24.1094857 C96.4148249,24.4009143 96.5412268,24.7512 96.5412268,25.1546286 C96.5412268,25.5620571 96.4148249,25.9072 96.1648679,26.2014857 C95.9126335,26.4940571 95.5937818,26.6814857 95.2128679,26.7632 M83.9710689,29.1134857 C83.6476622,29.4260571 83.2661789,29.5837714 82.8232029,29.5837714 L73.4575043,29.5837714 C72.9917531,29.5837714 72.6045761,29.4260571 72.2931263,29.1134857 C71.9788297,28.7992 71.8250976,28.4112 71.8250976,27.9460571 C71.8250976,27.5409143 71.9549158,27.1877714 72.2179684,26.8837714 L80.2866239,16.8757714 C80.4671167,16.6946286 80.6174325,16.4266286 80.73871,16.0717714 C80.8599876,15.7174857 80.9197722,15.3894857 80.9197722,15.0872 L80.9197722,15.0592 C80.9197722,14.2489143 80.6379301,13.5660571 80.0736766,13.0106286 C79.5099923,12.4546286 78.8142124,12.1752 77.9874756,12.1752 C77.605423,12.1752 77.2376048,12.2460571 76.8857292,12.3883429 C76.5321455,12.5306286 76.2195569,12.7294857 75.9502411,12.9809143 C75.6775091,13.2317714 75.4611455,13.5317714 75.2988727,13.8734857 C75.1377388,14.2192 75.0591646,14.5826286 75.0591646,14.9660571 C75.0591646,15.4323429 74.9003081,15.8209143 74.588289,16.1346286 C74.2774086,16.4466286 73.8976335,16.6043429 73.4575043,16.6043429 C72.9917531,16.6043429 72.6045761,16.4466286 72.2931263,16.1346286 C71.9788297,15.8209143 71.8250976,15.4323429 71.8250976,14.9660571 C71.8250976,14.1380571 71.9907866,13.3546286 72.3238727,12.6169143 C72.6552507,11.8780571 73.1039206,11.2369143 73.6687435,10.6906286 C74.231289,10.1443429 74.8860737,9.71062857 75.6313895,9.38662857 C76.3755665,9.0632 77.1635856,8.90205714 77.9874756,8.90205714 C78.8352794,8.90205714 79.6358249,9.0632 80.3913895,9.38662857 C81.1469541,9.71062857 81.8011694,10.1546286 82.3546048,10.7214857 C82.9091789,11.2872 83.3470306,11.9449143 83.6710067,12.6917714 C83.9921359,13.4403429 84.1538392,14.2403429 84.1538392,15.0872 C84.1538392,15.8346286 84.0308536,16.5420571 83.7917148,17.2089143 C83.5480211,17.8774857 83.2058249,18.4752 82.7628488,19.0014857 L77.0519876,26.3369143 L82.8232029,26.3369143 C83.2661789,26.3369143 83.6476622,26.4940571 83.9710689,26.8089143 C84.2916287,27.1214857 84.4544708,27.5014857 84.4544708,27.9460571 C84.4544708,28.4112 84.2916287,28.7992 83.9710689,29.1134857 M80.5656191,0.710057143 C74.2119301,0.710057143 68.5733799,3.78662857 65.0460833,8.53462857 C68.5426335,11.3003429 70.7882603,15.5849143 70.7882603,20.3992 C70.7882603,25.0906286 68.6553703,29.2860571 65.3102746,32.0546286 C68.8489589,36.6083429 74.3650928,39.5414857 80.5656191,39.5414857 C91.2517053,39.5414857 99.909667,30.8483429 99.909667,20.1260571 C99.909667,9.40262857 91.2517053,0.710057143 80.5656191,0.710057143" id="Fill-30"></path>
                    <path d="M77.9875325,12.0361143 C78.8472933,12.0361143 79.5823603,12.3315429 80.1716665,12.9115429 C80.7609727,13.4915429 81.0587574,14.2138286 81.0587574,15.0589714 C81.0587574,15.4018286 80.9955565,15.7498286 80.8697239,16.1178286 C80.7404751,16.4984 80.5804799,16.7772571 80.3834751,16.9749714 L72.3267766,26.9744 C72.0802359,27.2526857 71.962944,27.5715429 71.962944,27.9458286 C71.962944,28.3778286 72.1047191,28.7264 72.3905469,29.0149714 C72.6803603,29.3035429 73.0282502,29.4441143 73.4575612,29.4441143 L82.8232598,29.4441143 C83.2326426,29.4441143 83.5748388,29.3035429 83.8731928,29.0121143 C84.1715469,28.7229714 84.3161689,28.3761143 84.3161689,27.9458286 C84.3161689,27.5372571 84.1715469,27.1966857 83.8731928,26.9086857 C83.5748388,26.6184 83.2326426,26.4778286 82.8232598,26.4778286 L76.7656474,26.4778286 L82.651877,18.9155429 C83.0851737,18.4024 83.4211067,17.8126857 83.6619536,17.1606857 C83.8959679,16.5109714 84.0132598,15.8126857 84.0132598,15.0869714 C84.0132598,14.2624 83.8555421,13.4761143 83.5423842,12.7481143 C83.2275182,12.0184 82.7947909,11.3704 82.2550206,10.8195429 C81.7180971,10.2681143 81.0712837,9.82982857 80.3362167,9.5144 C78.8843029,8.89497143 77.1533938,8.8784 75.6861067,9.51268571 C74.9618579,9.82982857 74.3139057,10.2601143 73.7655947,10.7909714 C73.2138675,11.3235429 72.7731689,11.9555429 72.4497622,12.6744 C72.1263555,13.3904 71.962944,14.1606857 71.962944,14.9664 C71.962944,15.3984 72.1047191,15.7481143 72.3905469,16.0355429 C72.6786522,16.3235429 73.0282502,16.4635429 73.4575612,16.4635429 C73.8646665,16.4635429 74.2034464,16.3235429 74.4904129,16.0355429 C74.7773794,15.7481143 74.9197239,15.3966857 74.9197239,14.9664 C74.9197239,14.5635429 75.0039919,14.1772571 75.1730971,13.8155429 C75.3433411,13.4549714 75.5722311,13.1406857 75.8540732,12.8784 C76.1381928,12.6144 76.4678627,12.4058286 76.8339727,12.2589714 C77.2029297,12.1109714 77.5901067,12.0361143 77.9875325,12.0361143 M82.8232598,29.7241143 L73.4575612,29.7241143 C72.9582167,29.7241143 72.532322,29.5515429 72.1941115,29.2138286 C71.8553316,28.8738286 71.6862263,28.4481143 71.6862263,27.9458286 C71.6862263,27.5098286 71.8297096,27.1201143 72.1126904,26.7915429 L80.1773603,16.7892571 C80.35159,16.6121143 80.4933651,16.3606857 80.6072407,16.0269714 C80.7228244,15.6875429 80.7803316,15.3726857 80.7803316,15.0869714 C80.7803316,14.2904 80.5115852,13.6366857 79.9769392,13.1092571 C79.4417239,12.5829714 78.771566,12.3144 77.9875325,12.3144 C77.6265469,12.3144 77.2729632,12.3835429 76.9370301,12.5189714 C76.6005278,12.6526857 76.3004656,12.8424 76.0436761,13.0835429 C75.7868866,13.3212571 75.5779249,13.6086857 75.4247622,13.9344 C75.2710301,14.2624 75.1958722,14.6001143 75.1958722,14.9664 C75.1958722,15.4681143 75.0256282,15.8944 74.6885565,16.2326857 C74.3497766,16.5709714 73.9364081,16.7429714 73.4575612,16.7429714 C72.9548005,16.7429714 72.5311833,16.5709714 72.1941115,16.2326857 C71.8553316,15.8944 71.6862263,15.4681143 71.6862263,14.9664 C71.6862263,14.1218286 71.8570397,13.3104 72.196389,12.5595429 C72.5328914,11.8098286 72.9952263,11.1469714 73.5702981,10.5909714 C74.1436617,10.0349714 74.8172359,9.58697143 75.5745086,9.25725714 C76.3340589,8.92982857 77.1459919,8.7624 77.9875325,8.7624 C78.8495708,8.7624 79.6774464,8.92982857 80.4449679,9.25725714 C81.2136282,9.58868571 81.8900493,10.0475429 82.4548722,10.6218286 C83.0179871,11.1989714 83.4689344,11.8749714 83.7974656,12.6378286 C84.1259967,13.3989714 84.2911163,14.2229714 84.2911163,15.0869714 C84.2911163,15.8458286 84.1681306,16.5755429 83.9210206,17.2566857 C83.6727718,17.9401143 83.3186187,18.5572571 82.8699488,19.0909714 L77.3350254,26.1984 L82.8232598,26.1984 C83.3015373,26.1984 83.7194608,26.3692571 84.0679201,26.7086857 C84.4163794,27.0492571 84.5945947,27.4635429 84.5945947,27.9458286 C84.5945947,28.4481143 84.4163794,28.8738286 84.0679201,29.2138286 C83.7194608,29.5515429 83.3015373,29.7241143 82.8232598,29.7241143 M92.3774225,10.6361143 L92.3113746,10.7892571 L84.5763746,24.3452571 C84.4260589,24.6086857 84.3531785,24.8726857 84.3531785,25.1544 C84.3531785,25.5275429 84.4989392,25.8555429 84.7950158,26.1646857 C85.0933699,26.4726857 85.4275947,26.6241143 85.813633,26.6241143 L92.0893172,26.6241143 L92.0893172,27.9458286 C92.0893172,28.3778286 92.2276761,28.7264 92.5157813,29.0149714 C92.8033172,29.3035429 93.1517766,29.4441143 93.5810876,29.4441143 C93.9904703,29.4441143 94.3338053,29.3035429 94.6338675,29.0121143 C94.9259584,28.7286857 95.0757048,28.3698286 95.0757048,27.9458286 L95.0757048,26.6504 L95.1838866,26.6252571 C95.5346234,26.5544 95.8272837,26.3778286 96.0590206,26.1092571 C96.290188,25.8378286 96.4023555,25.5275429 96.4023555,25.1544 C96.4023555,24.7875429 96.2879105,24.4669714 96.0590206,24.2001143 C95.8272837,23.9315429 95.5334847,23.7584 95.1838866,23.6846857 L95.0757048,23.6612571 L95.0757048,11.5704 C95.0757048,11.2006857 94.9288053,10.8709714 94.6310206,10.5595429 C94.3315278,10.2521143 93.9785134,10.1024 93.5509105,10.1024 C93.3094943,10.1024 93.0652311,10.1589714 92.8215373,10.2721143 C92.6381976,10.3555429 92.4935756,10.4766857 92.3774225,10.6361143 M93.5810876,29.7241143 C93.0800349,29.7241143 92.6569871,29.5515429 92.3193459,29.2138286 C91.9822742,28.8738286 91.8091833,28.4481143 91.8091833,27.9458286 L91.8091833,26.9046857 L85.813633,26.9046857 C85.354145,26.9046857 84.9447622,26.7184 84.5951641,26.3578286 C84.2489823,26.0001143 84.0736139,25.5972571 84.0736139,25.1544 C84.0736139,24.8264 84.1630062,24.5075429 84.3338196,24.2069714 L91.971456,10.8235429 L92.0397813,10.6549714 C92.1935134,10.3658286 92.4184177,10.1515429 92.706523,10.0184 C92.9866569,9.88868571 93.2696378,9.82468571 93.5509105,9.82468571 C94.050255,9.82468571 94.4812742,10.0052571 94.8291641,10.3646857 C95.1759153,10.7264 95.3507144,11.1309714 95.3507144,11.5704 L95.3507144,23.4366857 C95.7134081,23.5361143 96.0225804,23.7309714 96.2685517,24.0178286 C96.5412837,24.3366857 96.6813507,24.7201143 96.6813507,25.1544 C96.6813507,25.5892571 96.5412837,25.9715429 96.2685517,26.2921143 C96.0225804,26.5795429 95.7151163,26.7744 95.3507144,26.8726857 L95.3507144,27.9458286 C95.3507144,28.4481143 95.1753459,28.8738286 94.827456,29.2138286 C94.4784273,29.5515429 94.0582263,29.7241143 93.5810876,29.7241143 M65.5016426,32.0755429 C69.1735612,36.7332571 74.6566713,39.3995429 80.5656761,39.3995429 C91.1566761,39.3995429 99.7725038,30.7544 99.7725038,20.1258286 C99.7725038,9.49668571 91.1566761,0.850971429 80.5656761,0.850971429 C74.4852885,0.850971429 68.9059536,3.64068571 65.2374512,8.51154286 C68.8564177,11.4235429 70.9289536,15.7481143 70.9289536,20.3995429 C70.9289536,24.9206857 68.9526426,29.1692571 65.5016426,32.0755429 M80.5656761,39.6789714 C74.5234368,39.6789714 68.9247431,36.9321143 65.2004416,32.1406857 L65.1173124,32.0344 L65.222078,31.9469714 C68.673078,29.0904 70.6505278,24.8812571 70.6505278,20.3995429 C70.6505278,15.7898286 68.575145,11.5035429 64.9595947,8.64525714 L64.8542598,8.56182857 L64.9339727,8.45211429 C68.6542885,3.4424 74.3514847,0.571542857 80.5656761,0.571542857 C91.3098388,0.571542857 100.048652,9.34354286 100.048652,20.1258286 C100.048652,30.9081143 91.3098388,39.6789714 80.5656761,39.6789714" id="Fill-31"></path>
                    <path d="M99.8763014,28.8184571 C99.8763014,28.5761714 99.9628469,28.3681714 100.13366,28.1950286 C100.305612,28.0190286 100.520268,27.9356 100.77478,27.9356 C101.008794,27.9356 101.213201,28.0190286 101.390278,28.1950286 C101.566785,28.3681714 101.656177,28.5761714 101.656177,28.8184571 C101.656177,29.0773143 101.572478,29.2904571 101.399388,29.4641714 C101.226866,29.6356 101.018474,29.7236 100.77478,29.7236 C100.531656,29.7236 100.319278,29.6356 100.14334,29.4641714 C99.9656938,29.2904571 99.8763014,29.0773143 99.8763014,28.8184571" id="Fill-32"></path>
                    <path d="M100.774837,28.0740571 C100.556765,28.0740571 100.37798,28.1454857 100.23222,28.2929143 C100.085889,28.4403429 100.015287,28.6117714 100.015287,28.8186286 C100.015287,29.0380571 100.087598,29.2169143 100.240191,29.3637714 C100.389937,29.5117714 100.567583,29.5820571 100.774837,29.5820571 C100.98209,29.5820571 101.155181,29.5134857 101.298095,29.3654857 C101.447272,29.2180571 101.517875,29.0409143 101.517875,28.8186286 C101.517875,28.6117714 101.443856,28.4403429 101.29411,28.2946286 C101.142655,28.1454857 100.974119,28.0740571 100.774837,28.0740571 M100.774837,29.8620571 C100.495272,29.8620571 100.248732,29.7637714 100.044894,29.5632 C99.8410569,29.3637714 99.7374301,29.1134857 99.7374301,28.8186286 C99.7374301,28.5397714 99.8376407,28.2946286 100.036354,28.0946286 C100.233358,27.8957714 100.482746,27.7952 100.774837,27.7952 C101.044722,27.7952 101.285,27.8957714 101.487698,28.0934857 C101.691535,28.2929143 101.795162,28.5369143 101.795162,28.8186286 C101.795162,29.1152 101.695521,29.3637714 101.496808,29.5620571 C101.298095,29.7637714 101.057818,29.8620571 100.774837,29.8620571" id="Fill-33"></path>
                    <path d="M102.782122,20.8709143 C102.782122,20.5652 102.885749,20.3086286 103.091294,20.1006286 C103.297409,19.8954857 103.55249,19.7903429 103.858816,19.7903429 C104.137242,19.7903429 104.383782,19.8954857 104.59616,20.1006286 C104.808538,20.3086286 104.914443,20.5652 104.914443,20.8709143 L104.914443,26.0897714 C104.914443,26.5189143 105.067605,26.8789143 105.373361,27.1806286 C105.679117,27.4783429 106.05206,27.6303429 106.488203,27.6303429 C106.70172,27.6303429 106.903849,27.5892 107.09573,27.5109143 C107.287041,27.4292 107.456146,27.3212 107.596782,27.1806286 C107.734002,27.0377714 107.84617,26.8777714 107.932715,26.6897714 C108.018691,26.5034857 108.061964,26.3034857 108.061964,26.0897714 L108.061964,20.8709143 C108.061964,20.5652 108.16616,20.3086286 108.373414,20.1006286 C108.577821,19.8954857 108.826639,19.7903429 109.119868,19.7903429 C109.411959,19.7903429 109.664763,19.8954857 109.876002,20.1006286 C110.087242,20.3086286 110.193715,20.5652 110.193715,20.8709143 L110.193715,26.0897714 C110.193715,26.5972 110.096921,27.0714857 109.905041,27.5183429 C109.71316,27.9680571 109.446691,28.3600571 109.10905,28.6994857 C108.769701,29.0406286 108.375122,29.3063429 107.921897,29.4994857 C107.47038,29.6926286 106.992103,29.7880571 106.488203,29.7880571 C105.971778,29.7880571 105.487806,29.6926286 105.044261,29.4994857 C104.599007,29.3063429 104.206706,29.0406286 103.867926,28.6994857 C103.532562,28.3600571 103.264385,27.9680571 103.071935,27.5183429 C102.878916,27.0714857 102.782122,26.5972 102.782122,26.0897714 L102.782122,20.8709143 Z" id="Fill-34"></path>
                    <path d="M113.502997,26.0899429 C113.502997,26.5190857 113.65616,26.8790857 113.962485,27.1808 C114.264825,27.4785143 114.632074,27.6305143 115.05683,27.6305143 C115.481016,27.6305143 115.842571,27.4888 116.142064,27.2099429 C116.442696,26.9276571 116.60383,26.5825143 116.63116,26.1710857 L116.63116,23.4116571 C116.63116,23.1985143 116.58561,22.9979429 116.501342,22.8116571 C116.414796,22.6236571 116.299782,22.4602286 116.162562,22.3213714 C116.022495,22.1813714 115.856806,22.0710857 115.664925,21.9916571 C115.471906,21.9099429 115.269208,21.8699429 115.05683,21.8699429 C114.618978,21.8699429 114.250021,22.0202286 113.950528,22.3213714 C113.652744,22.6202286 113.502997,22.9842286 113.502997,23.4116571 L113.502997,26.0899429 Z M111.350179,23.4116571 C111.350179,22.9042286 111.446973,22.4282286 111.6417,21.9796571 C111.831873,21.5339429 112.097203,21.1402286 112.437122,20.8002286 C112.775901,20.4602286 113.165925,20.1950857 113.61061,20.0030857 C114.058141,19.8082286 114.536988,19.7099429 115.05683,19.7099429 C115.562437,19.7099429 116.039576,19.8082286 116.491662,20.0030857 C116.940901,20.1950857 117.338327,20.4602286 117.678815,20.8002286 C118.01361,21.1402286 118.281217,21.5339429 118.473667,21.9796571 C118.665547,22.4282286 118.762342,22.9042286 118.762342,23.4116571 L118.762342,28.6288 C118.762342,28.9356571 118.655868,29.1916571 118.442921,29.3990857 C118.232251,29.6065143 117.98571,29.7093714 117.707284,29.7093714 C117.559815,29.7093714 117.410069,29.6705143 117.258614,29.5882286 C117.103744,29.5082286 116.977342,29.4236571 116.866882,29.3293714 C116.298074,29.6356571 115.693394,29.7882286 115.05683,29.7882286 C114.551791,29.7882286 114.074653,29.6922286 113.624275,29.4996571 C113.17048,29.3059429 112.775901,29.0408 112.437122,28.6990857 C112.097203,28.3602286 111.831873,27.9682286 111.6417,27.5185143 C111.446973,27.0710857 111.350179,26.5973714 111.350179,26.0899429 L111.350179,23.4116571 Z" id="Fill-35"></path>
                </g>
                <g id="Hotel-Copy" transform="translate(0.000000, 40.000000)">
                    <path d="M2.71394019,32.9138857 C2.89784928,32.9138857 3.0732177,32.9276 3.20929904,33.1013143 C3.31748086,33.2378857 3.32374402,33.3813143 3.32374402,33.5476 L3.32374402,36.7276 L2.53173923,36.7276 L2.53173923,33.7841714 C2.53173923,33.7338857 2.53173923,33.6476 2.48277273,33.6047429 C2.4497488,33.5756 2.38199282,33.5618857 2.34156699,33.5618857 L0.998973684,33.5618857 C0.931787081,33.5618857 0.88395933,33.5830286 0.8640311,33.6047429 C0.831007177,33.6401714 0.808801435,33.7196 0.808801435,33.7841714 L0.808801435,36.7276 L0.0173660287,36.7276 L0.0173660287,33.5476 C0.0173660287,33.4110286 0.00939473684,33.2590286 0.139212919,33.1013143 C0.295222488,32.9138857 0.470590909,32.9138857 0.626600478,32.9138857 L2.71394019,32.9138857 Z" id="Fill-1" fill="#454545"></path>
                    <path d="M5.10185455,35.8070286 C5.33302201,36.0876 5.67806507,36.1236 5.96275407,36.1236 C6.26224689,36.1236 6.57995981,36.0876 6.81739043,35.8070286 C7.0536823,35.5264571 7.0536823,35.1590286 7.0536823,34.8276 C7.0536823,34.5476 7.0741799,34.1156 6.82365359,33.8201714 C6.59419426,33.5476 6.24801244,33.5184571 5.96275407,33.5184571 C5.70539522,33.5184571 5.31992632,33.5476 5.09502201,33.8201714 C4.87182584,34.0938857 4.87182584,34.5830286 4.87182584,34.8276 C4.87182584,35.1453143 4.878089,35.5333143 5.10185455,35.8070286 M7.41352919,33.2738857 C7.82746699,33.6836 7.87472536,34.4036 7.87472536,34.8070286 C7.87472536,35.6121714 7.67828995,36.0938857 7.41352919,36.3607429 C7.02692153,36.7418857 6.37783062,36.7710286 5.96275407,36.7710286 C5.53685933,36.7710286 4.90598852,36.7418857 4.5131177,36.3607429 C4.08551483,35.9436 4.05306029,35.2236 4.05306029,34.8350286 C4.05306029,34.4036 4.0991799,33.6836 4.5131177,33.2738857 C4.90598852,32.8853143 5.53685933,32.8704571 5.96275407,32.8704571 C6.39035694,32.8704571 7.02065837,32.8853143 7.41352919,33.2738857" id="Fill-3" fill="#454545"></path>
                    <path d="M9.51760861,33.1867429 C9.61269474,32.9638857 9.82905837,32.8701714 10.0471301,32.8701714 C10.2634938,32.8701714 10.479288,32.9638857 10.5743742,33.1867429 L12.0314124,36.7278857 L11.21891,36.7278857 L10.1137474,33.7838857 C10.1000823,33.7484571 10.0801541,33.6770286 10.0471301,33.6770286 C10.0118287,33.6770286 9.99246986,33.7484571 9.97766603,33.7838857 L8.87364211,36.7278857 L8.06000096,36.7278857 L9.51760861,33.1867429 Z" id="Fill-5" fill="#454545"></path>
                    <path d="M13.0573177,36.7277714 C12.9286383,36.7277714 12.7942651,36.7209143 12.6655856,36.6054857 C12.5221024,36.4763429 12.5152699,36.3392 12.5152699,36.1957714 L12.5152699,32.9140571 L13.3084134,32.9140571 L13.3084134,35.8072 C13.3084134,35.8786286 13.3152459,35.9729143 13.3625043,36.0226286 C13.417734,36.0803429 13.5253464,36.0803429 13.5794373,36.0803429 L15.0165474,36.0803429 L15.0165474,32.9140571 L15.8096909,32.9140571 L15.8096909,36.0803429 L16.3181455,36.0803429 L16.3181455,36.7277714 L13.0573177,36.7277714 Z" id="Fill-7" fill="#454545"></path>
                    <path d="M19.1742024,34.4532 C19.3290732,34.4532 19.3507096,34.3320571 19.3507096,34.2309143 C19.3507096,33.9926286 19.2345565,33.8132 19.1201115,33.7194857 C18.9231067,33.5617714 18.6663172,33.5474857 18.4425517,33.5474857 C18.2318818,33.5474857 17.9061976,33.5406286 17.689834,33.7989143 C17.5264225,33.9926286 17.533255,34.2023429 17.5264225,34.4532 L19.1742024,34.4532 Z M18.0627766,36.7274857 C17.6966665,36.7274857 17.2628005,36.6914857 16.963877,36.2457714 C16.7275852,35.8857714 16.7070876,35.3606286 16.7070876,34.8572 C16.7070876,34.1440571 16.7418196,33.6194857 17.1329823,33.2589143 C17.5264225,32.8989143 18.1367957,32.8989143 18.476145,32.8989143 C18.8957766,32.8989143 19.3290732,32.9206286 19.66159,33.1440571 C20.0823603,33.4246286 20.1700445,33.8989143 20.1700445,34.3817714 C20.1700445,34.5760571 20.1506856,34.7989143 20.0015086,34.9572 C19.8927574,35.0726286 19.7555373,35.1012 19.6143316,35.1012 L17.5264225,35.1012 C17.5264225,35.2669143 17.5474895,35.5126286 17.5742502,35.6263429 C17.6761689,36.0372 18.0081163,36.0800571 18.3002072,36.0800571 L20.0544608,36.0800571 L20.0544608,36.7274857 L18.0627766,36.7274857 Z" id="Fill-9" fill="#454545"></path>
                    <polygon id="Fill-11" fill="#454545" points="23.4050794 36.7277714 23.4050794 35.0872 21.6906823 35.0872 21.6906823 36.7277714 20.8975388 36.7277714 20.8975388 32.9140571 21.6906823 32.9140571 21.6906823 34.4397714 23.4050794 34.4397714 23.4050794 32.9140571 24.1987923 32.9140571 24.1987923 36.7277714"></polygon>
                    <path d="M28.7695311,36.7277143 L29.5621053,36.7277143 L29.5621053,32.914 L28.7695311,32.914 L28.7695311,36.7277143 Z M25.81389,35.814 C25.81389,35.8717143 25.8076268,35.9642857 25.8622871,36.0225714 C25.9089761,36.0728571 25.9773014,36.0802857 26.0382249,36.0802857 L27.0750622,36.0802857 C27.1906459,36.0802857 27.3318517,36.0728571 27.4280766,35.9574286 C27.514622,35.85 27.5220239,35.6705714 27.5220239,35.5334286 C27.5220239,35.4248571 27.5299952,35.2448571 27.4280766,35.1311429 C27.3318517,35.0151429 27.1906459,35.0082857 27.1023923,35.0082857 L25.81389,35.0082857 L25.81389,35.814 Z M25.81389,32.914 L25.81389,34.3602857 L27.4349091,34.3602857 C27.6581053,34.3602857 27.9097703,34.4105714 28.105067,34.6482857 C28.3214306,34.914 28.3424976,35.282 28.3424976,35.5842857 C28.3424976,35.8357143 28.3288325,36.2814286 28.0714737,36.5265714 C27.8676364,36.7208571 27.6023062,36.7277143 27.3802488,36.7277143 L25.5571005,36.7277143 C25.4346842,36.7277143 25.2855072,36.7208571 25.1562584,36.5917143 C25.0218852,36.4551429 25.0218852,36.2962857 25.0218852,36.1454286 L25.0218852,32.914 L25.81389,32.914 Z" id="Fill-13" fill="#454545"></path>
                    <path d="M34.9683493,36.7277714 L34.9968182,34.0146286 C34.9968182,33.9569143 35.0087751,33.9140571 34.9552536,33.9140571 C34.9410191,33.9140571 34.9142584,33.9283429 34.8601675,34.0146286 L33.2807129,36.4683429 C33.1526029,36.6700571 33.0358804,36.7712 32.7665646,36.7712 C32.2985359,36.7712 32.2438756,36.4329143 32.2438756,36.2306286 L32.2438756,32.9140571 L33.0358804,32.9140571 L33.0028565,35.6266286 C33.0028565,35.6917714 33.0028565,35.7277714 33.0569474,35.7277714 C33.0979426,35.7277714 33.1258421,35.6700571 33.1526029,35.6266286 L34.7508469,33.1294857 C34.8937608,32.9140571 35.0765311,32.8706286 35.2399426,32.8706286 C35.347555,32.8706286 35.7620622,32.8854857 35.7620622,33.4534857 L35.7620622,36.7277714 L34.9683493,36.7277714 Z" id="Fill-15" fill="#454545"></path>
                    <path d="M39.3977115,35.8070286 C39.6283096,36.0876 39.9750608,36.1236 40.258611,36.1236 C40.5569651,36.1236 40.8758167,36.0876 41.1132474,35.8070286 C41.350678,35.5264571 41.350678,35.1590286 41.350678,34.8276 C41.350678,34.5476 41.3706062,34.1156 41.1200799,33.8201714 C40.8894818,33.5476 40.5450081,33.5184571 40.258611,33.5184571 C40.0018215,33.5184571 39.6152139,33.5476 39.3908789,33.8201714 C39.1676828,34.0938857 39.1676828,34.5830286 39.1676828,34.8276 C39.1676828,35.1453143 39.1750847,35.5333143 39.3977115,35.8070286 M41.7093861,33.2738857 C42.1227545,33.6836 42.1700129,34.4036 42.1700129,34.8070286 C42.1700129,35.6121714 41.9735775,36.0938857 41.7093861,36.3607429 C41.3227785,36.7418857 40.6731182,36.7710286 40.258611,36.7710286 C39.8327163,36.7710286 39.2012761,36.7418857 38.8089746,36.3607429 C38.3819411,35.9436 38.3477785,35.2236 38.3477785,34.8350286 C38.3477785,34.4036 38.3950368,33.6836 38.8089746,33.2738857 C39.2012761,32.8853143 39.8327163,32.8704571 40.258611,32.8704571 C40.6856445,32.8704571 41.3159459,32.8853143 41.7093861,33.2738857" id="Fill-16" fill="#454545"></path>
                    <polygon id="Fill-17" fill="#454545" points="43.9766493 36.7277714 43.9766493 33.5614857 42.6272234 33.5614857 42.6272234 32.9140571 46.1175105 32.9140571 46.1175105 33.5614857 44.7692234 33.5614857 44.7692234 36.7277714"></polygon>
                    <path d="M46.6695225,36.0801714 L48.4716038,36.0801714 C48.6065464,36.0801714 48.7426278,36.0727429 48.8451158,35.9733143 C48.9054699,35.9081714 48.9658239,35.7858857 48.9658239,35.5618857 C48.9658239,35.4321714 48.9515895,35.2818857 48.8166469,35.1801714 C48.7084651,35.0938857 48.559288,35.0870286 48.4784364,35.0870286 L46.7703024,35.0870286 L46.7703024,34.4396 L48.5051971,34.4396 C48.6276134,34.4396 48.7295321,34.4396 48.830312,34.3390286 C48.8849722,34.2813143 48.9458957,34.1796 48.9458957,34.0013143 C48.9458957,33.8201714 48.8849722,33.7196 48.82291,33.6624571 C48.715867,33.5687429 48.5461923,33.5618857 48.4841301,33.5618857 L46.7367091,33.5618857 L46.7367091,32.9138857 L48.7841923,32.9138857 C49.0409818,32.9138857 49.3188383,32.9356 49.5283694,33.1516 C49.7248048,33.3533143 49.7658,33.6550286 49.7658,33.8858857 C49.7658,34.2310286 49.6849483,34.4178857 49.6035273,34.5258857 C49.5215368,34.6264571 49.3871636,34.7276 49.1958526,34.7487429 L49.1958526,34.7704571 C49.3928574,34.7921714 49.5215368,34.8927429 49.6035273,34.9944571 C49.6986134,35.1081714 49.7857282,35.3098857 49.7857282,35.6636 C49.7857282,36.1093143 49.6445225,36.3756 49.5073024,36.5053143 C49.2909388,36.7138857 49.0199148,36.7276 48.7898861,36.7276 L46.6695225,36.7276 L46.6695225,36.0801714 Z" id="Fill-18" fill="#454545"></path>
                    <path d="M54.289622,36.7277143 L55.0833349,36.7277143 L55.0833349,32.914 L54.289622,32.914 L54.289622,36.7277143 Z M51.3345502,35.814 C51.3345502,35.8717143 51.3271483,35.9642857 51.3806699,36.0225714 C51.429067,36.0728571 51.496823,36.0802857 51.5577464,36.0802857 L52.5957225,36.0802857 C52.7101675,36.0802857 52.8513732,36.0728571 52.9464593,35.9574286 C53.0352823,35.85 53.0426842,35.6705714 53.0426842,35.5334286 C53.0426842,35.4248571 53.048378,35.2448571 52.9464593,35.1311429 C52.8513732,35.0151429 52.7101675,35.0082857 52.6224833,35.0082857 L51.3345502,35.0082857 L51.3345502,35.814 Z M51.3345502,32.914 L51.3345502,34.3602857 L52.9544306,34.3602857 C53.1776268,34.3602857 53.4281531,34.4105714 53.6251579,34.6482857 C53.8415215,34.914 53.8631579,35.282 53.8631579,35.5842857 C53.8631579,35.8357143 53.8483541,36.2814286 53.5904258,36.5265714 C53.3877273,36.7208571 53.1235359,36.7277143 52.8997703,36.7277143 L51.076622,36.7277143 C50.9547751,36.7277143 50.8044593,36.7208571 50.6769187,36.5917143 C50.5414067,36.4551429 50.5414067,36.2962857 50.5414067,36.1454286 L50.5414067,32.914 L51.3345502,32.914 Z" id="Fill-19" fill="#454545"></path>
                    <path d="M56.6980909,35.8502857 C56.6980909,35.908 56.711756,35.98 56.7385167,36.0228571 C56.7857751,36.08 56.8478373,36.08 56.9093301,36.08 L57.8977703,36.08 C58.0139234,36.08 58.169933,36.0657143 58.2638804,35.9645714 C58.3652297,35.8577143 58.3720622,35.684 58.3720622,35.5617143 C58.3720622,35.4468571 58.3652297,35.3028571 58.2775455,35.2028571 C58.1761962,35.0874286 58.0275885,35.08 57.9387656,35.08 L56.6980909,35.08 L56.6980909,35.8502857 Z M57.9251005,34.432 C58.0275885,34.432 58.1631005,34.4177143 58.2564785,34.3165714 C58.3458708,34.2234286 58.3589665,34.1011429 58.3589665,34.0011429 C58.3589665,33.8857143 58.3532727,33.7485714 58.2502153,33.6554286 C58.1631005,33.5685714 58.0469474,33.5617143 57.9387656,33.5617143 L56.8939569,33.5617143 C56.8478373,33.5617143 56.7943158,33.5617143 56.7459187,33.6051429 C56.6980909,33.6474286 56.6980909,33.7057143 56.6980909,33.7485714 L56.6980909,34.432 L57.9251005,34.432 Z M55.9060861,33.5108571 C55.9060861,33.3742857 55.9191818,33.2011429 56.0683589,33.0645714 C56.2163971,32.928 56.3934737,32.9137143 56.5500526,32.9137143 L58.1761962,32.9137143 C58.41989,32.9137143 58.764933,32.9211429 58.9881292,33.1868571 C59.1657751,33.4028571 59.1794402,33.7125714 59.1794402,33.8925714 C59.1794402,34.0942857 59.1583732,34.3531429 59.0160287,34.5257143 C58.9209426,34.6411429 58.764933,34.728 58.5889952,34.7491429 L58.5889952,34.7634286 C58.7996651,34.792 58.9551053,34.9068571 59.0370957,35.0148571 C59.1794402,35.2028571 59.1936746,35.4468571 59.1936746,35.6491429 C59.1936746,35.8502857 59.1794402,36.2457143 58.9488421,36.4902857 C58.7313397,36.7205714 58.4329856,36.728 58.2245933,36.728 L56.5153206,36.728 C56.3661435,36.728 56.1623062,36.7137143 56.0421675,36.5914286 C55.9191818,36.476 55.9060861,36.2885714 55.9060861,36.1662857 L55.9060861,33.5108571 Z" id="Fill-20" fill="#454545"></path>
                    <path d="M63.6684163,36.7277143 L64.4609904,36.7277143 L64.4609904,32.914 L63.6684163,32.914 L63.6684163,36.7277143 Z M60.7139139,35.814 C60.7139139,35.8717143 60.7070813,35.9642857 60.7611722,36.0225714 C60.809,36.0728571 60.8761866,36.0802857 60.9365407,36.0802857 L61.9750861,36.0802857 C62.0895311,36.0802857 62.2313062,36.0728571 62.3269617,35.9574286 C62.4146459,35.85 62.4214785,35.6705714 62.4214785,35.5334286 C62.4214785,35.4248571 62.428311,35.2448571 62.3269617,35.1311429 C62.2313062,35.0151429 62.0895311,35.0082857 62.0012775,35.0082857 L60.7139139,35.0082857 L60.7139139,35.814 Z M60.7139139,32.914 L60.7139139,34.3602857 L62.3337943,34.3602857 C62.5569904,34.3602857 62.8080861,34.4105714 63.0039522,34.6482857 C63.2208852,34.914 63.2413828,35.282 63.2413828,35.5842857 C63.2413828,35.8357143 63.2277177,36.2814286 62.9709282,36.5265714 C62.7682297,36.7208571 62.5028995,36.7277143 62.2797033,36.7277143 L60.4559856,36.7277143 C60.3352775,36.7277143 60.1849617,36.7208571 60.0562823,36.5917143 C59.9207703,36.4551429 59.9207703,36.2962857 59.9207703,36.1454286 L59.9207703,32.914 L60.7139139,32.914 Z" id="Fill-21" fill="#454545"></path>
                    <path d="M7.86840526,21.3519429 L7.86840526,27.9199429 C7.86840526,28.3502286 8.0227067,28.7108 8.32903206,29.0005143 C8.63535742,29.2902286 9.01741005,29.4365143 9.47234306,29.4365143 C9.88912775,29.4365143 10.254099,29.2902286 10.5729507,29.0005143 C10.8883861,28.7108 11.0466732,28.3502286 11.0466732,27.9199429 L11.0466732,20.5290857 L11.0466732,15.8930857 L11.0466732,12.4359429 C11.0466732,12.0056571 10.8883861,11.6445143 10.5729507,11.3536571 C10.254099,11.0650857 9.88912775,10.9182286 9.47234306,10.9182286 C9.01741005,10.9182286 8.63535742,11.0650857 8.32903206,11.3536571 C8.0227067,11.6445143 7.86840526,12.0056571 7.86840526,12.4359429 L7.86555837,18.6399429 L3.17900813,18.6348 L3.17900813,16.5456571 L3.17900813,15.8565143 L3.17900813,12.3993714 C3.17900813,11.9696571 3.01901292,11.6090857 2.70186938,11.3176571 C2.38529522,11.0296571 2.01804641,10.8845143 1.60410861,10.8845143 C1.14689809,10.8845143 0.766553589,11.0296571 0.46022823,11.3176571 C0.152764115,11.6090857 0.000170813397,11.9696571 0.000170813397,12.3993714 L0.000170813397,27.8845143 C0.000170813397,28.3159429 0.152764115,28.6748 0.46022823,28.9656571 C0.766553589,29.2559429 1.14689809,29.4016571 1.60410861,29.4016571 C2.01804641,29.4016571 2.38529522,29.2559429 2.70186938,28.9656571 C3.01901292,28.6748 3.17900813,28.3159429 3.17900813,27.8845143 L3.17900813,21.3519429" id="Fill-22" fill="#454545"></path>
                    <path d="M15.9297727,24.1689143 C15.9297727,24.7712 16.145567,25.2860571 16.5771555,25.7083429 C17.0093134,26.1323429 17.5251699,26.3437714 18.1258636,26.3437714 C18.7629976,26.3437714 19.2930885,26.1323429 19.7161364,25.7083429 C20.1369067,25.2860571 20.3498541,24.7712 20.3498541,24.1689143 L20.3498541,20.3832 C20.3498541,20.0814857 20.2883612,19.7992 20.1665144,19.5346286 C20.0458062,19.2712 19.8841029,19.0409143 19.6870981,18.8432 C19.4929402,18.6472 19.2560789,18.4889143 18.9833469,18.3763429 C18.712323,18.2637714 18.4253565,18.2066286 18.1258636,18.2066286 C17.505811,18.2066286 16.9859689,18.4186286 16.5640598,18.8432 C16.1393038,19.2649143 15.9297727,19.7797714 15.9297727,20.3832 L15.9297727,24.1689143 Z M12.8898636,20.3832 C12.8898636,19.6654857 13.0236675,18.9929143 13.2981077,18.3626286 C13.5691316,17.7329143 13.9460598,17.1774857 14.4231986,16.6946286 C14.9037536,16.2140571 15.4549115,15.8397714 16.0852129,15.5643429 C16.7138062,15.2894857 17.3930742,15.1569143 18.1258636,15.1569143 C18.8387249,15.1569143 19.5145766,15.2894857 20.1534187,15.5643429 C20.791122,15.8397714 21.3479737,16.2140571 21.82739,16.6946286 C22.3073756,17.1774857 22.6797488,17.7329143 22.9536196,18.3626286 C23.2246435,18.9929143 23.3618636,19.6654857 23.3618636,20.3832 L23.3618636,24.1689143 C23.3618636,24.8837714 23.2246435,25.5592 22.9536196,26.1906286 C22.6797488,26.8197714 22.3073756,27.3757714 21.82739,27.8552 C21.3479737,28.3352 20.7968158,28.7123429 20.1665144,28.9854857 C19.5367823,29.2586286 18.8586531,29.3934857 18.1258636,29.3934857 C17.412433,29.3934857 16.7354426,29.2586286 16.0983086,28.9854857 C15.4611746,28.7123429 14.9037536,28.3352 14.4231986,27.8552 C13.9460598,27.3757714 13.5691316,26.8197714 13.2981077,26.1906286 C13.0236675,25.5592 12.8898636,24.8837714 12.8898636,24.1689143 L12.8898636,20.3832 Z" id="Fill-23" fill="#454545"></path>
                    <path d="M25.203289,12.4721714 C25.203289,12.0396 25.3490498,11.6761714 25.6405713,11.3836 C25.9315234,11.0927429 26.2828297,10.9447429 26.6967675,10.9447429 C27.1067196,10.9447429 27.4654278,11.0927429 27.76549,11.3836 C28.0661215,11.6761714 28.2164373,12.0396 28.2164373,12.4721714 L28.2164373,15.2693143 L32.7475474,15.2693143 C33.1802746,15.2693143 33.542399,15.4138857 33.8327818,15.7087429 C34.1214565,16.0007429 34.2689254,16.3607429 34.2689254,16.7950286 C34.2689254,17.1898857 34.1214565,17.5401714 33.8327818,17.8396 C33.542399,18.1413143 33.1802746,18.2916 32.7475474,18.2916 L28.2164373,18.2916 L28.2164373,24.1687429 C28.2164373,24.4710286 28.2773608,24.7527429 28.3986383,25.0156 C28.5216239,25.2807429 28.6804804,25.5116 28.8774852,25.7081714 C29.0750593,25.9076 29.3085043,26.0618857 29.5800976,26.1744571 C29.853399,26.2876 30.1392268,26.3436 30.439289,26.3436 C30.8720163,26.3436 31.2751359,26.2258857 31.6497866,25.9898857 C32.0261455,25.7590286 32.30571,25.4213143 32.4947435,24.9881714 C32.6086191,24.7247429 32.7862651,24.5024571 33.0305282,24.3241714 C33.2736526,24.1458857 33.5549254,24.0544571 33.8749158,24.0544571 C34.3059349,24.0544571 34.6669206,24.2070286 34.9584421,24.5058857 C35.2488249,24.8093143 35.3945856,25.1693143 35.3945856,25.5801714 C35.3945856,25.7316 35.3473273,25.9196 35.2556574,26.1458857 C34.8775904,26.9938857 34.4192411,27.6373143 33.8749158,28.0830286 C33.3305904,28.5253143 32.8044852,28.8453143 32.2954612,29.0424571 C31.7921311,29.2396 31.3594038,29.3487429 31.0024038,29.3681714 C30.647112,29.3864571 30.4586478,29.3933143 30.439289,29.3933143 C29.7264278,29.3933143 29.0517148,29.2584571 28.4134421,28.9853143 C27.7746,28.7121714 27.2149014,28.3350286 26.7371933,27.8550286 C26.2589158,27.3756 25.8836957,26.8196 25.6109636,26.1904571 C25.3399397,25.5590286 25.203289,24.8841714 25.203289,24.1687429 L25.203289,12.4721714 Z" id="Fill-24" fill="#454545"></path>
                    <path d="M40.2779129,20.7509143 L44.6968555,20.7509143 L44.6968555,20.3834857 C44.6968555,20.0812 44.6365014,19.7989143 44.5146545,19.5343429 C44.393377,19.2714857 44.2316737,19.0406286 44.0352383,18.8434857 C43.8393722,18.6469143 43.6042191,18.4892 43.3314871,18.3766286 C43.0610325,18.2634857 42.7723579,18.2063429 42.4717263,18.2063429 C41.8539512,18.2063429 41.3318316,18.4183429 40.9093531,18.8434857 C40.4880134,19.2652 40.2779129,19.7800571 40.2779129,20.3834857 L40.2779129,20.7509143 Z M37.2374344,20.3834857 C37.2374344,19.6657714 37.3718077,18.9932 37.6445397,18.3629143 C37.9172718,17.7332 38.2913531,17.1772 38.7719081,16.6943429 C39.2501856,16.2137714 39.8013435,15.8394857 40.4322144,15.5640571 C41.0608077,15.2892 41.7395062,15.1566286 42.4717263,15.1566286 C43.1868651,15.1566286 43.8621474,15.2892 44.5015589,15.5640571 C45.1381234,15.8394857 45.6972526,16.2137714 46.1755301,16.6943429 C46.654377,17.1772 47.0284584,17.7332 47.3011904,18.3629143 C47.5733531,18.9932 47.7100038,19.6657714 47.7100038,20.3834857 L47.7100038,22.2754857 C47.7100038,22.7092 47.5648124,23.0703429 47.2715828,23.3646286 C46.9806306,23.6577714 46.6293244,23.8029143 46.2182335,23.8029143 L40.2779129,23.8029143 L40.2779129,24.1686286 C40.2779129,24.7714857 40.4908603,25.2857714 40.9247263,25.7080571 C41.3563148,26.1320571 41.8727407,26.3440571 42.4717263,26.3440571 C42.6983388,26.3440571 42.9568364,26.3160571 43.2489273,26.2589143 C43.5376019,26.2040571 43.8154584,26.0149143 44.0773722,25.6949143 C44.1912478,25.5634857 44.3301761,25.4263429 44.5015589,25.2857714 C44.6700947,25.1429143 44.8522957,25.0337714 45.0493005,24.9600571 C45.2468746,24.8840571 45.4575445,24.8520571 45.6824488,24.8612 C45.9084919,24.8709143 46.1328268,24.9600571 46.3588699,25.1286286 C46.6589321,25.3377714 46.8599225,25.6320571 46.9635493,26.0206286 C47.0660373,26.4057714 46.9686737,26.8149143 46.6680421,27.2474857 C46.2546737,27.7949143 45.7205971,28.2892 45.0623962,28.7314857 C44.4064727,29.1760571 43.5438651,29.3937714 42.4717263,29.3937714 C41.7594344,29.3937714 41.0835828,29.2589143 40.44531,28.9852 C39.8076067,28.7120571 39.2501856,28.3349143 38.7719081,27.8549143 C38.2913531,27.3754857 37.9172718,26.8200571 37.6445397,26.1903429 C37.3718077,25.5594857 37.2374344,24.8840571 37.2374344,24.1686286 L37.2374344,20.3834857 Z" id="Fill-25" fill="#454545"></path>
                    <path d="M49.5514292,12.5001143 C49.5514292,12.0681143 49.69719,11.7035429 49.9892809,11.4121143 C50.2779555,11.1195429 50.6309699,10.9732571 51.0443383,10.9732571 C51.4565679,10.9732571 51.8135679,11.1195429 52.1141995,11.4121143 C52.4114148,11.7035429 52.5640081,12.0681143 52.5640081,12.5001143 L52.5640081,27.7561143 C52.5640081,28.1909714 52.4188167,28.5515429 52.128434,28.8452571 C51.8374818,29.1366857 51.4759268,29.2824 51.0443383,29.2824 C50.64919,29.2824 50.3041469,29.1366857 50.0018072,28.8452571 C49.7028837,28.5515429 49.5514292,28.1909714 49.5514292,27.7561143 L49.5514292,12.5001143 Z" id="Fill-26" fill="#454545"></path>
                    <path d="M54.6591483,19.3363429 C54.6591483,18.7169143 54.7792871,18.1512 55.0241196,17.6420571 C55.2661053,17.1334857 55.6088708,16.6946286 56.049,16.3283429 C56.4919761,15.9592 57.0169426,15.6734857 57.6290239,15.4649143 C58.2388278,15.2603429 58.8987368,15.1569143 59.614445,15.1569143 C60.1952105,15.1757714 60.757756,15.2689143 61.3026507,15.4380571 C61.7712488,15.5877714 62.2489569,15.8157714 62.7380526,16.1174857 C63.2260096,16.4180571 63.6285598,16.8494857 63.949689,17.4163429 C64.1170861,17.6986286 64.2019234,17.9820571 64.2019234,18.2637714 C64.2019234,18.6786286 64.0618565,19.0329143 63.7805837,19.3226286 C63.4998804,19.6163429 63.1502823,19.7609143 62.7380526,19.7609143 C62.530799,19.7609143 62.3178517,19.7089143 62.0912392,19.6066286 C61.8663349,19.5020571 61.6790096,19.3483429 61.5269856,19.1386286 L61.5269856,19.1677714 C61.263933,18.8289143 60.9934785,18.5837714 60.7104976,18.4346286 C60.4303636,18.2837714 60.0631148,18.2066286 59.614445,18.2066286 C59.0319713,18.2066286 58.5628038,18.3152 58.2069426,18.5323429 C57.8488038,18.7489143 57.6711579,19.0169143 57.6711579,19.3363429 C57.6711579,19.7700571 57.8436794,20.0717714 58.1915694,20.2414857 C58.5394593,20.4106286 59.0114737,20.4963429 59.614445,20.4963429 C60.3261675,20.4963429 61.0008804,20.5906286 61.6408612,20.7786286 C62.2797033,20.9666286 62.836555,21.2506286 63.3165407,21.6272 C63.7936794,22.0032 64.1717464,22.4654857 64.4427703,23.0112 C64.7137943,23.5563429 64.8493062,24.1969143 64.8493062,24.9306286 C64.8493062,25.6837714 64.7086699,26.3386286 64.4268278,26.8957714 C64.145555,27.4517714 63.7657799,27.9123429 63.286933,28.2786286 C62.8097943,28.6477714 62.24611,28.9249143 61.5975885,29.1134857 C60.9513445,29.3014857 60.2703684,29.3934857 59.5569378,29.3934857 C59.4054833,29.3934857 59.1253493,29.3717714 58.7131196,29.3266286 C58.3003206,29.2774857 57.8396938,29.1506286 57.3340861,28.9432 C56.826201,28.7380571 56.3143301,28.4129143 55.7990431,27.9717714 C55.2809091,27.5266286 54.8550144,26.9186286 54.5173732,26.1460571 C54.4433541,25.9963429 54.404067,25.8066286 54.404067,25.5803429 C54.404067,25.1694857 54.5509665,24.8094857 54.8419187,24.5054857 C55.1311627,24.2066286 55.4932871,24.0540571 55.9243062,24.0540571 C56.2442967,24.0540571 56.5267081,24.1460571 56.7704019,24.3243429 C57.0123876,24.5026286 57.1934498,24.7249143 57.3050478,24.9883429 C57.493512,25.4214857 57.8112249,25.7592 58.2616029,25.9900571 C58.7131196,26.2260571 59.1617895,26.3437714 59.614445,26.3437714 C60.2145694,26.3437714 60.7332727,26.2460571 61.1762488,26.0472 C61.6186555,25.8506286 61.8372967,25.4786286 61.8372967,24.9306286 C61.8372967,24.3849143 61.6266268,24.0152 61.2024402,23.8152 C60.7811005,23.6180571 60.2504402,23.5186286 59.614445,23.5186286 C58.8987368,23.5186286 58.2388278,23.4477714 57.6290239,23.3083429 C57.0169426,23.1643429 56.4919761,22.9340571 56.049,22.6152 C55.6088708,22.2969143 55.2661053,21.8654857 55.0241196,21.3300571 C54.7792871,20.7929143 54.6591483,20.1277714 54.6591483,19.3363429" id="Fill-27" fill="#454545"></path>
                    <path d="M88.5944182,23.5168571 L91.9486239,23.5168571 L91.9486239,17.7242857 C91.3855091,18.6957143 90.8423225,19.6317143 90.3162172,20.5305714 C89.7923895,21.4294286 89.2190258,22.426 88.5944182,23.5168571" id="Fill-28" fill="#ECB435"></path>
                    <path d="M88.8351512,23.3768 L91.8095818,23.3768 L91.8095818,18.2425143 C91.3381368,19.0539429 90.8809263,19.8413714 90.4368115,20.6025143 C89.946577,21.4436571 89.4125005,22.3676571 88.8351512,23.3768 L88.8351512,23.3768 Z M92.0891464,23.6579429 L88.3545962,23.6579429 L88.4741656,23.4493714 C89.1004813,22.3556571 89.6744144,21.3602286 90.196534,20.4602286 C90.7220699,19.5608 91.2658258,18.6265143 91.8283713,17.6568 L92.0891464,17.2076571 L92.0891464,23.6579429 Z" id="Fill-29" fill="#ECB435"></path>
                    <path d="M95.2128679,26.7632 L95.2128679,27.9460571 C95.2128679,28.4112 95.0511646,28.7992 94.729466,29.1134857 C94.4060593,29.4260571 94.0245761,29.5837714 93.5810306,29.5837714 C93.11471,29.5837714 92.7292411,29.4260571 92.4183608,29.1134857 C92.1034947,28.7992 91.9486239,28.4112 91.9486239,27.9460571 L91.9486239,26.7632 L85.8135761,26.7632 C85.3922364,26.7632 85.0198632,26.5957714 84.6964565,26.2620571 C84.3741885,25.9294857 84.2130545,25.5620571 84.2130545,25.1546286 C84.2130545,24.8540571 84.2916287,24.5597714 84.4544708,24.2752 L92.1911789,10.7214857 L92.1615713,10.7214857 C92.3022077,10.4580571 92.5037675,10.2666286 92.7645426,10.1443429 C93.0264565,10.0243429 93.2883703,9.96262857 93.5508536,9.96262857 C94.0137579,9.96262857 94.4060593,10.1300571 94.729466,10.4626286 C95.0511646,10.7974857 95.2128679,11.1654857 95.2128679,11.5700571 L95.2128679,23.5483429 C95.5937818,23.6283429 95.9126335,23.8169143 96.1648679,24.1094857 C96.4148249,24.4009143 96.5412268,24.7512 96.5412268,25.1546286 C96.5412268,25.5620571 96.4148249,25.9072 96.1648679,26.2014857 C95.9126335,26.4940571 95.5937818,26.6814857 95.2128679,26.7632 M83.9710689,29.1134857 C83.6476622,29.4260571 83.2661789,29.5837714 82.8232029,29.5837714 L73.4575043,29.5837714 C72.9917531,29.5837714 72.6045761,29.4260571 72.2931263,29.1134857 C71.9788297,28.7992 71.8250976,28.4112 71.8250976,27.9460571 C71.8250976,27.5409143 71.9549158,27.1877714 72.2179684,26.8837714 L80.2866239,16.8757714 C80.4671167,16.6946286 80.6174325,16.4266286 80.73871,16.0717714 C80.8599876,15.7174857 80.9197722,15.3894857 80.9197722,15.0872 L80.9197722,15.0592 C80.9197722,14.2489143 80.6379301,13.5660571 80.0736766,13.0106286 C79.5099923,12.4546286 78.8142124,12.1752 77.9874756,12.1752 C77.605423,12.1752 77.2376048,12.2460571 76.8857292,12.3883429 C76.5321455,12.5306286 76.2195569,12.7294857 75.9502411,12.9809143 C75.6775091,13.2317714 75.4611455,13.5317714 75.2988727,13.8734857 C75.1377388,14.2192 75.0591646,14.5826286 75.0591646,14.9660571 C75.0591646,15.4323429 74.9003081,15.8209143 74.588289,16.1346286 C74.2774086,16.4466286 73.8976335,16.6043429 73.4575043,16.6043429 C72.9917531,16.6043429 72.6045761,16.4466286 72.2931263,16.1346286 C71.9788297,15.8209143 71.8250976,15.4323429 71.8250976,14.9660571 C71.8250976,14.1380571 71.9907866,13.3546286 72.3238727,12.6169143 C72.6552507,11.8780571 73.1039206,11.2369143 73.6687435,10.6906286 C74.231289,10.1443429 74.8860737,9.71062857 75.6313895,9.38662857 C76.3755665,9.0632 77.1635856,8.90205714 77.9874756,8.90205714 C78.8352794,8.90205714 79.6358249,9.0632 80.3913895,9.38662857 C81.1469541,9.71062857 81.8011694,10.1546286 82.3546048,10.7214857 C82.9091789,11.2872 83.3470306,11.9449143 83.6710067,12.6917714 C83.9921359,13.4403429 84.1538392,14.2403429 84.1538392,15.0872 C84.1538392,15.8346286 84.0308536,16.5420571 83.7917148,17.2089143 C83.5480211,17.8774857 83.2058249,18.4752 82.7628488,19.0014857 L77.0519876,26.3369143 L82.8232029,26.3369143 C83.2661789,26.3369143 83.6476622,26.4940571 83.9710689,26.8089143 C84.2916287,27.1214857 84.4544708,27.5014857 84.4544708,27.9460571 C84.4544708,28.4112 84.2916287,28.7992 83.9710689,29.1134857 M80.5656191,0.710057143 C74.2119301,0.710057143 68.5733799,3.78662857 65.0460833,8.53462857 C68.5426335,11.3003429 70.7882603,15.5849143 70.7882603,20.3992 C70.7882603,25.0906286 68.6553703,29.2860571 65.3102746,32.0546286 C68.8489589,36.6083429 74.3650928,39.5414857 80.5656191,39.5414857 C91.2517053,39.5414857 99.909667,30.8483429 99.909667,20.1260571 C99.909667,9.40262857 91.2517053,0.710057143 80.5656191,0.710057143" id="Fill-30" fill="#ECB435"></path>
                    <path d="M77.9875325,12.0361143 C78.8472933,12.0361143 79.5823603,12.3315429 80.1716665,12.9115429 C80.7609727,13.4915429 81.0587574,14.2138286 81.0587574,15.0589714 C81.0587574,15.4018286 80.9955565,15.7498286 80.8697239,16.1178286 C80.7404751,16.4984 80.5804799,16.7772571 80.3834751,16.9749714 L72.3267766,26.9744 C72.0802359,27.2526857 71.962944,27.5715429 71.962944,27.9458286 C71.962944,28.3778286 72.1047191,28.7264 72.3905469,29.0149714 C72.6803603,29.3035429 73.0282502,29.4441143 73.4575612,29.4441143 L82.8232598,29.4441143 C83.2326426,29.4441143 83.5748388,29.3035429 83.8731928,29.0121143 C84.1715469,28.7229714 84.3161689,28.3761143 84.3161689,27.9458286 C84.3161689,27.5372571 84.1715469,27.1966857 83.8731928,26.9086857 C83.5748388,26.6184 83.2326426,26.4778286 82.8232598,26.4778286 L76.7656474,26.4778286 L82.651877,18.9155429 C83.0851737,18.4024 83.4211067,17.8126857 83.6619536,17.1606857 C83.8959679,16.5109714 84.0132598,15.8126857 84.0132598,15.0869714 C84.0132598,14.2624 83.8555421,13.4761143 83.5423842,12.7481143 C83.2275182,12.0184 82.7947909,11.3704 82.2550206,10.8195429 C81.7180971,10.2681143 81.0712837,9.82982857 80.3362167,9.5144 C78.8843029,8.89497143 77.1533938,8.8784 75.6861067,9.51268571 C74.9618579,9.82982857 74.3139057,10.2601143 73.7655947,10.7909714 C73.2138675,11.3235429 72.7731689,11.9555429 72.4497622,12.6744 C72.1263555,13.3904 71.962944,14.1606857 71.962944,14.9664 C71.962944,15.3984 72.1047191,15.7481143 72.3905469,16.0355429 C72.6786522,16.3235429 73.0282502,16.4635429 73.4575612,16.4635429 C73.8646665,16.4635429 74.2034464,16.3235429 74.4904129,16.0355429 C74.7773794,15.7481143 74.9197239,15.3966857 74.9197239,14.9664 C74.9197239,14.5635429 75.0039919,14.1772571 75.1730971,13.8155429 C75.3433411,13.4549714 75.5722311,13.1406857 75.8540732,12.8784 C76.1381928,12.6144 76.4678627,12.4058286 76.8339727,12.2589714 C77.2029297,12.1109714 77.5901067,12.0361143 77.9875325,12.0361143 M82.8232598,29.7241143 L73.4575612,29.7241143 C72.9582167,29.7241143 72.532322,29.5515429 72.1941115,29.2138286 C71.8553316,28.8738286 71.6862263,28.4481143 71.6862263,27.9458286 C71.6862263,27.5098286 71.8297096,27.1201143 72.1126904,26.7915429 L80.1773603,16.7892571 C80.35159,16.6121143 80.4933651,16.3606857 80.6072407,16.0269714 C80.7228244,15.6875429 80.7803316,15.3726857 80.7803316,15.0869714 C80.7803316,14.2904 80.5115852,13.6366857 79.9769392,13.1092571 C79.4417239,12.5829714 78.771566,12.3144 77.9875325,12.3144 C77.6265469,12.3144 77.2729632,12.3835429 76.9370301,12.5189714 C76.6005278,12.6526857 76.3004656,12.8424 76.0436761,13.0835429 C75.7868866,13.3212571 75.5779249,13.6086857 75.4247622,13.9344 C75.2710301,14.2624 75.1958722,14.6001143 75.1958722,14.9664 C75.1958722,15.4681143 75.0256282,15.8944 74.6885565,16.2326857 C74.3497766,16.5709714 73.9364081,16.7429714 73.4575612,16.7429714 C72.9548005,16.7429714 72.5311833,16.5709714 72.1941115,16.2326857 C71.8553316,15.8944 71.6862263,15.4681143 71.6862263,14.9664 C71.6862263,14.1218286 71.8570397,13.3104 72.196389,12.5595429 C72.5328914,11.8098286 72.9952263,11.1469714 73.5702981,10.5909714 C74.1436617,10.0349714 74.8172359,9.58697143 75.5745086,9.25725714 C76.3340589,8.92982857 77.1459919,8.7624 77.9875325,8.7624 C78.8495708,8.7624 79.6774464,8.92982857 80.4449679,9.25725714 C81.2136282,9.58868571 81.8900493,10.0475429 82.4548722,10.6218286 C83.0179871,11.1989714 83.4689344,11.8749714 83.7974656,12.6378286 C84.1259967,13.3989714 84.2911163,14.2229714 84.2911163,15.0869714 C84.2911163,15.8458286 84.1681306,16.5755429 83.9210206,17.2566857 C83.6727718,17.9401143 83.3186187,18.5572571 82.8699488,19.0909714 L77.3350254,26.1984 L82.8232598,26.1984 C83.3015373,26.1984 83.7194608,26.3692571 84.0679201,26.7086857 C84.4163794,27.0492571 84.5945947,27.4635429 84.5945947,27.9458286 C84.5945947,28.4481143 84.4163794,28.8738286 84.0679201,29.2138286 C83.7194608,29.5515429 83.3015373,29.7241143 82.8232598,29.7241143 M92.3774225,10.6361143 L92.3113746,10.7892571 L84.5763746,24.3452571 C84.4260589,24.6086857 84.3531785,24.8726857 84.3531785,25.1544 C84.3531785,25.5275429 84.4989392,25.8555429 84.7950158,26.1646857 C85.0933699,26.4726857 85.4275947,26.6241143 85.813633,26.6241143 L92.0893172,26.6241143 L92.0893172,27.9458286 C92.0893172,28.3778286 92.2276761,28.7264 92.5157813,29.0149714 C92.8033172,29.3035429 93.1517766,29.4441143 93.5810876,29.4441143 C93.9904703,29.4441143 94.3338053,29.3035429 94.6338675,29.0121143 C94.9259584,28.7286857 95.0757048,28.3698286 95.0757048,27.9458286 L95.0757048,26.6504 L95.1838866,26.6252571 C95.5346234,26.5544 95.8272837,26.3778286 96.0590206,26.1092571 C96.290188,25.8378286 96.4023555,25.5275429 96.4023555,25.1544 C96.4023555,24.7875429 96.2879105,24.4669714 96.0590206,24.2001143 C95.8272837,23.9315429 95.5334847,23.7584 95.1838866,23.6846857 L95.0757048,23.6612571 L95.0757048,11.5704 C95.0757048,11.2006857 94.9288053,10.8709714 94.6310206,10.5595429 C94.3315278,10.2521143 93.9785134,10.1024 93.5509105,10.1024 C93.3094943,10.1024 93.0652311,10.1589714 92.8215373,10.2721143 C92.6381976,10.3555429 92.4935756,10.4766857 92.3774225,10.6361143 M93.5810876,29.7241143 C93.0800349,29.7241143 92.6569871,29.5515429 92.3193459,29.2138286 C91.9822742,28.8738286 91.8091833,28.4481143 91.8091833,27.9458286 L91.8091833,26.9046857 L85.813633,26.9046857 C85.354145,26.9046857 84.9447622,26.7184 84.5951641,26.3578286 C84.2489823,26.0001143 84.0736139,25.5972571 84.0736139,25.1544 C84.0736139,24.8264 84.1630062,24.5075429 84.3338196,24.2069714 L91.971456,10.8235429 L92.0397813,10.6549714 C92.1935134,10.3658286 92.4184177,10.1515429 92.706523,10.0184 C92.9866569,9.88868571 93.2696378,9.82468571 93.5509105,9.82468571 C94.050255,9.82468571 94.4812742,10.0052571 94.8291641,10.3646857 C95.1759153,10.7264 95.3507144,11.1309714 95.3507144,11.5704 L95.3507144,23.4366857 C95.7134081,23.5361143 96.0225804,23.7309714 96.2685517,24.0178286 C96.5412837,24.3366857 96.6813507,24.7201143 96.6813507,25.1544 C96.6813507,25.5892571 96.5412837,25.9715429 96.2685517,26.2921143 C96.0225804,26.5795429 95.7151163,26.7744 95.3507144,26.8726857 L95.3507144,27.9458286 C95.3507144,28.4481143 95.1753459,28.8738286 94.827456,29.2138286 C94.4784273,29.5515429 94.0582263,29.7241143 93.5810876,29.7241143 M65.5016426,32.0755429 C69.1735612,36.7332571 74.6566713,39.3995429 80.5656761,39.3995429 C91.1566761,39.3995429 99.7725038,30.7544 99.7725038,20.1258286 C99.7725038,9.49668571 91.1566761,0.850971429 80.5656761,0.850971429 C74.4852885,0.850971429 68.9059536,3.64068571 65.2374512,8.51154286 C68.8564177,11.4235429 70.9289536,15.7481143 70.9289536,20.3995429 C70.9289536,24.9206857 68.9526426,29.1692571 65.5016426,32.0755429 M80.5656761,39.6789714 C74.5234368,39.6789714 68.9247431,36.9321143 65.2004416,32.1406857 L65.1173124,32.0344 L65.222078,31.9469714 C68.673078,29.0904 70.6505278,24.8812571 70.6505278,20.3995429 C70.6505278,15.7898286 68.575145,11.5035429 64.9595947,8.64525714 L64.8542598,8.56182857 L64.9339727,8.45211429 C68.6542885,3.4424 74.3514847,0.571542857 80.5656761,0.571542857 C91.3098388,0.571542857 100.048652,9.34354286 100.048652,20.1258286 C100.048652,30.9081143 91.3098388,39.6789714 80.5656761,39.6789714" id="Fill-31" fill="#ECB435"></path>
                    <path d="M99.8763014,28.8184571 C99.8763014,28.5761714 99.9628469,28.3681714 100.13366,28.1950286 C100.305612,28.0190286 100.520268,27.9356 100.77478,27.9356 C101.008794,27.9356 101.213201,28.0190286 101.390278,28.1950286 C101.566785,28.3681714 101.656177,28.5761714 101.656177,28.8184571 C101.656177,29.0773143 101.572478,29.2904571 101.399388,29.4641714 C101.226866,29.6356 101.018474,29.7236 100.77478,29.7236 C100.531656,29.7236 100.319278,29.6356 100.14334,29.4641714 C99.9656938,29.2904571 99.8763014,29.0773143 99.8763014,28.8184571" id="Fill-32" fill="#454545"></path>
                    <path d="M100.774837,28.0740571 C100.556765,28.0740571 100.37798,28.1454857 100.23222,28.2929143 C100.085889,28.4403429 100.015287,28.6117714 100.015287,28.8186286 C100.015287,29.0380571 100.087598,29.2169143 100.240191,29.3637714 C100.389937,29.5117714 100.567583,29.5820571 100.774837,29.5820571 C100.98209,29.5820571 101.155181,29.5134857 101.298095,29.3654857 C101.447272,29.2180571 101.517875,29.0409143 101.517875,28.8186286 C101.517875,28.6117714 101.443856,28.4403429 101.29411,28.2946286 C101.142655,28.1454857 100.974119,28.0740571 100.774837,28.0740571 M100.774837,29.8620571 C100.495272,29.8620571 100.248732,29.7637714 100.044894,29.5632 C99.8410569,29.3637714 99.7374301,29.1134857 99.7374301,28.8186286 C99.7374301,28.5397714 99.8376407,28.2946286 100.036354,28.0946286 C100.233358,27.8957714 100.482746,27.7952 100.774837,27.7952 C101.044722,27.7952 101.285,27.8957714 101.487698,28.0934857 C101.691535,28.2929143 101.795162,28.5369143 101.795162,28.8186286 C101.795162,29.1152 101.695521,29.3637714 101.496808,29.5620571 C101.298095,29.7637714 101.057818,29.8620571 100.774837,29.8620571" id="Fill-33" fill="#A0A9AF"></path>
                    <path d="M102.782122,20.8709143 C102.782122,20.5652 102.885749,20.3086286 103.091294,20.1006286 C103.297409,19.8954857 103.55249,19.7903429 103.858816,19.7903429 C104.137242,19.7903429 104.383782,19.8954857 104.59616,20.1006286 C104.808538,20.3086286 104.914443,20.5652 104.914443,20.8709143 L104.914443,26.0897714 C104.914443,26.5189143 105.067605,26.8789143 105.373361,27.1806286 C105.679117,27.4783429 106.05206,27.6303429 106.488203,27.6303429 C106.70172,27.6303429 106.903849,27.5892 107.09573,27.5109143 C107.287041,27.4292 107.456146,27.3212 107.596782,27.1806286 C107.734002,27.0377714 107.84617,26.8777714 107.932715,26.6897714 C108.018691,26.5034857 108.061964,26.3034857 108.061964,26.0897714 L108.061964,20.8709143 C108.061964,20.5652 108.16616,20.3086286 108.373414,20.1006286 C108.577821,19.8954857 108.826639,19.7903429 109.119868,19.7903429 C109.411959,19.7903429 109.664763,19.8954857 109.876002,20.1006286 C110.087242,20.3086286 110.193715,20.5652 110.193715,20.8709143 L110.193715,26.0897714 C110.193715,26.5972 110.096921,27.0714857 109.905041,27.5183429 C109.71316,27.9680571 109.446691,28.3600571 109.10905,28.6994857 C108.769701,29.0406286 108.375122,29.3063429 107.921897,29.4994857 C107.47038,29.6926286 106.992103,29.7880571 106.488203,29.7880571 C105.971778,29.7880571 105.487806,29.6926286 105.044261,29.4994857 C104.599007,29.3063429 104.206706,29.0406286 103.867926,28.6994857 C103.532562,28.3600571 103.264385,27.9680571 103.071935,27.5183429 C102.878916,27.0714857 102.782122,26.5972 102.782122,26.0897714 L102.782122,20.8709143 Z" id="Fill-34" fill="#454545"></path>
                    <path d="M113.502997,26.0899429 C113.502997,26.5190857 113.65616,26.8790857 113.962485,27.1808 C114.264825,27.4785143 114.632074,27.6305143 115.05683,27.6305143 C115.481016,27.6305143 115.842571,27.4888 116.142064,27.2099429 C116.442696,26.9276571 116.60383,26.5825143 116.63116,26.1710857 L116.63116,23.4116571 C116.63116,23.1985143 116.58561,22.9979429 116.501342,22.8116571 C116.414796,22.6236571 116.299782,22.4602286 116.162562,22.3213714 C116.022495,22.1813714 115.856806,22.0710857 115.664925,21.9916571 C115.471906,21.9099429 115.269208,21.8699429 115.05683,21.8699429 C114.618978,21.8699429 114.250021,22.0202286 113.950528,22.3213714 C113.652744,22.6202286 113.502997,22.9842286 113.502997,23.4116571 L113.502997,26.0899429 Z M111.350179,23.4116571 C111.350179,22.9042286 111.446973,22.4282286 111.6417,21.9796571 C111.831873,21.5339429 112.097203,21.1402286 112.437122,20.8002286 C112.775901,20.4602286 113.165925,20.1950857 113.61061,20.0030857 C114.058141,19.8082286 114.536988,19.7099429 115.05683,19.7099429 C115.562437,19.7099429 116.039576,19.8082286 116.491662,20.0030857 C116.940901,20.1950857 117.338327,20.4602286 117.678815,20.8002286 C118.01361,21.1402286 118.281217,21.5339429 118.473667,21.9796571 C118.665547,22.4282286 118.762342,22.9042286 118.762342,23.4116571 L118.762342,28.6288 C118.762342,28.9356571 118.655868,29.1916571 118.442921,29.3990857 C118.232251,29.6065143 117.98571,29.7093714 117.707284,29.7093714 C117.559815,29.7093714 117.410069,29.6705143 117.258614,29.5882286 C117.103744,29.5082286 116.977342,29.4236571 116.866882,29.3293714 C116.298074,29.6356571 115.693394,29.7882286 115.05683,29.7882286 C114.551791,29.7882286 114.074653,29.6922286 113.624275,29.4996571 C113.17048,29.3059429 112.775901,29.0408 112.437122,28.6990857 C112.097203,28.3602286 111.831873,27.9682286 111.6417,27.5185143 C111.446973,27.0710857 111.350179,26.5973714 111.350179,26.0899429 L111.350179,23.4116571 Z" id="Fill-35" fill="#454545"></path>
                </g>
            </g>
        </g>
    </g>
</svg>