<svg width="149" height="28" viewBox="0 0 149 28" xmlns="http://www.w3.org/2000/svg" xmlns:xlink="http://www.w3.org/1999/xlink"><title>39940219-5D3A-48C6-A3F8-8ECD324CBB2C</title><defs><path id="a" d="M10.464 24.348H.126V.133h10.338z"/><path id="c" d="M14.138.02v11.734H.026V.02h14.112z"/></defs><g fill="none" fill-rule="evenodd"><path d="M19.56 4.362c1.37-.06 1.965-2.255 1.488-2.255-.446 0-.952.89-1.488 2.255m5.24 16.233c-1.816 0-3.87-1.217-4.139-1.9-.416-1.009-.208-4.214.269-7.003-2.144 3.739-3.632 8.903-3.99 8.903-.952 0-3.126-1.069-3.424-1.722-.476-1.513 1.132-10.327 2.025-13.383C9.646 4.837.983 4.184.924 6.44c-.03.474-.953.623-.923.088.06-3.946 1.31-4.54 4.049-4.54 3.542 0 8.484 1.01 12.146 1.751C17 1.543 18.012 0 19.203 0c2.59 0 4.019 2.463 4.019 4.184 0 1.514-1.519 1.9-2.352 1.9-.149 0-.834-.06-1.816-.179-1.34 5.253-1.995 8.844-1.995 10.832 0-.742 4.823-9.852 5.448-9.852.745-.208 3.186.415 3.186.8 0 .12-1.816 5.075-1.816 9.052 0 .979.119 1.602.536 1.602 1.16 0 3.691-7.953 4.108-7.953 1.22 0-1.518 10.209-3.721 10.209" fill="#FFF"/><path d="M29.368 14.969c.8 0 2.81-1.594 2.81-3.187 0-.386-.097-.7-.315-.7-.824 0-2.06 1.545-2.495 3.887m1.235 5.746c-1.986 0-3.44-1.52-3.706-2.052-1.622-3.211.751-9.464 3.803-9.464 1.817 0 3.028 1.907 3.028 3.452 0 2.076-1.454 3.235-3.61 3.235-.241 0-.556-.072-.847-.193a6.57 6.57 0 0 0-.073.99c0 1.328.654 2.342 1.357 2.342 2.713 0 3.657-6.736 4.723-6.736.557 0-.872 8.426-4.675 8.426" fill="#FFF"/><path d="M36.513 17.456c0 .797.097 1.303.436 1.303.945 0 3.004-6.47 3.343-6.47.993 0-1.236 8.306-3.028 8.306-1.478 0-3.149-.99-3.367-1.546-.823-2.004 1.817-14.22 2.761-15.162.34-.338 3.295.604 3.028.845-1.041 1.038-3.173 9.488-3.173 12.724" fill="#FFF"/><path d="M45.233 12.289c0-.773-.073-1.304-.436-1.304-.485 0-2.108 3.429-3.004 7.46.097.097.533.218.775.218.703 0 2.665-2.897 2.665-6.374m-.703 8.257c-.993 0-2.204-.58-2.955-1.086-.8 3.428-.8 6.736-1.017 6.736-.751 0-1.89-.87-2.108-1.424-.63-1.473 1.357-14.342 2.301-15.284.34-.338 2.69.266 2.69.604 0 .048-.146.748-.388 1.787.654-1.57 1.356-2.705 2.107-2.705 1.986 0 2.495.966 2.689 1.521 1.162 3.043-1.454 9.851-3.319 9.851M54.752 12.506a29.421 29.421 0 0 1 3.221-.169c.582-2.535 1.332-4.9 1.769-5.336.338-.338 3.076.604 2.81.846-.413.41-1.067 2.317-1.672 4.563.17.024.29.048.315.048.193.193.678 1.666.048 2.294h-.969c-.605 2.51-1.066 4.925-1.066 5.915 0 .772-1.889-.87-2.107-1.4-.242-.556-.048-2.367.315-4.395-3.44.218-5.595.652-5.74.821-.218 0-.848-1.931-.606-2.173.581-.58 5.91-8.281 5.91-9.392 0-1.207 1.89.725 1.89 1.135 0 1.4-2.423 4.974-4.118 7.243M88.202 12.265c-.34 0-2.398 6.495-3.343 6.495-.339 0-.436-.532-.436-1.304 0-3.356 1.308-6.133 1.308-6.857 0-1.304-2.18-1.425-3.851-1.57.121-1.303-.218-1.834-.654-1.834-.92 0-1.38.941-1.38 1.714 0 .386.145.724.435.917-.339 1.546-.63 3.863-1.38 4.805.048-.314.072-.652.072-.966 0-2.39-1.356-4.466-3.73-4.466-2.113 0-4.001 2.86-4.46 5.73.498-.244.986-.395 1.433-.395.58.014 1.101.278 1.604.863.418-2.094 1.363-4.315 2.247-4.315.823 0 .775 2.318.266 4.466h-.436c-.848 0-.969 1.546-.024 1.546-.412 1.11-.945 1.931-1.502 1.931-.647 0-.842-.955-.751-2.202a1.196 1.196 0 0 0-.532-.116c-.613-.012-1.405.285-2.298.734.085.435.218.847.408 1.222.242.531 1.72 2.052 3.415 2.052 1.647 0 3.1-1.835 3.827-4.032 2.084-.893 2.423-3.477 3.004-5.625.097-.338.121-.483.194-.797.508.072.993.193 1.186.41.267.266-1.937 6.157-1.017 8.378.218.556 1.865 1.545 3.367 1.545 1.792 0 4.021-8.33 3.028-8.33" fill="#FFF"/><g transform="translate(63.356 3.61)"><mask id="b" fill="#fff"><use xlink:href="#a"/></mask><path d="M2.66 23.02c-.63-.12-.267-6.012.677-6.012.727 0 .291 6.109-.678 6.012m6.2-12.096c-.446 0-.933.15-1.431.394-1.582.772-3.273 2.485-4.14 3.348.51-3.863 2.786-12.313 4.288-13.593.267-.241-2.664-1.207-3.003-.87C2.538 2.28.237 14.45.14 18.724c-.048 1.568.024 2.969.315 4.007.17.628 1.405 1.618 2.616 1.618 1.647 0 2.64-6.857 1.623-8.064-.46-.556-.29-.725-.097-.845.994-.585 1.964-1.17 2.837-1.609.893-.449 1.686-.745 2.298-.733.199 0 .376.039.532.115.033-.448.102-.933.2-1.426-.502-.585-1.024-.848-1.604-.862" fill="#FFF" mask="url(#b)"/></g><path d="M89.921 14.969c.8 0 2.81-1.594 2.81-3.187 0-.386-.097-.7-.315-.7-.823 0-2.059 1.545-2.495 3.887m1.236 5.746c-1.986 0-3.44-1.52-3.706-2.052-1.623-3.211.75-9.464 3.803-9.464 1.816 0 3.027 1.907 3.027 3.452 0 2.076-1.453 3.235-3.609 3.235-.242 0-.557-.072-.847-.193a6.57 6.57 0 0 0-.073.99c0 1.328.654 2.342 1.356 2.342 2.713 0 3.658-6.736 4.724-6.736.557 0-.872 8.426-4.675 8.426" fill="#FFF"/><path d="M96.776 7.291c0-1.183.702-3.066.993-3.356.29-.29 2.543 0 2.543.87 0 .41-1.308 3.597-1.501 3.597-.436 0-2.035-.242-2.035-1.11m1.066 13.303c-1.478 0-3.15-.99-3.367-1.546-.63-1.473.63-8.595 1.55-9.537.34-.338 2.713.242 2.713.58 0 .096-1.647 4.128-1.647 7.364 0 .797.097 1.303.436 1.303.944 0 3.003-6.47 3.342-6.47.993 0-1.235 8.306-3.027 8.306" fill="#FFF"/><path d="M104.09 23.081c-.363.025-.726.049-1.065.049.097.265.242.483.46.483.218 0 .436-.218.606-.532m1.768-10.02l.29-1.351c-.12-.58-.363-1.111-.702-1.111-1.187 0-2.955 3.863-2.955 6.881 0 .797.097 1.304.436 1.304.606 0 1.938-3.308 2.93-5.722m-5.23 8.909c.726.024 2.13-.217 3.947-.435.218-1.014.412-2.294.533-3.911-.678 1.666-1.429 2.994-2.01 2.994-1.987 0-3.028-.99-3.222-1.546-.194-.506-.29-1.134-.29-1.81 0-3.332 1.404-8.016 4.602-8.016 1.162 0 1.865.241 2.422.845.097-.266.218-.459.339-.58.339-.337 2.713.242 2.713.58 0 .096-1.09 4.467-2.035 11.13a38.447 38.447 0 0 1 3.755-.048c2.228.097 3.221.555 3.221 3.766 0 .435-.75.29-.75-.096 0-1.4-3.27-1.763-6.59-1.81-.484 1.689-1.356 2.848-2.785 2.848-1.09 0-2.47-1.835-2.591-2.68-.703.024-1.187.072-1.308.072-.679-.024-1.914-.24-1.89-1.376.024-.652.024-.627.073-.603.097 0 .412.627 1.865.676" fill="#FFF"/><path d="M118.72 20.595c-1.477 0-3.124-.99-3.342-1.546-.363-.82-.17-3.428.218-5.698-1.744 3.067-2.98 7.244-3.27 7.244-.775 0-2.543-.87-2.761-1.4-.63-1.498.8-8.741 1.72-9.683.339-.338 2.713.242 2.713.58 0 .096-1.55 4.128-1.55 7.364 0-.604 3.947-8.016 4.432-8.016.581-.169 2.592.338 2.592.652 0 .096-1.478 4.128-1.478 7.364 0 .797.073 1.303.436 1.303.896 0 2.98-6.47 3.318-6.47.994 0-1.235 8.306-3.027 8.306" fill="#FFF"/><path d="M123.468 14.969c.8 0 2.81-1.594 2.81-3.187 0-.386-.097-.7-.315-.7-.824 0-2.06 1.545-2.495 3.887m1.235 5.746c-1.986 0-3.44-1.52-3.706-2.052-1.622-3.211.751-9.464 3.803-9.464 1.817 0 3.028 1.907 3.028 3.452 0 2.076-1.453 3.235-3.609 3.235-.242 0-.557-.072-.848-.193a6.57 6.57 0 0 0-.072.99c0 1.328.653 2.342 1.356 2.342 2.713 0 3.657-6.736 4.723-6.736.557 0-.872 8.426-4.675 8.426" fill="#FFF"/><path d="M133.956 20.595c-1.502 0-3.15-.99-3.367-1.546-.92-2.22 1.283-8.112 1.017-8.378-.194-.217-.581-.338-1.09-.41-.072.314-.097.459-.194.797-.605 2.342-1.501 4.804-1.792 5.697h-1.405c.824-1.834 1.599-4.852 2.035-6.929-.29-.193-.436-.53-.436-.917 0-.773.46-1.714 1.38-1.714.436 0 .776.53.655 1.835 1.67.144 3.754.265 3.754 1.569 0 .724-1.308 3.5-1.308 6.857 0 .772.097 1.303.436 1.303.944 0 3.003-6.494 3.342-6.494.993 0-1.235 8.33-3.027 8.33" fill="#FFF"/><g transform="translate(134.802 8.937)"><mask id="d" fill="#fff"><use xlink:href="#c"/></mask><path d="M3.853 8.326c-.679.41-1.333.917-2.205 1.062.218.314.557.531 1.115.531.726 0 1.017-.676 1.09-1.593M3.828 6.78c-.072-1.328-.29-2.704-.17-3.429C2.788 4.97 2.134 6.757 1.6 8.11c.8-.266 1.502-.797 2.228-1.328M6.88 1.155s-.533 1.135-.508 3.79c.944-.675 1.986-1.4 3.1-2.051 1.914-1.135 3.197-1.063 4.602 1.834.267.46-.363.894-.702.242-.703-1.449-4.142.17-6.928 1.762.097 2.705-.412 5.022-2.737 5.022-2.616 0-3.681-1.641-3.681-3.114 0-.555.266-.942.411-1.038C1.043 5.96 2.4 1.324 4.58.02 5.185.02 6.88.6 6.88 1.155" fill="#FFF" mask="url(#d)"/></g></g></svg>