<?xml version="1.0" encoding="UTF-8"?>
<svg width="58px" height="58px" viewBox="0 0 58 58" version="1.1" xmlns="http://www.w3.org/2000/svg" xmlns:xlink="http://www.w3.org/1999/xlink">
    <!-- Generator: Sketch 47.1 (45422) - http://www.bohemiancoding.com/sketch -->
    <title>Process</title>
    <desc>Created with Sketch.</desc>
    <defs></defs>
    <g id="Prototype-Minimalism" stroke="none" stroke-width="1" fill="none" fill-rule="evenodd">
        <g id="About-Us-What-we-do-Min" transform="translate(-1272.000000, -477.000000)" fill-rule="nonzero" fill="#FFFFFF">
            <g id="Group-3" transform="translate(1272.000000, 168.000000)">
                <g id="Group-10" transform="translate(0.000000, 309.000000)">
                    <g id="Group-5">
                        <path d="M54.7846154,56.0701923 C55.4931447,56.0701923 56.0701923,55.4931447 56.0701923,54.7846154 L56.0701923,43.0923077 C56.0701923,42.3837784 55.4931447,41.8067308 54.7846154,41.8067308 L1.92980769,41.8067308 L1.92980769,54.7846154 C1.92980769,55.4931447 2.50685535,56.0701923 3.21538462,56.0701923 L3.7625,56.0701923 L3.7625,52.3778846 L5.12980769,52.3778846 L5.12980769,56.0701923 L7.08557692,56.0701923 L7.08557692,54.3471154 L8.45288462,54.3471154 L8.45288462,56.0701923 L19.1265615,56.0701923 L19.1265615,52.3778846 L20.4938692,52.3778846 L20.4938692,56.0701923 L22.3265615,56.0701923 L22.3265615,54.3471154 L23.6938692,54.3471154 L23.6938692,56.0701923 L34.3676692,56.0701923 L34.3676692,52.3778846 L35.7349769,52.3778846 L35.7349769,56.0701923 L37.6907462,56.0701923 L37.6907462,54.3471154 L39.0580538,54.3471154 L39.0580538,56.0701923 L49.6701923,56.0701923 L49.6701923,52.3778846 L51.0375,52.3778846 L51.0375,56.0701923 L52.9932692,56.0701923 L52.9932692,54.3471154 L54.3605769,54.3471154 L54.3605769,56.0701923 L54.7846154,56.0701923 Z M3.21538462,56.9451923 C2.02360619,56.9451923 1.05480769,55.9763938 1.05480769,54.7846154 L1.05480769,40.9317308 L54.7846154,40.9317308 C55.9763938,40.9317308 56.9451923,41.9005293 56.9451923,43.0923077 L56.9451923,54.7846154 C56.9451923,55.9763938 55.9763938,56.9451923 54.7846154,56.9451923 L53.4855769,56.9451923 L53.4855769,54.7846154 L53.9230769,55.2221154 L53.4307692,55.2221154 L53.8682692,54.7846154 L53.8682692,56.9451923 L50.1625,56.9451923 L50.1625,52.8153846 L50.6,53.2528846 L50.1076923,53.2528846 L50.5451923,52.8153846 L50.5451923,56.9451923 L38.1830538,56.9451923 L38.1830538,54.7846154 L38.6205538,55.2221154 L38.1282462,55.2221154 L38.5657462,54.7846154 L38.5657462,56.9451923 L34.8599769,56.9451923 L34.8599769,52.8153846 L35.2974769,53.2528846 L34.8051692,53.2528846 L35.2426692,52.8153846 L35.2426692,56.9451923 L22.8188692,56.9451923 L22.8188692,54.7846154 L23.2563692,55.2221154 L22.7640615,55.2221154 L23.2015615,54.7846154 L23.2015615,56.9451923 L19.6188692,56.9451923 L19.6188692,52.8153846 L20.0563692,53.2528846 L19.5640615,53.2528846 L20.0015615,52.8153846 L20.0015615,56.9451923 L3.21538462,56.9451923 Z M1.92980769,38.7298077 L1.92980769,40.4394231 L16.1932692,40.4394231 L16.1932692,3.21538462 C16.1932692,2.50685535 15.6162216,1.92980769 14.9076923,1.92980769 L3.21538462,1.92980769 C2.50685535,1.92980769 1.92980769,2.50685535 1.92980769,3.21538462 L1.92980769,3.7625 L5.62211538,3.7625 L5.62211538,5.12980769 L1.92980769,5.12980769 L1.92980769,7.08557692 L3.65288462,7.08557692 L3.65288462,8.45288462 L1.92980769,8.45288462 L1.92980769,18.8394231 L5.62211538,18.8394231 L5.62211538,20.2067308 L1.92980769,20.2067308 L1.92980769,22.2855769 L3.65288462,22.2855769 L3.65288462,23.6528846 L1.92980769,23.6528846 L1.92980769,34.0394231 L5.62211538,34.0394231 L5.62211538,35.4067308 L1.92980769,35.4067308 L1.92980769,37.3625 L3.65288462,37.3625 L3.65288462,38.7298077 L1.92980769,38.7298077 Z M3.21538462,37.8548077 L2.77788462,38.2923077 L2.77788462,37.8 L3.21538462,38.2375 L1.05480769,38.2375 L1.05480769,34.5317308 L5.18461538,34.5317308 L4.74711538,34.9692308 L4.74711538,34.4769231 L5.18461538,34.9144231 L1.05480769,34.9144231 L1.05480769,22.7778846 L3.21538462,22.7778846 L2.77788462,23.2153846 L2.77788462,22.7230769 L3.21538462,23.1605769 L1.05480769,23.1605769 L1.05480769,19.3317308 L5.18461538,19.3317308 L4.74711538,19.7692308 L4.74711538,19.2769231 L5.18461538,19.7144231 L1.05480769,19.7144231 L1.05480769,7.57788462 L3.21538462,7.57788462 L2.77788462,8.01538462 L2.77788462,7.52307692 L3.21538462,7.96057692 L1.05480769,7.96057692 L1.05480769,4.25480769 L5.18461538,4.25480769 L4.74711538,4.69230769 L4.74711538,4.2 L5.18461538,4.6375 L1.05480769,4.6375 L1.05480769,3.21538462 C1.05480769,2.02360619 2.02360619,1.05480769 3.21538462,1.05480769 L14.9076923,1.05480769 C16.0994707,1.05480769 17.0682692,2.02360619 17.0682692,3.21538462 L17.0682692,41.3144231 L1.05480769,41.3144231 L1.05480769,37.8548077 L3.21538462,37.8548077 Z M17.5605769,40.4394231 L54.7846154,40.4394231 C56.2477784,40.4394231 57.4375,41.6291447 57.4375,43.0923077 L57.4375,54.7846154 C57.4375,56.2477784 56.2477784,57.4375 54.7846154,57.4375 L3.21538462,57.4375 C1.75222158,57.4375 0.5625,56.2477784 0.5625,54.7846154 L0.5625,3.21538462 C0.5625,1.75222158 1.75222158,0.5625 3.21538462,0.5625 L14.9076923,0.5625 C16.3708553,0.5625 17.5605769,1.75222158 17.5605769,3.21538462 L17.5605769,40.4394231 Z M54.7846154,41.3144231 L16.6855769,41.3144231 L16.6855769,3.21538462 C16.6855769,2.23547073 15.8876062,1.4375 14.9076923,1.4375 L3.21538462,1.4375 C2.23547073,1.4375 1.4375,2.23547073 1.4375,3.21538462 L1.4375,54.7846154 C1.4375,55.7645293 2.23547073,56.5625 3.21538462,56.5625 L54.7846154,56.5625 C55.7645293,56.5625 56.5625,55.7645293 56.5625,54.7846154 L56.5625,43.0923077 C56.5625,42.1123938 55.7645293,41.3144231 54.7846154,41.3144231 Z" id="Process"></path>
                    </g>
                </g>
            </g>
        </g>
    </g>
</svg>